<svg width="25" height="24" viewBox="0 0 25 24" fill="none" xmlns="http://www.w3.org/2000/svg">
<path d="M12.2628 16.1507C14.8826 16.1507 17.0289 13.9412 17.0289 11.2268C17.0289 11.1952 16.9974 11.1636 16.9658 11.1636C16.9342 11.1636 16.9027 11.1952 16.9027 11.2268C16.9027 13.6887 14.8195 15.7088 12.2628 15.7088C9.70616 15.7088 7.62296 13.6887 7.62296 11.2268C7.62296 11.1952 7.59139 11.1636 7.55983 11.1636C7.52827 11.1636 7.4967 11.1952 7.4967 11.2268C7.4967 13.9412 9.64303 16.1507 12.2628 16.1507Z" fill="#14F46F" stroke="#14F46F" stroke-width="0.25"/>
<path d="M12.2628 16.6557C9.20112 16.6557 6.73915 14.2253 6.73915 11.2583C6.73915 10.5639 6.83384 9.9642 6.99166 9.45918C6.99166 9.45918 6.99166 9.45918 6.99166 9.42761C6.99166 9.39605 6.9601 9.36449 6.9601 9.36449C6.92853 9.36449 6.89697 9.36449 6.8654 9.39605C6.64446 10.0589 6.5182 10.6902 6.5182 11.2583C6.5182 14.5094 9.10643 17.1607 12.2628 17.1607C15.4192 17.1607 18.0074 14.5094 18.0074 11.2583C18.0074 10.6902 17.8811 10.0905 17.6602 9.42761C17.6602 9.39605 17.6286 9.36449 17.5655 9.39605C17.5339 9.39605 17.5339 9.42761 17.5339 9.45918C17.5339 9.45918 17.5339 9.45918 17.5339 9.49074C17.6917 9.99576 17.7864 10.5955 17.7864 11.2899C17.7864 14.2253 15.3245 16.6557 12.2628 16.6557Z" fill="#14F46F" stroke="#14F46F" stroke-width="0.25"/>
<path d="M12.2705 17.8599C8.54599 17.8599 5.61056 15.0507 5.61056 11.4209C5.61056 10.1899 5.89464 9.0852 6.43122 8.10673V8.07516C6.43122 8.0436 6.43122 8.0436 6.39966 8.01204C6.36809 7.98047 6.33653 8.01204 6.30496 8.0436C5.70525 9.11676 5.38962 10.2846 5.38962 11.4209C5.38962 15.3032 8.48286 18.428 12.2705 18.428C16.0581 18.428 19.1514 15.3032 19.1514 11.4209C19.1514 10.2846 18.8357 9.11676 18.236 8.0436C18.2045 8.01204 18.1729 8.01204 18.1413 8.01204C18.1098 8.01204 18.1098 8.0436 18.1098 8.07516V8.10673C18.6464 9.0852 18.9304 10.1899 18.9304 11.4209C18.9304 15.0507 15.995 17.8599 12.2705 17.8599Z" fill="#14F46F" stroke="#14F46F" stroke-width="0.25"/>
<path d="M17.9443 16.7504C16.4292 18.2023 14.4091 18.9914 12.2628 18.9914C10.1165 18.9914 8.0964 18.2023 6.58134 16.7504C5.06628 15.2985 4.24563 13.3415 4.24563 11.2583C4.24563 9.45918 4.81377 7.75474 5.85537 6.36594V6.33437C5.85537 6.30281 5.85537 6.30281 5.82381 6.27125C5.79225 6.23968 5.76068 6.27125 5.72912 6.27125C4.62439 7.75474 4.05624 9.45918 4.05624 11.2267C4.05624 15.8666 7.74919 19.6542 12.2628 19.6542C16.7764 19.6542 20.4694 15.8666 20.4694 11.2267C20.4694 9.45918 19.8696 7.72318 18.7649 6.27125C18.7334 6.23968 18.7018 6.23968 18.6702 6.27125C18.6387 6.27125 18.6387 6.30281 18.6387 6.33437V6.36594C19.6803 7.75474 20.2484 9.42761 20.2484 11.2583C20.28 13.3415 19.4593 15.2985 17.9443 16.7504Z" fill="#14F46F" stroke="#14F46F" stroke-width="0.25"/>
<path d="M12.2628 21.3271C17.6917 21.3271 22.1422 16.8135 22.1422 11.2583C22.1422 7.78632 20.2484 4.50369 17.1552 2.73613C17.1236 2.70456 17.092 2.73613 17.0605 2.76769V2.79925C17.0605 2.83082 17.0605 2.83082 17.092 2.86238C20.059 4.56682 21.8897 7.78632 21.8897 11.2583C21.8897 13.7834 20.8797 16.1191 19.0806 17.8867C17.2814 19.6227 14.851 20.6012 12.2628 20.6012C9.67458 20.6012 7.27574 19.6543 5.44504 17.8867C3.61435 16.1507 2.63588 13.7834 2.63588 11.2583C2.63588 7.78632 4.46657 4.56682 7.43356 2.86238C7.46512 2.86238 7.46512 2.83082 7.46512 2.79925V2.76769C7.43356 2.73613 7.40199 2.73613 7.37043 2.73613C4.30875 4.50369 2.41493 7.78632 2.41493 11.2583C2.38337 16.782 6.83385 21.3271 12.2628 21.3271Z" fill="#14F46F" stroke="#14F46F" stroke-width="0.25"/>
<path d="M23.9414 11.1636C23.9098 11.1636 23.8782 11.1952 23.8782 11.2268C23.8782 17.3817 18.7649 22.2109 12.2628 22.2109C5.76069 22.2109 0.647373 17.4132 0.647373 11.2268C0.647373 11.1952 0.615809 11.1636 0.584245 11.1636C0.552682 11.1636 0.521118 11.1952 0.521118 11.2268C0.521118 17.8236 5.69756 23 12.2628 23C18.8281 23 24.0045 17.8236 24.0045 11.2268C24.0045 11.1952 23.9729 11.1636 23.9414 11.1636Z" fill="#14F46F" stroke="#14F46F" stroke-width="0.25"/>
</svg>
