<svg width="24" height="24" viewBox="0 0 24 24" fill="none" xmlns="http://www.w3.org/2000/svg">
<path d="M14.4067 21.979V14.5336C15.1829 14.6708 15.841 14.9011 16.3307 15.1138C16.6313 15.2443 16.8665 15.3673 17.0246 15.4563C17.1036 15.5008 17.1632 15.5367 17.2018 15.5607C17.2211 15.5727 17.2351 15.5817 17.2437 15.5873L17.2525 15.593L17.253 15.5934L17.2532 15.5935L17.2534 15.5936L17.2536 15.5938L17.2538 15.5939L17.6158 15.8384L17.9066 15.5111L19.2843 13.9601L19.6545 13.5434L19.2002 13.2205C17.9866 12.3578 16.5039 11.922 15.3535 11.6989C14.7734 11.5864 14.2667 11.5259 13.904 11.4934C13.8529 11.4888 13.8047 11.4848 13.7595 11.4813L13.2717 6.106C13.6279 5.77218 13.8557 5.29863 13.8557 4.762C13.8557 3.74794 13.0247 2.92 12.011 2.92C10.9974 2.92 10.1664 3.74794 10.1664 4.762C10.1664 5.29162 10.3894 5.77525 10.75 6.10974L10.2626 11.4801C10.2177 11.4835 10.1699 11.4873 10.1193 11.4917C9.75643 11.5233 9.24948 11.5828 8.66917 11.6947C7.51824 11.9165 6.03474 12.3524 4.82054 13.2214L4.36878 13.5447L4.73771 13.9601L6.1154 15.5111L6.40619 15.8384L6.76825 15.5939L6.7684 15.5938L6.76866 15.5936L6.76885 15.5935L6.76906 15.5934L6.76954 15.593L6.77834 15.5873C6.78694 15.5817 6.80098 15.5727 6.82027 15.5607C6.85887 15.5367 6.91842 15.5008 6.99741 15.4563C7.1555 15.3673 7.39079 15.2443 7.69133 15.1138C8.18107 14.9011 8.83912 14.6708 9.61531 14.5336V21.9807C2.11734 15.9091 1.47959 7.52243 1.50047 4.66666L1.50049 4.66666V4.663C1.50049 4.23505 1.75741 3.84184 2.15026 3.66842L2.15108 3.66805C3.80811 2.93304 7.58088 1.5 12 1.5C16.4191 1.5 20.1919 2.93304 21.8489 3.66805L21.8497 3.66841C22.2426 3.84184 22.4995 4.23505 22.4995 4.663L22.4995 4.66666C22.5204 7.52238 21.8827 15.9076 14.4067 21.979Z" fill="#14F46F" stroke="#14F46F"/>
</svg>
