<svg width="26" height="26" viewBox="0 0 26 26" fill="none" xmlns="http://www.w3.org/2000/svg">
<path d="M1 9C1 4.58172 4.58172 1 9 1H17C21.4183 1 25 4.58172 25 9V17C25 21.4183 21.4183 25 17 25H9C4.58172 25 1 21.4183 1 17V9Z" fill="#022410"/>
<path d="M1 9C1 4.58172 4.58172 1 9 1H17C21.4183 1 25 4.58172 25 9V17C25 21.4183 21.4183 25 17 25H9C4.58172 25 1 21.4183 1 17V9Z" stroke="#03481F"/>
<path d="M16.8625 15.9501L20.6723 13.7502C20.8743 13.6334 20.9991 13.4167 20.9991 13.1841V8.78431C20.9991 8.55173 20.8743 8.33503 20.6723 8.21817L16.8625 6.01829C16.6606 5.90143 16.4099 5.90256 16.209 6.01829L12.3992 8.21817C12.1973 8.33503 12.0725 8.55173 12.0725 8.78431V16.6467L9.40062 18.1886L6.72877 16.6467V13.5619L9.40062 12.02L11.1626 13.0377V10.9683L9.72737 10.139C9.62867 10.0822 9.51521 10.0516 9.40062 10.0516C9.28604 10.0516 9.17258 10.0822 9.07387 10.139L5.26407 12.3388C5.06212 12.4557 4.93732 12.6724 4.93732 12.905V17.3048C4.93732 17.5373 5.06212 17.754 5.26407 17.8709L9.07387 20.0708C9.27582 20.1865 9.52542 20.1865 9.72737 20.0708L13.5372 17.8709C13.7391 17.754 13.8639 17.5373 13.8639 17.3048V9.44121L13.9116 9.41398L16.5347 7.89936L19.2065 9.44121V12.526L16.5347 14.0679L14.775 13.0525V15.1219L16.2079 15.949C16.4099 16.0647 16.6606 16.0647 16.8614 15.949L16.8625 15.9501Z" fill="#4FF793"/>
</svg>
