<svg width="26" height="26" viewBox="0 0 26 26" fill="none" xmlns="http://www.w3.org/2000/svg">
<path d="M1 9C1 4.58172 4.58172 1 9 1H17C21.4183 1 25 4.58172 25 9V17C25 21.4183 21.4183 25 17 25H9C4.58172 25 1 21.4183 1 17V9Z" fill="#022410"/>
<path d="M1 9C1 4.58172 4.58172 1 9 1H17C21.4183 1 25 4.58172 25 9V17C25 21.4183 21.4183 25 17 25H9C4.58172 25 1 21.4183 1 17V9Z" stroke="#03481F"/>
<path d="M7.76375 17.5967C6.76024 17.5967 5.93808 17.3606 5.29719 16.8884C4.66473 16.4077 4.3485 15.7247 4.3485 14.8392C4.3485 14.6538 4.36959 14.426 4.41173 14.1562C4.52141 13.549 4.6774 12.8196 4.87977 11.9679C5.45319 9.64888 6.93316 8.48939 9.31962 8.48939C9.96894 8.48939 10.5508 8.59901 11.0652 8.81823C11.5796 9.02903 11.9844 9.34951 12.2795 9.7796C12.5746 10.2012 12.7223 10.7072 12.7223 11.2975C12.7223 11.4746 12.7011 11.698 12.659 11.9679C12.5325 12.7184 12.3807 13.4478 12.2036 14.1562C11.9084 15.3114 11.3982 16.1758 10.6731 16.7493C9.94784 17.3143 8.97811 17.5967 7.76375 17.5967ZM7.94084 15.7752C8.41313 15.7752 8.81363 15.6361 9.14253 15.3578C9.47986 15.0796 9.72019 14.6538 9.86351 14.0803C10.0575 13.2876 10.2051 12.5961 10.3063 12.0058C10.34 11.8288 10.3568 11.6475 10.3568 11.4619C10.3568 10.6945 9.95627 10.3108 9.1552 10.3108C8.68292 10.3108 8.27817 10.4499 7.94084 10.7282C7.612 11.0066 7.37586 11.4324 7.23253 12.0058C7.08072 12.5708 6.92891 13.2623 6.77717 14.0803C6.74339 14.2489 6.72653 14.426 6.72653 14.6115C6.72653 15.3874 7.13135 15.7752 7.94084 15.7752Z" fill="#4FF793"/>
<path d="M13.3031 17.4703C13.2103 17.4703 13.1386 17.4408 13.088 17.3817C13.0458 17.3142 13.0332 17.2383 13.0501 17.1541L14.7956 8.93207C14.8125 8.83931 14.8589 8.7634 14.9348 8.70436C15.0106 8.64537 15.0907 8.61584 15.1751 8.61584H18.5398C19.4758 8.61584 20.2263 8.80979 20.7913 9.19767C21.3648 9.58564 21.6515 10.1464 21.6515 10.88C21.6515 11.0908 21.6262 11.3101 21.5756 11.5378C21.3648 12.5076 20.9389 13.2244 20.298 13.6881C19.6655 14.1519 18.797 14.3839 17.6923 14.3839H15.9847L15.4028 17.1541C15.3859 17.2467 15.3395 17.3226 15.2636 17.3817C15.1878 17.4408 15.1076 17.4703 15.0233 17.4703H13.3031ZM17.7809 12.6382C18.135 12.6382 18.4427 12.5413 18.7042 12.3474C18.974 12.1534 19.1511 11.8751 19.2355 11.5125C19.2607 11.3691 19.2734 11.2427 19.2734 11.133C19.2734 10.8884 19.2018 10.7029 19.0584 10.5765C18.915 10.4415 18.6705 10.3741 18.3248 10.3741H16.8069L16.3261 12.6382H17.7809Z" fill="#4FF793"/>
</svg>
