<svg width="26" height="26" viewBox="0 0 26 26" fill="none" xmlns="http://www.w3.org/2000/svg">
<rect x="1" y="1" width="24" height="24" rx="8" fill="#022410"/>
<rect x="1" y="1" width="24" height="24" rx="8" stroke="#03481F"/>
<path d="M6.41463 13V16.9024L9.70732 18.8537V21.1707L4.46341 18V11.9024L6.41463 13ZM6.41463 9.09757V11.2927L4.46341 10.1951V8.00001L6.41463 6.90245L8.36585 8.00001L6.41463 9.09757ZM11.0488 8.00001L13 6.90245L14.9513 8.00001L13 9.09757L11.0488 8.00001Z" fill="#4FF793"/>
<path d="M7.7561 16.0488V13.7317L9.70733 14.8293V17.0244L7.7561 16.0488ZM11.0488 19.5854L13 20.683L14.9513 19.5854V21.7805L13 23L11.0488 21.9024V19.5854ZM17.6342 8.00001L19.5853 6.90245L21.5366 8.00001V10.1951L19.5853 11.2927V9.09757L17.6342 8.00001ZM19.5853 16.9024V13L21.5366 11.9024V18L16.2927 21.0487V18.7317L19.5853 16.9024Z" fill="#4FF793"/>
<path d="M18.2439 16.0488L16.2927 17.1463V14.9513L18.2439 13.8537V16.0488Z" fill="#4FF793"/>
<path d="M18.2439 9.95123V12.2683L14.9513 14.2196V18.122L13 19.0976L11.0488 18V14.0976L7.7561 12.1464V9.95123L9.70733 8.85367L13 10.8049L16.2927 8.85367L18.2439 9.95123ZM7.7561 6.04878L13 3L18.2439 6.04878L16.2927 7.14634L13 5.19512L9.70733 7.14634L7.7561 6.04878Z" fill="#4FF793"/>
</svg>
