<svg width="26" height="26" viewBox="0 0 26 26" fill="none" xmlns="http://www.w3.org/2000/svg">
<path d="M1 9C1 4.58172 4.58172 1 9 1H17C21.4183 1 25 4.58172 25 9V17C25 21.4183 21.4183 25 17 25H9C4.58172 25 1 21.4183 1 17V9Z" fill="#022410"/>
<path d="M1 9C1 4.58172 4.58172 1 9 1H17C21.4183 1 25 4.58172 25 9V17C25 21.4183 21.4183 25 17 25H9C4.58172 25 1 21.4183 1 17V9Z" stroke="#03481F"/>
<path d="M18.9996 25H6.99991C3.68611 25 0.999756 22.3136 0.999756 18.9998V7.00015C0.999756 3.68636 3.68611 1 6.99991 1H18.9996C22.3134 1 24.9998 3.68636 24.9998 7.00015V18.9998C24.9998 22.3136 22.3134 25 18.9996 25Z" fill="#022410" stroke="#03481F"/>
<path d="M11.4195 8.77463C10.4706 8.7612 9.4485 9.0079 8.97937 9.77368L5.25322 15.5491L3.99966 17.4752V18.1908L5.97145 19.3271L12.5331 8.80403L11.4195 8.77463Z" fill="#4FF793"/>
<path d="M21.1226 7.34523L13.8261 3.19261C13.3111 2.93599 12.6678 2.93565 12.152 3.19247C12.091 3.22285 5.05638 7.26053 5.05638 7.26053C4.95901 7.30672 4.86527 7.36178 4.77708 7.42424C4.31234 7.75383 4.02905 8.26605 4 8.8288V17.4288L5.25353 15.5227L5.24257 8.88692C5.24408 8.86264 5.24709 8.83877 5.25148 8.81517C5.27985 8.65905 5.3679 8.51982 5.50057 8.42563C5.53366 8.40223 12.6884 4.30352 12.7111 4.29233C12.8794 4.20871 13.0931 4.20776 13.2615 4.28968L20.4635 8.38955C20.6339 8.4969 20.7407 8.67899 20.7502 8.87803V15.8206L16.761 9.67156L15.2769 12.1638L19.1387 18.3449L18.4182 18.7581L14.7572 13.0473L13.0555 15.9051L15.8431 20.235L13.2316 21.7326C13.091 21.783 12.9265 21.7802 12.7871 21.724L9.69732 19.9653L16.3204 8.84751L13.3854 8.85803L6.74526 19.7023L9.06614 21.0248L11.8428 22.6069C11.9346 22.6585 12.0164 22.7043 12.0836 22.7417C12.1875 22.7993 12.2584 22.8379 12.2834 22.8499C12.4807 22.9449 12.7647 23 13.0205 23C13.2551 23 13.4839 22.9573 13.7004 22.8734L21.2855 18.5261C21.7208 18.1923 21.9769 17.6889 22 17.1435V8.83253C21.9755 8.22509 21.6431 7.66899 21.1226 7.34523Z" fill="#4FF793"/>
</svg>
