<svg width="26" height="26" viewBox="0 0 26 26" fill="none" xmlns="http://www.w3.org/2000/svg">
<rect x="1" y="1" width="24" height="24" rx="8" fill="#022410"/>
<rect x="1" y="1" width="24" height="24" rx="8" stroke="#03481F"/>
<path d="M12.7035 4.17828L7.53966 13.243C7.46067 13.3816 7.50343 13.5625 7.63459 13.6445L13 17L18.3654 13.6445C18.4966 13.5625 18.5393 13.3817 18.4604 13.243L13.2975 4.17831C13.1621 3.94057 12.8389 3.94056 12.7035 4.17828Z" fill="#4FF793"/>
<path d="M13.0002 18.5694L8.9041 16.0413C8.65379 15.8869 8.37814 16.1983 8.55737 16.4331L12.6799 21.8333C12.8361 22.0556 13.1624 22.0556 13.3186 21.8333L17.4426 16.4352C17.6219 16.2004 17.3463 15.8889 17.096 16.0433L13.0002 18.5694Z" fill="#4FF793"/>
</svg>
