<svg width="16" height="16" viewBox="0 0 16 16" fill="none" xmlns="http://www.w3.org/2000/svg">
<g clip-path="url(#clip0_5203_5077)">
<path d="M8 16C12.4183 16 16 12.4183 16 8C16 3.58172 12.4183 0 8 0C3.58172 0 0 3.58172 0 8C0 12.4183 3.58172 16 8 16Z" fill="url(#paint0_linear_5203_5077)"/>
<path d="M8 15.697C3.63333 15.697 0.0848485 12.197 0.0030303 7.84848C0.0030303 7.9 0 7.94848 0 8C0 12.4182 3.58182 16 8 16C12.4182 16 16 12.4182 16 8C16 7.94848 16 7.9 15.997 7.84848C15.9152 12.197 12.3697 15.697 8 15.697Z" fill="#03481F"/>
<path d="M8 14.2061C11.4275 14.2061 14.2061 11.4275 14.2061 8.00001C14.2061 4.57249 11.4275 1.79395 8 1.79395C4.57249 1.79395 1.79394 4.57249 1.79394 8.00001C1.79394 11.4275 4.57249 14.2061 8 14.2061Z" fill="#121F23"/>
<path d="M14.0939 8.03636C13.7273 11.4424 11.3515 13.9 7.92424 13.9C6.87879 13.9 5.68182 13.603 4.81818 13.1455C3.95454 12.6879 3.74545 12.6364 4.62121 13.2061C5.59394 13.8394 6.75455 14.2091 8.00303 14.2091C11.4303 14.2091 14.2091 11.4303 14.2091 8.00303C14.2091 7.31212 14.1788 7.28182 14.097 8.03939L14.0939 8.03636Z" fill="#08B44E"/>
<path d="M8.03333 2.55151C10.6 2.55151 12.803 4.11212 13.7455 6.33333C13.9788 6.88181 14.1152 6.8 13.9515 6.24545C13.1939 3.67272 10.8152 1.79697 7.99697 1.79697C5.06364 1.79697 2.60606 3.83333 1.95758 6.56666C1.84849 7.02727 2.01515 7.04545 2.32424 6.32424C3.2697 4.10606 5.46667 2.55151 8.0303 2.55151H8.03333Z" fill="#1A282D"/>
<path d="M3.30303 4.24849C4.44242 2.93031 6.12424 2.09698 8 2.09698C10.0545 2.09698 11.8788 3.09698 13.0061 4.63637C13.4242 5.20607 13.4273 4.9091 13.0121 4.34243C11.8848 2.79698 10.0576 1.79395 8 1.79395C6.07273 1.79395 4.35152 2.67273 3.21212 4.04849C2.61818 4.7697 2.66061 4.98788 3.3 4.24849H3.30303Z" fill="#031116"/>
<path d="M4.65758 4.3606V5.50302V10.9182H6.11818V7.63938L6.07273 5.50302H8.81818V4.3606H6.04849H4.65758Z" fill="url(#paint1_linear_5203_5077)"/>
<path d="M4.65758 4.3606V5.50302V10.9182H6.11818V7.63938L6.07273 5.50302H8.81818V4.3606H6.04849H4.65758Z" fill="#0AD85E"/>
<path d="M9.12121 4.66363L8.81818 4.3606V5.50302H6.07273L6.11818 7.63938V10.9182H4.65758L4.96061 11.2212H6.42121V7.94241L6.37576 5.80605H9.12121V4.66363Z" fill="#EA8000"/>
<path d="M9.12121 4.66363L8.81818 4.3606V5.50302H6.07273L6.11818 7.63938V10.9182H4.65758L4.96061 11.2212H6.42121V7.94241L6.37576 5.80605H9.12121V4.66363Z" fill="#031116"/>
<path d="M9.42424 4.96667L9.12121 4.66364V5.80606H6.37576L6.42121 7.94242V11.2212H4.96061L5.26364 11.5242H6.40606C6.58182 11.5242 6.72424 11.3818 6.72424 11.2061V8.24545L6.67879 6.10909H9.10606C9.28182 6.10909 9.42424 5.96667 9.42424 5.79091V4.96667Z" fill="#1A282D"/>
<path d="M11.8848 10.3091H8.26667V11.1333H11.8848V10.3091Z" fill="#0AD85E"/>
<path d="M8.26667 10.3091H11.8849L11.5818 10.0061H8.28182C8.10606 10.0061 7.96364 10.1485 7.96364 10.3243V10.8333L8.26667 11.1364V10.3121V10.3091Z" fill="#ADFFCE"/>
<path d="M11.8848 10.3091V11.1364H8.26667L8.5697 11.4394H12.1879V10.6121L11.8848 10.3091Z" fill="#F59102"/>
<path d="M11.8848 10.3091V11.1364H8.26667L8.5697 11.4394H12.1879V10.6121L11.8848 10.3091Z" fill="#031116"/>
<path d="M12.1879 10.6121V11.4364H8.5697L8.87273 11.7394H12.0849C12.3091 11.7394 12.4909 11.5576 12.4909 11.3333V10.9121L12.1879 10.6091V10.6121Z" fill="#1A282D"/>
<path d="M4.65758 5.50304V4.36062H6.04848H8.81818L8.51515 4.05759H5.74545H4.61212C4.4697 4.05759 4.35455 4.17274 4.35455 4.31516V5.20001V10.6152L4.65758 10.9182V5.50304Z" fill="#ADFFCE"/>
</g>
<defs>
<linearGradient id="paint0_linear_5203_5077" x1="8.13636" y1="0.069697" x2="7.86364" y2="16.0667" gradientUnits="userSpaceOnUse">
<stop stop-color="#4FF793"/>
<stop offset="1" stop-color="#07903F"/>
</linearGradient>
<linearGradient id="paint1_linear_5203_5077" x1="6.15455" y1="4.40908" x2="7.70909" y2="12.9939" gradientUnits="userSpaceOnUse">
<stop stop-color="#FDAE16"/>
<stop offset="1" stop-color="#FE9D15"/>
</linearGradient>
<clipPath id="clip0_5203_5077">
<rect width="16" height="16" fill="white"/>
</clipPath>
</defs>
</svg>
