<svg width="24" height="24" viewBox="0 0 24 24" fill="none" xmlns="http://www.w3.org/2000/svg">
<g clip-path="url(#clip0_7308_11543)">
<path d="M12.0008 0.5C5.64981 0.499174 0.500826 5.64807 0.5 11.9992C0.499174 18.3503 5.64807 23.4993 11.9992 23.5C18.3503 23.5009 23.4993 18.352 23.5 12.0009V12.0008V12.0008V12.0008V12.0008V12.0008V12.0008V12.0008V12.0007V12.0007V12.0007V12.0007V12.0007V12.0007V12.0006V12.0006V12.0006V12.0006V12.0006V12.0006V12.0005V12.0005V12.0005V12.0005V12.0005V12.0005V12.0005V12.0004V12.0004V12.0004V12.0004V12.0004V12.0004V12.0003V12.0003V12.0003V12.0003V12.0003V12.0003V12.0003V12.0002V12.0002V12.0002V12.0002V12.0002V12.0002V12.0001V12.0001V12.0001V12.0001V12.0001V12.0001V12.0001V12V12V12V12V12V12V11.9999V11.9999V11.9999V11.9999V11.9999V11.9999V11.9998V11.9998V11.9998V11.9998V11.9998V11.9998V11.9998V11.9997V11.9997V11.9997V11.9997V11.9997V11.9997V11.9997V11.9996V11.9996V11.9996V11.9996V11.9996V11.9996V11.9995V11.9995V11.9995V11.9995V11.9995V11.9995V11.9994V11.9994V11.9994V11.9994V11.9994V11.9994V11.9993V11.9993V11.9993V11.9993V11.9993V11.9993V11.9992V11.9992V11.9992L12.0008 0.5ZM12.0008 0.5C18.3511 0.500826 23.4993 5.64894 23.5 11.9992L12.0008 0.5Z" fill="#14F46F" stroke="#14F46F"/>
<path d="M12.0937 14.1594V10.8333L2.66667 15.5H20.1667V6.16667L12.0937 14.1594Z" fill="#031116"/>
</g>
<defs>
<clipPath id="clip0_7308_11543">
<rect width="24" height="24" fill="white"/>
</clipPath>
</defs>
</svg>
