<?xml version="1.0" encoding="UTF-8"?>
<svg id="Capa_1" xmlns="http://www.w3.org/2000/svg" version="1.1" viewBox="0 0 140 28">
  <!-- Generator: Adobe Illustrator 29.0.0, SVG Export Plug-In . SVG Version: 2.1.0 Build 186)  -->
  <defs>
    <style>
      .st0 {
        fill: #fff;
      }
    </style>
  </defs>
  <path class="st0" d="M74.7,5.6v16.7c0,.2-.1.3-.3.3h-1.6c-.4,0-.8-.2-1.1-.5l-12.8-13.2v13.4c0,.2-.1.3-.3.3h-2.2c-.2,0-.3-.1-.3-.3V5.6c0-.2.1-.3.3-.3h2.2c.4,0,.8.2,1.1.5l12.3,12.7V5.6c0-.2.1-.3.3-.3h2.3c.2,0,.3.1.3.3h0Z"/>
  <path class="st0" d="M96.7,20.4v2c0,.2-.1.3-.3.3h-16.2c-.5,0-.9-.4-.9-.9V6.2c0-.5.4-.9.9-.9h15.9c.2,0,.3.1.3.3v2c0,.2-.1.3-.3.3h-13.9v4.6h11.7c.2,0,.3.1.3.3v2c0,.2-.1.3-.3.3h-11.7v4.9h14.1c.2,0,.3.1.3.3h0Z"/>
  <path class="st0" d="M109.8,13.9l7.5,8.4c.1.1,0,.4-.2.4h-2.9c-.2,0-.3,0-.4-.2l-5.9-6.6-5.6,6.2c-.3.3-.7.5-1.2.5h-2.3c-.2,0-.3-.2-.2-.4l7.5-8.4-7.4-8.2c-.1-.1,0-.4.2-.4h2.9c.2,0,.3,0,.4.2l5.8,6.5,5.5-6.1c.3-.3.7-.5,1.2-.5h2.3c.2,0,.3.2.2.4l-7.4,8.2Z"/>
  <path class="st0" d="M118.6,14c0-5.8,4.1-9.3,10.7-9.3s10.7,3.5,10.7,9.3-4.1,9.3-10.7,9.3-10.7-3.5-10.7-9.3ZM136.9,14c0-4.3-3-6.7-7.6-6.7s-7.7,2.4-7.7,6.7,3,6.7,7.7,6.7,7.6-2.4,7.6-6.7Z"/>
  <path class="st0" d="M41.9.8c0,0-.2-.2-.3-.2l-1-.2c-.2,0-.4.1-.4.3l-2.6,13.9c0,.2-.3.1-.3,0h0s.8-14.1.8-14.1c0-.2-.1-.4-.3-.4,0,0-.2,0-.3,0-.2,0-.3.1-.4.3l-1.4,16.3c0,.2-.3.2-.3,0l-.9-16.1c0-.2-.2-.3-.4-.3s-.2,0-.2,0c-.2,0-.3.2-.3.3l.3,17.2c0,.2-.3.2-.3,0L30.7,1.6c0-.2-.2-.3-.4-.3s0,0-.2,0c-.2,0-.3.2-.2.4l2.2,16.9c0,.2-.3.2-.3,0l-4.9-15.1c0-.1-.2-.2-.3-.2s-.1,0-.2,0c-.1,0-.2.2-.1.4l4,15.1c0,.2-.2.3-.3,0h0s-6.3-12.6-6.3-12.6c0-.1-.1-.2-.3-.2s-.2,0-.2,0c0,0,0,.1,0,.2s0,.1,0,.1l5.3,12.1c0,.2-.2.3-.3.2h0s-6.7-9.4-6.7-9.4c0,0-.1-.1-.2-.1s-.1,0-.2,0c0,0,0,.1,0,.2s0,.1,0,.1l5.1,7.7c.1.2-.1.3-.3.2,0,0-15.9-16-16-16h0c-.6-.5-1.3-.8-2.1-.8-1.4,0-2.5.9-2.8,2.3L0,26.9c0,.1,0,.2,0,.3,0,0,.2.2.3.2l1,.2c.2,0,.4-.1.4-.3l2.6-13.9c0-.2.3-.2.3,0l-.8,14.1c0,.2.1.4.3.4,0,0,.2,0,.2,0h0c.2,0,.3-.1.4-.3l1.4-16.3c0-.2.3-.2.3,0l.9,16.1c0,.2.2.3.4.3s.2,0,.2,0c.2,0,.3-.2.3-.3l-.3-17.2c0-.2.3-.2.3,0l2.9,16.2c0,.2.2.3.4.3s0,0,.2,0c.2,0,.3-.2.2-.4l-2.2-16.9c0-.2.3-.3.3,0h0s4.9,15.1,4.9,15.1c0,.1.2.2.3.2s.1,0,.2,0c.1,0,.2-.2.1-.4l-4-15.1c0-.2.2-.3.3-.1l6.3,12.6c0,0,.1.2.3.2s.2,0,.2,0c0,0,0-.1,0-.2s0-.1,0-.1l-5.3-12.1c0-.2.2-.3.3-.2h0s6.7,9.4,6.7,9.4c0,0,.1.1.2.1s.1,0,.2,0c0,0,0-.1,0-.2s0-.1,0-.1l-5.1-7.7c-.1-.2.1-.3.3-.2,15.3,15.2,15.9,16,16,16h0c.6.5,1.3.8,2.1.8,1.3,0,2.5-.9,2.8-2.3L42,1.1c0-.1,0-.2,0-.3h0Z"/>
</svg>