<svg width="24" height="24" viewBox="0 0 24 24" fill="none" xmlns="http://www.w3.org/2000/svg">
<path d="M7.80674 1.08163C6.30857 1.08163 5.61894 2.2107 5.61894 3.77221C5.61894 5.01334 6.42026 7.49903 6.74901 8.46669C6.82296 8.68432 6.70675 8.92278 6.49487 9.00718C5.29415 9.48538 1.75073 11.2366 1.75073 15.2471C1.75073 19.4718 5.35163 22.657 11.9921 22.6621C11.9947 22.6621 11.9973 22.6621 12 22.6621C12.0026 22.6621 12.0053 22.6621 12.0079 22.6621C18.6483 22.657 22.2492 19.4718 22.2492 15.2471C22.2492 11.2366 18.7057 9.48538 17.505 9.00718C17.2931 8.92278 17.177 8.68432 17.2509 8.46669C17.5797 7.49903 18.381 5.01334 18.381 3.77221C18.381 2.2107 17.6914 1.08163 16.1932 1.08163C14.0367 1.08163 13.4991 4.16759 13.4607 7.4796C13.4582 7.70071 13.2813 7.88011 13.0623 7.88011H10.9376C10.7186 7.88011 10.5417 7.70071 10.5392 7.4796C10.5008 4.16759 9.96324 1.08163 7.80674 1.08163Z" fill="#14F46F"/>
<path d="M10 14C10 15.315 9.32842 16 8.50001 16C7.67155 16 7 15.315 7 14C7 12.6849 7.67155 12 8.50001 12C9.32842 12 10 12.6849 10 14Z" fill="#031116"/>
<path d="M17 14C17 15.315 16.3284 16 15.5 16C14.6716 16 14 15.315 14 14C14 12.6849 14.6716 12 15.5 12C16.3284 12 17 12.6849 17 14Z" fill="#031116"/>
</svg>
