<svg width="24" height="24" viewBox="0 0 24 24" fill="none" xmlns="http://www.w3.org/2000/svg">
<g clip-path="url(#clip0_7692_8896)">
<path d="M12 24C18.6274 24 24 18.6274 24 12C24 5.37258 18.6274 0 12 0C5.37258 0 0 5.37258 0 12C0 18.6274 5.37258 24 12 24Z" fill="#14F46F"/>
<path d="M12.6444 11.904C12.2512 11.6668 11.8221 11.5177 11.3818 11.4006C10.9199 11.2778 10.4499 11.2034 9.97217 11.165C9.66639 11.1404 9.36102 11.1343 9.0574 11.1501C8.5467 11.1767 8.04038 11.2439 7.57234 11.4754C7.4617 11.5301 7.36535 11.6024 7.27693 11.6888C7.11655 11.8456 7.06675 12.0656 7.1685 12.2953C7.23784 12.4518 7.34401 12.5814 7.46861 12.7141C7.34071 12.7522 7.22791 12.7103 7.11799 12.6943C6.62416 12.6223 6.14389 12.4989 5.70056 12.2618C5.28428 12.0391 4.931 11.7432 4.6725 11.3427C4.73299 11.2449 4.83352 11.1987 4.92782 11.1445C5.1096 11.0683 5.27426 10.9594 5.45391 10.8774C6.26287 10.508 7.10835 10.2813 7.99317 10.1986C8.34446 10.1658 8.69602 10.1324 9.04923 10.1455C10.0947 10.1844 11.1158 10.3673 12.114 10.6783C12.3699 10.758 12.6233 10.8458 12.8897 10.9359C12.8893 10.8619 12.8466 10.8158 12.8181 10.7671C12.7109 10.584 12.5881 10.4119 12.4504 10.2498C12.4006 10.1911 12.3308 10.1395 12.3322 10.0488C12.5077 10.0872 12.6831 10.1255 12.8586 10.1639C12.8649 10.1539 12.8713 10.144 12.8776 10.134C12.6734 9.77827 12.3826 9.49561 12.0812 9.22177C12.2278 9.13697 12.3785 9.20617 12.5212 9.22438C13.9859 9.41117 15.3202 9.93308 16.4842 10.8462C18.0253 12.0551 19.0211 13.6168 19.4408 15.5374C19.5816 16.1819 19.6156 16.837 19.5681 17.4894C19.4856 18.624 19.1291 19.6708 18.4585 20.6008C18.4146 20.6617 18.3548 20.7104 18.3225 20.7801C18.2324 20.9404 18.0795 21.0391 17.9466 21.1557C16.8828 22.0897 15.6231 22.6032 14.2487 22.8662C13.4325 23.0223 12.607 23.0834 11.7779 23.0614C9.48281 23.0003 7.40005 22.302 5.53978 20.9512C5.28543 20.7665 5.03418 20.5777 4.80649 20.3598C4.89191 20.2944 4.9473 20.367 5.0026 20.4088C5.29961 20.6332 5.61313 20.8312 5.94203 21.0049C6.76682 21.4404 7.64558 21.6981 8.57147 21.7994C8.94091 21.8321 9.30864 21.8609 9.68169 21.828C10.0193 21.7982 10.3565 21.7716 10.6902 21.7114C11.3468 21.593 11.9775 21.3932 12.5865 21.1204C13.3054 20.7984 13.9656 20.3836 14.5536 19.8614C15.3997 19.1099 16.0607 18.2307 16.3614 17.1182C16.6078 16.2065 16.5331 15.3188 16.1474 14.457C16.1419 14.4449 16.1362 14.4317 16.105 14.4308C16.0281 14.8574 15.7989 15.2086 15.5195 15.5325C15.2 15.8813 14.8426 16.1803 14.3934 16.379C14.4369 16.0196 14.5525 15.6775 14.5799 15.3209C14.7114 14.0203 14.2096 13.0085 13.1744 12.2408C13.006 12.1159 12.8287 12.0043 12.6444 11.904Z" fill="#08B44E"/>
<path d="M22.1344 9.3904C21.7253 8.85883 21.2379 8.40685 20.7236 7.97941C20.1626 7.51319 19.5642 7.1042 18.926 6.75286C18.2582 6.3853 17.5631 6.08137 16.8348 5.85354C16.2153 5.65977 15.5843 5.5218 14.9406 5.44022C14.8339 5.42669 14.7238 5.44276 14.62 5.40396C14.6112 5.33267 14.6709 5.30891 14.7123 5.27442C15.4159 4.68823 15.9815 3.99291 16.3808 3.16626C16.5017 2.91602 16.6028 2.65772 16.6876 2.39286C16.7115 2.31828 16.7261 2.23584 16.7999 2.18727C17.2612 2.39928 17.6961 2.6582 18.1186 2.93791C18.8668 3.43317 19.5402 4.0185 20.1418 4.68153C21.1049 5.74284 21.8374 6.94682 22.3314 8.29536C22.5956 9.01643 22.7812 9.7562 22.8914 10.5146C22.9468 10.8957 22.9748 11.2799 22.9913 11.6656C23.0157 12.2359 22.9873 12.8032 22.9251 13.3689C22.8732 13.8409 22.7869 14.3078 22.6663 14.7677C22.6584 14.7977 22.6557 14.8328 22.5977 14.8477C22.5792 14.7251 22.5813 14.6045 22.5711 14.4872C22.4864 13.5175 22.2325 12.5937 21.813 11.7178C21.5081 11.0813 21.1347 10.4867 20.6637 9.95611C20.4892 9.75954 20.3236 9.5547 20.1306 9.37591C19.8727 9.13699 19.6146 8.89759 19.3223 8.69944C19.3076 8.68951 19.2987 8.6711 19.2871 8.65664C19.3337 8.61115 19.3913 8.61982 19.447 8.62657C20.1408 8.71076 20.8181 8.86553 21.4743 9.10816C21.6378 9.16862 21.7957 9.24151 21.9464 9.32895C22.0195 9.36163 22.083 9.41024 22.1521 9.45568C22.1369 9.43491 22.1201 9.41624 22.1344 9.3904Z" fill="#022410"/>
<path d="M11.0057 5.58107C10.9084 5.96625 10.6829 6.26129 10.3654 6.49167C10.0989 6.68502 9.79488 6.79265 9.48031 6.87379C9.42152 6.88896 9.36362 6.90519 9.30656 6.9253C9.2428 6.83029 9.27688 6.73083 9.302 6.63676C9.37692 6.35617 9.58948 6.1965 9.82662 6.06242C10.1169 5.8983 10.4316 5.79033 10.7419 5.67317C10.8287 5.64037 10.9114 5.59322 11.0057 5.58107Z" fill="#022410"/>
<path d="M5.83472 9.34286C5.83009 9.40364 5.81968 9.43171 5.7942 9.49656C5.76154 9.37545 5.65609 9.25348 5.47747 9.29247C5.3189 9.32709 5.18234 9.40607 5.06469 9.51739C5.01163 9.5676 4.96001 9.61932 4.91185 9.66635C4.90762 9.64408 4.92518 9.54176 4.92784 9.52005C4.99607 9.31923 5.08573 9.22832 5.24851 9.09321C5.29203 9.05709 5.33798 9.02453 5.38728 8.99707C5.51722 8.92469 5.65648 8.88797 5.78548 8.98015C5.91967 9.07601 5.85962 9.21581 5.83472 9.34286Z" fill="#022410"/>
<path d="M15.4967 15.5235C15.2978 15.6998 15.1177 15.8974 14.8989 16.051C14.7416 16.1614 14.5852 16.2733 14.3964 16.3641C14.428 16.2468 14.4521 16.1481 14.4812 16.0509C14.5518 15.8142 14.5791 15.5693 14.6204 15.327C14.5473 15.311 14.5088 15.3694 14.4649 15.4062C14.2916 15.5515 14.113 15.6887 13.9157 15.8003C13.87 15.8261 13.8287 15.8642 13.7568 15.8685C13.9667 15.4304 14.0629 14.9789 14.0571 14.5154C14.0513 14.0574 13.9518 13.6116 13.7613 13.1893C13.5624 12.7486 13.2793 12.3732 12.9098 12.0629C12.8684 12.028 12.7854 11.956 12.6475 11.8683C12.7031 11.9378 12.8693 12.1565 12.9232 12.2273C13.3259 12.7564 13.5493 13.3405 13.4971 14.0182C13.4658 14.4247 13.3445 14.7986 13.1467 15.1504C12.8078 15.7536 12.3259 16.2219 11.7552 16.6021C10.6814 17.3175 9.48692 17.6382 8.20712 17.6656C7.959 17.6709 7.71067 17.6462 7.46282 17.6208C7.03728 17.5773 6.6209 17.4941 6.2127 17.3679C4.73906 16.9123 3.57387 16.0184 2.62061 14.8282C1.98501 14.0347 1.49493 13.1545 1.09671 12.2212C1.08222 12.1873 1.07702 12.1444 1.03314 12.1238C1.02926 12.2056 1.02572 12.2804 1.02219 12.3553C1.02607 12.6236 1.04035 12.8915 1.06753 13.1582C1.14053 13.8737 1.27606 14.5776 1.48752 15.2656C1.97052 16.837 2.75802 18.2355 3.86713 19.4518C4.16142 19.7745 4.47714 20.0739 4.80652 20.3598C4.85699 20.3492 4.89373 20.37 4.93339 20.4017C5.21521 20.6269 5.519 20.8206 5.83583 20.9912C6.43087 21.3118 7.05545 21.5585 7.71961 21.6947C8.00177 21.7526 8.28228 21.826 8.57359 21.8259C9.15262 21.8846 9.72624 21.851 10.2942 21.7243C11.1981 21.5226 12.0443 21.1782 12.8289 20.6865C13.7956 20.0807 14.6244 19.3319 15.188 18.3258C15.6526 17.4964 15.8414 16.6179 15.5807 15.6772C15.5649 15.6203 15.565 15.5527 15.4967 15.5235Z" fill="#056C2F"/>
<path d="M17.0522 10.3463C15.8329 9.34794 14.424 8.785 12.8682 8.58055C12.298 8.50561 11.724 8.48626 11.1489 8.51906C11.0984 8.5219 11.0475 8.5194 10.9968 8.5194C11.2201 8.65473 11.4398 8.77148 11.6454 8.91214C11.7925 9.01267 11.9361 9.1184 12.0812 9.22176C12.4315 9.23903 12.776 9.29546 13.1203 9.36125C13.7769 9.4868 14.4033 9.70068 15.0078 9.98243C15.4467 10.187 15.8588 10.4378 16.254 10.7172C16.4837 10.8797 16.7055 11.0535 16.9081 11.2468C17.2611 11.5836 17.6057 11.9283 17.9052 12.3178C18.4067 12.97 18.803 13.6777 19.0877 14.4483C19.2467 14.8786 19.3711 15.3192 19.4462 15.7721C19.4844 16.0019 19.5295 16.234 19.5326 16.4656C19.5378 16.8641 19.5578 17.2631 19.5139 17.6624C19.4838 17.937 19.4346 18.2065 19.377 18.4754C19.2963 18.8521 19.1708 19.215 19.0119 19.5644C18.8623 19.8931 18.6949 20.2129 18.4797 20.5065C18.4189 20.5895 18.3233 20.6599 18.3225 20.78C18.3735 20.769 18.3946 20.7224 18.4251 20.6892C18.8349 20.2422 19.1662 19.7421 19.4171 19.1908C20.0512 17.7974 20.1607 16.3465 19.8337 14.8651C19.4311 13.0413 18.4986 11.5304 17.0522 10.3463Z" fill="#056C2F"/>
<path d="M12.2724 6.69856C13.0468 6.38832 13.7848 6.01104 14.4551 5.50945C14.5071 5.47056 14.553 5.42029 14.62 5.40393C14.6433 5.38112 14.6649 5.35624 14.6901 5.33585C15.3944 4.76591 15.9549 4.07998 16.3675 3.27231C16.5456 2.92359 16.6677 2.55365 16.7998 2.18726C16.8 2.17318 16.7968 2.15814 16.8007 2.1451C16.9805 1.53848 17.0778 0.917445 17.1237 0.287531C17.135 0.131405 17.1474 -0.0248603 17.1173 -0.186325C16.7732 0.963409 16.2153 1.99376 15.4139 2.9179C15.6862 2.9082 15.8978 2.75172 16.1693 2.75519C16.0859 2.86327 16.0204 2.94792 15.9551 3.03278C15.2043 4.00989 14.283 4.76771 13.1295 5.22507C13.0593 5.25287 13.0327 5.29509 13.0109 5.36324C12.8578 5.84312 12.6285 6.27899 12.2586 6.63097C12.2412 6.6474 12.2069 6.66279 12.2304 6.69593C12.246 6.70806 12.2593 6.70376 12.2724 6.69856Z" fill="#056C2F"/>
<path d="M5.02391 11.1373C5.36057 10.9384 5.72288 10.7962 6.08782 10.6624C6.51835 10.5044 6.96198 10.3974 7.41434 10.3155C7.81589 10.2429 8.22042 10.2187 8.6246 10.1884C8.83799 10.1724 9.05436 10.1858 9.27067 10.2044C9.5217 10.226 9.77371 10.2374 10.0251 10.2651C10.392 10.3057 10.7541 10.3724 11.1133 10.4524C11.7256 10.589 12.3261 10.7675 12.9115 10.9945C12.9337 11.0032 12.957 11.0062 12.9725 10.9805C12.8849 10.7554 12.6246 10.3766 12.3322 10.0488C12.3063 10.0386 12.2812 10.0247 12.2543 10.0188C11.547 9.86413 10.8332 9.75965 10.1089 9.73033C8.89484 9.68124 7.71197 9.83418 6.57312 10.2727C5.99 10.4972 5.43614 10.7782 4.92783 11.1444C4.96332 11.1959 4.99792 11.1526 5.02391 11.1373Z" fill="#056C2F"/>
<path d="M21.9702 9.30175C21.7763 9.12469 21.5611 8.9748 21.3486 8.82207C20.8091 8.43425 20.2511 8.07583 19.6568 7.77647C19.5217 7.72378 19.4027 7.63095 19.2623 7.59622C19.2251 7.66138 19.2717 7.69147 19.2792 7.7303C19.3474 7.87644 19.4585 8.00019 19.5205 8.18322C18.9217 7.87055 18.3195 7.63753 17.6935 7.46546C17.0139 7.27855 16.0325 7.1313 15.7634 7.18025C15.7725 7.2093 15.7987 7.20659 15.8203 7.2102C16.9349 7.39385 17.9633 7.79851 18.9112 8.41144C19.0369 8.49263 19.1487 8.59509 19.2871 8.65666C19.3772 8.65007 19.4645 8.67205 19.5529 8.68252C20.0386 8.7402 20.5144 8.84447 20.983 8.98291C21.3214 9.08288 21.6474 9.21475 21.9659 9.36553C22.0467 9.34959 21.9692 9.32304 21.9702 9.30175Z" fill="#056C2F"/>
<path d="M11.9041 5.19935C11.9145 5.16441 11.9184 5.1287 11.8891 5.09023C11.7984 5.15172 11.7148 5.21051 11.6291 5.26604C11.4327 5.39326 11.2108 5.4707 11.0058 5.58107C10.9612 5.61968 10.9443 5.67431 10.9235 5.72617C10.7686 6.11149 10.501 6.3947 10.1389 6.59228C9.92347 6.70993 9.69026 6.77891 9.45496 6.84263C9.39915 6.85774 9.33065 6.85233 9.30659 6.92527C9.78114 6.94371 10.2461 6.89067 10.683 6.69648C11.3397 6.40468 11.7044 5.86746 11.9041 5.19935Z" fill="#056C2F"/>
<path d="M5.25826 9.13295C5.36995 9.03902 5.48836 8.95333 5.64782 8.96289C5.76665 8.97003 5.82123 9.02597 5.83542 9.14571C5.85962 9.34993 5.79469 9.43085 5.79421 9.49657C5.88295 9.3593 5.9401 9.05434 5.90475 8.90008C5.87577 8.7737 5.75167 8.70596 5.62182 8.72954C5.54223 8.74396 5.46909 8.77328 5.40108 8.81751C5.21445 8.93904 5.08141 9.10737 4.9892 9.30621C4.94712 9.39703 4.89182 9.55481 4.91186 9.66636C4.93645 9.58548 4.95766 9.52313 4.97873 9.48306C5.04973 9.34815 5.14256 9.23015 5.25826 9.13295Z" fill="#056C2F"/>
<path d="M8.0111 7.21775C8.00354 7.20762 7.99599 7.1975 7.98843 7.18737C8.08224 7.11851 8.13916 7.00609 8.25419 6.96228C8.38121 7.16367 8.58557 7.25129 8.79611 7.32887C8.83914 7.34472 8.88498 7.35292 8.92776 7.37352C8.62809 7.45992 8.34565 7.42824 8.08519 7.24912C8.06166 7.23294 8.0416 7.21475 8.0111 7.21775Z" fill="#022410"/>
<path d="M8.77749 5.35415C8.95598 5.223 9.16669 5.15854 9.36524 5.06888C9.62481 4.97783 9.88147 4.87962 10.1288 4.75843C10.1139 4.74736 10.1117 4.73829 10.1148 4.73041C10.1183 4.73818 10.1228 4.74699 10.1288 4.75843C10.666 4.53678 11.1737 4.26083 11.6484 3.92559C11.9828 3.68944 12.2879 3.42134 12.5176 3.07803C12.5813 2.98286 12.6319 2.87898 12.6879 2.78026C12.7622 2.79521 12.761 2.87176 12.8097 2.89927C12.8577 3.00088 12.9057 3.10249 12.9536 3.2041C13.0555 3.49007 13.1321 3.78219 13.1578 4.09201C14.1662 3.44607 15.053 2.68179 15.8037 1.75055C15.7712 1.7418 15.7527 1.73826 15.7353 1.73193C14.6936 1.35508 13.6174 1.14959 12.5128 1.09301C11.7923 1.05609 11.0739 1.09895 10.3614 1.20757C9.13396 1.39467 7.97001 1.77988 6.87199 2.3608C6.10997 2.76397 5.40662 3.25362 4.75913 3.82159C4.45176 4.09121 4.15973 4.37725 3.88609 4.68304C3.5664 5.04028 3.26684 5.41189 2.9923 5.80445C2.50554 6.50043 2.10726 7.24381 1.79473 8.03324C1.3924 9.04951 1.14949 10.1024 1.05981 11.192C1.03363 11.5101 1.04428 11.8297 1.00685 12.1471C0.998872 12.2147 0.991925 12.2878 1.02219 12.3552C1.08166 12.3077 1.0634 12.2471 1.05492 12.2013C1.1694 12.5144 1.32904 12.8227 1.48786 13.1309C2.04968 14.2211 2.76019 15.199 3.69718 15.9991C5.20064 17.283 6.93351 17.8574 8.90948 17.654C9.78661 17.5637 10.613 17.3043 11.3832 16.8724C12.132 16.4525 12.7596 15.9047 13.19 15.1501C13.4287 14.7317 13.5603 14.2771 13.5474 13.8008C13.5288 13.1112 13.2541 12.5144 12.7835 12.0093C12.7342 11.9661 12.6989 11.9094 12.6475 11.8683C12.2815 11.6366 11.8763 11.4986 11.4635 11.3833C10.9686 11.2451 10.4638 11.1617 9.95022 11.1252C9.31298 11.0799 8.68062 11.0962 8.05983 11.2577C7.76834 11.3335 7.48071 11.4279 7.26061 11.6541C7.06551 11.8545 7.02778 12.0718 7.14396 12.3256C7.20239 12.4532 7.28506 12.565 7.38688 12.6882C7.03609 12.6541 6.71425 12.592 6.39804 12.5007C5.74217 12.3114 5.18667 11.9698 4.76753 11.4222C4.7421 11.3889 4.7184 11.3521 4.67252 11.3427C4.46922 11.4566 4.31658 11.6386 4.12244 11.7604C4.08399 11.738 4.08212 11.7051 4.07387 11.673C4.00986 11.4239 3.98058 11.1683 3.93025 10.9167L3.90199 10.4384C3.90623 10.297 3.91048 10.1556 3.91473 10.0142C3.94736 9.9042 3.95792 9.79065 3.96878 9.67715C4.03463 9.44724 4.10299 9.21816 4.19577 8.99724C4.25131 8.87142 4.28853 8.81709 4.33934 8.72879C4.47037 8.50108 4.64554 8.30703 4.798 8.09589C5.06754 7.83625 5.28236 7.60683 5.58642 7.3855C5.63154 7.35265 5.72308 7.29807 5.77664 7.30056C5.771 7.42805 5.6974 7.54022 5.69375 7.66816C5.67234 7.82475 5.64849 7.98163 5.7465 8.12442C5.79145 8.22314 5.86154 8.29106 5.97247 8.30898C6.13717 8.37613 6.29899 8.35423 6.45954 8.29325C6.69344 8.24759 6.89456 8.12956 7.09403 8.00725C7.44245 7.79358 7.7393 7.52028 8.01112 7.21775C8.08457 7.12539 8.189 7.0625 8.25421 6.96229C8.22593 6.90585 8.19764 6.84941 8.16936 6.79297C8.13729 6.68213 8.1162 6.5696 8.11745 6.45366C8.11268 6.31917 8.15184 6.1919 8.18172 6.06311C8.31404 5.7711 8.52145 5.54228 8.77749 5.35415Z" fill="#022410"/>
<path d="M12.8508 12.0474C13.0023 12.1953 13.1693 12.3319 13.297 12.4985C13.7993 13.1543 14.0567 13.8897 14.004 14.7277C13.9855 15.0208 13.9265 15.2988 13.8374 15.5759C13.7981 15.6979 13.7279 15.8081 13.6912 15.9492C13.7857 15.9203 13.8526 15.8791 13.9214 15.8413C14.1773 15.7009 14.3949 15.5086 14.6204 15.327C14.6071 15.232 14.6521 15.1442 14.6512 15.0492C14.6491 14.8293 14.627 14.612 14.5942 14.3949C14.5282 13.9589 14.3734 13.5577 14.1359 13.187C13.9245 12.8569 13.6632 12.5716 13.3574 12.3284C13.16 12.1715 12.947 12.0356 12.7287 11.9093C12.7045 11.8953 12.6833 11.8891 12.6475 11.8683C12.6847 11.9066 12.828 12.0251 12.8508 12.0474Z" fill="#056C2F"/>
<path d="M16.5187 15.7163C16.4832 15.3986 16.4279 15.0885 16.3182 14.7893C16.2596 14.6297 16.2113 14.4639 16.1094 14.3077C16.0904 14.3566 16.0729 14.3858 16.0677 14.4171C16.0091 14.7689 15.8379 15.0666 15.6282 15.347C15.5842 15.4057 15.5036 15.4374 15.4967 15.5235C15.6007 15.8209 15.6507 16.1304 15.6622 16.4422C15.6727 16.7266 15.63 17.0099 15.5623 17.2876C15.3736 18.0625 14.9688 18.7205 14.4397 19.3027C14.0865 19.6913 13.698 20.0436 13.2657 20.3488C12.7075 20.743 12.1166 21.0713 11.4812 21.3207C11.0322 21.4968 10.5728 21.6344 10.0967 21.7197C9.75085 21.7816 9.40539 21.8297 9.05362 21.826C8.89361 21.8243 8.7336 21.8259 8.57359 21.8259C8.73922 21.8793 8.91351 21.8693 9.08225 21.8772C9.50779 21.897 9.93138 21.8527 10.3546 21.8009C10.8433 21.7412 11.3182 21.6256 11.7839 21.4744C12.3599 21.2875 12.9086 21.0354 13.43 20.7255C13.8575 20.4714 14.2604 20.1817 14.6277 19.8483C14.86 19.6376 15.082 19.4139 15.286 19.1724C15.6698 18.718 15.9929 18.2268 16.2136 17.6743C16.4644 17.0465 16.5951 16.3993 16.5187 15.7163Z" fill="#056C2F"/>
</g>
<defs>
<clipPath id="clip0_7692_8896">
<rect width="24" height="24" fill="white"/>
</clipPath>
</defs>
</svg>
