<svg width="24" height="24" viewBox="0 0 24 24" fill="none" xmlns="http://www.w3.org/2000/svg">
<path d="M17.158 4.5827C14.2391 2.52142 10.9693 1.27649 8.44648 1.27649C6.258 1.27649 5.1745 2.17365 4.65094 2.92627L0.621525 8.83661L0.610477 8.85229L0.589603 8.88226L0.56818 8.91736C-1.1961 11.7129 1.30268 16.2621 6.65009 20.0367C9.60395 22.1218 12.8735 23.3666 15.3961 23.3666C17.5151 23.3666 18.5932 22.5201 19.1245 21.8101L23.327 15.6951C25.1491 12.9019 22.4323 8.03131 17.158 4.5827Z" fill="#14F46F"/>
<path d="M22.4217 14.8739C22.4375 14.8448 22.4528 14.8154 22.4672 14.7855C22.4721 14.7754 22.4768 14.7652 22.4815 14.755C22.4964 14.7228 22.5106 14.6901 22.5239 14.6571C22.5269 14.6497 22.53 14.6423 22.5329 14.6348C22.7143 14.1716 22.7447 13.6266 22.6381 13.0277C22.6378 13.026 22.6375 13.0242 22.6372 13.0225C22.6043 12.8393 22.5587 12.6511 22.5006 12.4587C22.4989 12.4531 22.4972 12.4476 22.4955 12.4421C21.8439 10.3072 19.6688 7.65803 16.5014 5.58706C11.9218 2.35443 7.07288 1.54626 5.63615 3.61156L1.60065 9.53087C1.59894 9.53332 1.59706 9.53562 1.59535 9.53806C1.5937 9.54053 1.59227 9.5431 1.59063 9.54558L1.58382 9.55556C0.408385 11.3548 2.01836 14.5122 5.22885 17.3801C5.24102 17.391 5.25324 17.4018 5.26546 17.4127C5.43483 17.5633 5.60856 17.7131 5.78657 17.8618C5.80216 17.8748 5.8178 17.8878 5.83344 17.9008C6.00921 18.0469 6.189 18.1919 6.37277 18.3356C6.39238 18.351 6.41207 18.3663 6.43178 18.3816C6.52215 18.4519 6.61315 18.5219 6.70537 18.5915C6.70634 18.5922 6.70727 18.593 6.70823 18.5937C6.80047 18.6633 6.89392 18.7324 6.98797 18.8013C7.01083 18.818 7.03374 18.8347 7.05671 18.8514C7.15113 18.9201 7.24609 18.9885 7.34226 19.0564C7.41347 19.1067 7.48475 19.1563 7.55608 19.2054C7.58121 19.2227 7.60637 19.2395 7.63152 19.2567C7.67767 19.2882 7.72381 19.3198 7.77 19.3508C7.7992 19.3704 7.82843 19.3895 7.85764 19.4089C7.89999 19.437 7.94233 19.4653 7.98469 19.493C8.01551 19.5131 8.04635 19.5328 8.07717 19.5527C8.11769 19.5789 8.1582 19.6053 8.19872 19.6311C8.23223 19.6524 8.26574 19.6733 8.29924 19.6943C8.3373 19.7183 8.37535 19.7425 8.41341 19.7661C8.44603 19.7863 8.47864 19.806 8.51125 19.826C8.55023 19.8499 8.58921 19.874 8.62819 19.8975C8.6613 19.9175 8.6944 19.937 8.72751 19.9567C8.76575 19.9795 8.80401 20.0025 8.84224 20.025C8.8772 20.0456 8.91213 20.0656 8.94709 20.0858C8.98345 20.1069 9.01983 20.1282 9.05617 20.149C9.09173 20.1693 9.12725 20.1891 9.16278 20.2091C9.19857 20.2293 9.23437 20.2497 9.27013 20.2695C9.30597 20.2894 9.34176 20.3088 9.37758 20.3284C9.41288 20.3477 9.44821 20.3673 9.48347 20.3863C9.52038 20.4062 9.55721 20.4256 9.59408 20.4452C9.6281 20.4633 9.66215 20.4816 9.69614 20.4994C9.73405 20.5192 9.77188 20.5385 9.80974 20.5581C9.84264 20.575 9.87558 20.5922 9.90844 20.6089C9.9468 20.6284 9.98506 20.6473 10.0234 20.6665C10.0556 20.6826 10.088 20.6989 10.1202 20.7148C10.1585 20.7337 10.1968 20.7521 10.235 20.7706C10.2672 20.7861 10.2994 20.8019 10.3316 20.8172C10.3698 20.8355 10.408 20.8532 10.4461 20.8711C10.478 20.886 10.51 20.9012 10.5418 20.9159C10.5806 20.9337 10.6192 20.9511 10.6578 20.9686C10.6889 20.9826 10.72 20.9969 10.751 21.0107C10.7905 21.0283 10.8298 21.0454 10.8691 21.0626C10.8991 21.0757 10.9292 21.089 10.9592 21.1019C10.9992 21.1191 11.0391 21.1358 11.0791 21.1526C11.1082 21.1649 11.1375 21.1774 11.1666 21.1895C11.2068 21.2061 11.2468 21.2223 11.2869 21.2385C11.3155 21.2501 11.3442 21.2619 11.3728 21.2733C11.4135 21.2896 11.4541 21.3053 11.4947 21.3211C11.5223 21.3319 11.5499 21.3428 11.5775 21.3534C11.6191 21.3693 11.6605 21.3848 11.702 21.4003C11.7283 21.4101 11.7546 21.42 11.7808 21.4297C11.8229 21.4451 11.8648 21.4601 11.9067 21.4751C11.9322 21.4842 11.9577 21.4935 11.9831 21.5024C12.0257 21.5174 12.0682 21.5319 12.1106 21.5464C12.1349 21.5547 12.1592 21.5631 12.1834 21.5712C12.2266 21.5857 12.2696 21.5997 12.3125 21.6137C12.3359 21.6213 12.3594 21.6291 12.3828 21.6365C12.4261 21.6504 12.4693 21.6637 12.5124 21.677C12.535 21.684 12.5577 21.6912 12.5803 21.698C12.6241 21.7113 12.6677 21.7241 12.7113 21.7368C12.7328 21.7431 12.7544 21.7495 12.7759 21.7557C12.8202 21.7683 12.8642 21.7805 12.9083 21.7927C12.9288 21.7983 12.9494 21.8041 12.9699 21.8096C13.0145 21.8217 13.0589 21.8332 13.1031 21.8446C13.1227 21.8497 13.1424 21.8549 13.1619 21.8598C13.2069 21.8712 13.2517 21.882 13.2963 21.8928C13.3149 21.8973 13.3335 21.9018 13.352 21.9062C13.3974 21.9169 13.4426 21.9271 13.4877 21.9371C13.5051 21.941 13.5225 21.945 13.5399 21.9488C13.5857 21.9588 13.6313 21.9683 13.6768 21.9776C13.6931 21.9809 13.7095 21.9844 13.7257 21.9876C13.7718 21.9968 13.8176 22.0055 13.8633 22.0141C13.8787 22.0169 13.8942 22.0199 13.9096 22.0227C13.9558 22.0311 14.0018 22.039 14.0476 22.0467C14.062 22.0491 14.0765 22.0516 14.0909 22.0539C14.1375 22.0615 14.1838 22.0686 14.23 22.0754C14.2433 22.0774 14.2566 22.0794 14.2699 22.0813C14.3165 22.088 14.3627 22.0942 14.4088 22.1001C14.4215 22.1017 14.4342 22.1034 14.4469 22.105C14.4935 22.1108 14.5398 22.116 14.5858 22.121C14.5975 22.1223 14.6092 22.1236 14.6208 22.1248C14.6677 22.1297 14.7142 22.134 14.7604 22.138C14.771 22.1389 14.7817 22.1399 14.7923 22.1408C14.839 22.1446 14.8854 22.148 14.9315 22.151C14.9415 22.1516 14.9515 22.1523 14.9614 22.1529C15.0082 22.1558 15.0546 22.1581 15.1008 22.1601C15.1096 22.1605 15.1184 22.1609 15.1272 22.1612C15.1739 22.163 15.2202 22.1643 15.2662 22.1652C15.2744 22.1654 15.2826 22.1656 15.2908 22.1657C15.3373 22.1664 15.3834 22.1666 15.4291 22.1664C15.4364 22.1664 15.4438 22.1664 15.4511 22.1663C15.4973 22.1659 15.5431 22.165 15.5885 22.1636C15.5953 22.1634 15.602 22.1633 15.6088 22.163C15.6547 22.1615 15.7001 22.1594 15.7452 22.1569C15.7512 22.1566 15.7571 22.1563 15.7631 22.1559C15.8086 22.1532 15.8536 22.15 15.8983 22.1462C15.9037 22.1458 15.9092 22.1453 15.9146 22.1449C15.9596 22.141 16.0041 22.1365 16.0482 22.1316C16.053 22.131 16.0579 22.1305 16.0627 22.1299C16.1072 22.1248 16.1513 22.1191 16.1949 22.1129C16.1991 22.1123 16.2033 22.1117 16.2074 22.1111C16.2514 22.1048 16.2949 22.0978 16.3379 22.0903C16.3416 22.0897 16.3453 22.089 16.3491 22.0884C16.3924 22.0807 16.4353 22.0725 16.4776 22.0637C16.4807 22.063 16.4838 22.0624 16.4869 22.0617C16.5296 22.0528 16.5718 22.0432 16.6135 22.0331C16.6162 22.0324 16.6188 22.0318 16.6215 22.0311C16.6634 22.0209 16.7048 22.01 16.7456 21.9985C16.7479 21.9979 16.7502 21.9972 16.7526 21.9965C16.7936 21.9849 16.8341 21.9727 16.8741 21.9599C16.876 21.9593 16.8779 21.9587 16.8797 21.9581C16.92 21.9451 16.9596 21.9315 16.9986 21.9173C17.0002 21.9167 17.0017 21.9162 17.0033 21.9156C17.0426 21.9012 17.0813 21.8862 17.1193 21.8706C17.1205 21.8702 17.1217 21.8697 17.1229 21.8692C17.1611 21.8534 17.1987 21.8371 17.2357 21.8201C17.2368 21.8196 17.2378 21.8191 17.2389 21.8186C17.276 21.8015 17.3124 21.7838 17.3482 21.7654C17.349 21.765 17.3499 21.7646 17.3507 21.7642C17.3867 21.7456 17.422 21.7265 17.4567 21.7067C17.4572 21.7064 17.4577 21.7061 17.4582 21.7058C17.4931 21.6858 17.5272 21.6652 17.5607 21.644C17.5611 21.6437 17.5615 21.6435 17.5619 21.6432C17.5954 21.6219 17.6283 21.5999 17.6604 21.5772C17.6607 21.577 17.661 21.5768 17.6613 21.5766C17.6935 21.5539 17.7249 21.5305 17.7557 21.5064C17.7555 21.5066 17.7559 21.5063 17.7557 21.5064C17.7865 21.4823 17.8173 21.457 17.8466 21.4315C17.9056 21.3803 17.9618 21.3262 18.0146 21.2695C18.041 21.2412 18.0667 21.2122 18.0915 21.1825C18.1164 21.1528 18.1405 21.1223 18.1638 21.0912L22.3381 15.0156C22.3618 14.9792 22.3841 14.942 22.4054 14.9042C22.411 14.8942 22.4162 14.884 22.4217 14.8739Z" fill="#031116"/>
<path d="M18.5809 22.2772V22.2772L18.5809 22.2772H18.5809Z" fill="#14F46F"/>
<path d="M18.6273 22.3307L18.6274 22.3307L18.6274 22.3307L18.6274 22.3306L18.6273 22.3307Z" fill="#14F46F"/>
<path d="M0.569031 8.91608L0.569702 8.91504L0.572754 8.9101L0.571411 8.91223L0.569031 8.91608Z" fill="#14F46F"/>
<path d="M18.0594 22.7443L18.0586 22.7448L18.0585 22.7449L18.0597 22.7442L18.0594 22.7443Z" fill="#14F46F"/>
<path d="M0.572754 8.9101L0.573547 8.90881L0.573303 8.90918L0.572754 8.9101Z" fill="#14F46F"/>
<path d="M18.8419 22.1387C18.8367 22.1437 18.8264 22.1526 18.8188 22.1595C18.8246 22.1542 18.8354 22.1449 18.8386 22.1419C18.84 22.1406 18.8406 22.14 18.8419 22.1387Z" fill="#14F46F"/>
<path d="M18.4717 22.4694L18.4688 22.4716L18.4702 22.4705L18.4717 22.4694Z" fill="#14F46F"/>
<path d="M18.5369 22.4174L18.5384 22.416L18.5374 22.4169L18.5369 22.4174Z" fill="#14F46F"/>
<path d="M18.5421 22.4128L18.5414 22.4133L18.5384 22.416L18.5421 22.4128Z" fill="#14F46F"/>
<path d="M18.5207 22.431L18.5152 22.4355L18.5091 22.4404L18.5081 22.4412L18.5116 22.4384L18.5176 22.4336L18.5228 22.4293L18.5315 22.422L18.5369 22.4174L18.5299 22.4233L18.5207 22.431Z" fill="#14F46F"/>
<path d="M18.8188 22.1595C18.8159 22.1622 18.8122 22.1653 18.8087 22.1686L18.8068 22.1704C18.8113 22.1664 18.8149 22.1631 18.8188 22.1595Z" fill="#14F46F"/>
<path d="M18.046 22.752L18.0499 22.7498L18.0496 22.7499L18.046 22.752Z" fill="#14F46F"/>
<path d="M18.4721 22.4691L18.4717 22.4694L18.4748 22.4672L18.4721 22.4691Z" fill="#14F46F"/>
<path d="M18.4829 22.461L18.4861 22.4586L18.4896 22.4558L18.4906 22.4551L18.4895 22.4559L18.4856 22.4589L18.4805 22.4628L18.475 22.467L18.4748 22.4672L18.4771 22.4654L18.4829 22.461Z" fill="#14F46F"/>
<path d="M18.4688 22.4716L18.4624 22.4762L18.4581 22.4793L18.4638 22.4752L18.4688 22.4716Z" fill="#14F46F"/>
<path d="M17.123 20.3378C17.1273 20.3337 17.1293 20.3318 17.134 20.3272C17.1298 20.3312 17.1262 20.3347 17.123 20.3378Z" fill="#14F46F"/>
<path d="M17.1906 20.2763C17.19 20.2767 17.1879 20.2782 17.1874 20.2787C17.1761 20.2883 17.17 20.2943 17.1614 20.3021C17.1702 20.2941 17.1772 20.2876 17.1906 20.2763Z" fill="#14F46F"/>
<path d="M17.1409 20.3206L17.1392 20.3221L17.1502 20.3122L17.1409 20.3206Z" fill="#14F46F"/>
<path d="M17.1373 20.3239L17.134 20.3272L17.1392 20.3221L17.1373 20.3239Z" fill="#14F46F"/>
<path d="M17.1927 20.2578C17.196 20.2545 17.198 20.2526 17.2023 20.2485C17.1987 20.252 17.1947 20.2559 17.1927 20.2578Z" fill="#14F46F"/>
<path d="M17.1773 20.2736C17.176 20.275 17.1755 20.2755 17.1743 20.2768C17.1799 20.2697 17.1881 20.2661 17.1939 20.259L17.1928 20.2579C17.1873 20.2636 17.1798 20.2709 17.1773 20.2736Z" fill="#14F46F"/>
<path d="M17.2053 20.2454L17.2023 20.2485L17.2068 20.2441L17.2053 20.2454Z" fill="#14F46F"/>
<path d="M17.2213 20.2303C17.2156 20.2355 17.2109 20.24 17.2076 20.2433C17.2072 20.2437 17.2072 20.2438 17.2068 20.2441C17.2126 20.2385 17.2232 20.2285 17.2356 20.2173C17.2305 20.2219 17.2243 20.2274 17.2213 20.2303Z" fill="#14F46F"/>
<path d="M17.1549 20.3644C17.1623 20.3606 17.168 20.3578 17.176 20.3538C17.1686 20.3573 17.1603 20.3618 17.1549 20.3644Z" fill="#14F46F"/>
<path d="M16.5444 20.7091L16.5447 20.709L16.5453 20.7088L16.5444 20.7091Z" fill="#14F46F"/>
<path d="M17.1906 20.2763L17.2023 20.2675L17.2018 20.267L17.1954 20.272L17.1906 20.2763Z" fill="#14F46F"/>
<path d="M16.8676 21.9941L16.8676 21.994L16.8886 22.0594L16.8887 22.0595L16.8676 21.9941Z" fill="#14F46F"/>
<path d="M17.24 20.2131L17.2356 20.2173L17.2421 20.2114L17.24 20.2131Z" fill="#14F46F"/>
<path d="M17.274 20.184L17.2772 20.1813L17.2753 20.1827L17.274 20.184Z" fill="#14F46F"/>
<path d="M17.2681 20.1887C17.2592 20.1962 17.2518 20.2028 17.2461 20.2077C17.2443 20.2092 17.2437 20.2099 17.2421 20.2114C17.2498 20.2044 17.2606 20.1951 17.274 20.184C17.2724 20.1852 17.2681 20.1887 17.2681 20.1887Z" fill="#14F46F"/>
<path d="M16.5013 5.58706C11.9217 2.35443 7.07274 1.54626 5.63601 3.61156L1.60059 9.53078C1.59885 9.53326 1.59694 9.53559 1.59522 9.53806C1.59355 9.54056 1.5921 9.54317 1.59044 9.54567L1.58369 9.55556C0.172656 11.7155 2.77496 15.8325 7.34213 19.0564C11.8769 22.2574 16.6752 23.0806 18.1636 21.0912L22.338 15.0156C23.6849 12.9503 21.1706 8.64011 16.5013 5.58706Z" fill="#031116"/>
<path fill-rule="evenodd" clip-rule="evenodd" d="M21.7094 14.6564C20.4523 16.4523 16.0523 15.5544 11.8319 12.5911C7.52171 9.62786 5.00744 5.85645 6.26458 4.06054C7.52172 2.26463 11.9217 3.16258 16.1421 6.12584C20.3625 9.08909 22.8767 12.8605 21.7094 14.6564ZM17.7584 11.9625C17.1298 12.8605 14.9747 12.4115 12.8196 10.9748C10.7544 9.53806 9.49722 7.65236 10.1258 6.7544C10.7544 5.85645 12.9094 6.30543 15.0645 7.74215C17.1298 9.17888 18.387 11.0646 17.7584 11.9625Z" fill="#14F46F"/>
<path d="M5.03559 5.92366C5.01919 5.82938 4.93757 5.76898 4.81573 5.82302C4.69964 5.87451 4.68856 5.97244 4.70446 6.03602C4.79425 6.30541 4.79681 6.47247 4.856 6.64202C4.88709 6.73108 4.93755 6.77591 5.03559 6.73182C5.13363 6.68773 5.18768 6.65276 5.16258 6.52878C5.1241 6.35711 5.08913 6.20451 5.03559 5.92366Z" fill="#14F46F" stroke="#14F46F" stroke-width="0.25"/>
<path d="M5.48458 7.36038C5.46244 7.28448 5.37255 7.23227 5.28444 7.27037C5.19634 7.30847 5.19872 7.39896 5.2152 7.45018C6.20295 9.69507 8.26824 12.1195 10.9621 13.9154C11.0636 13.9866 11.2251 13.9802 11.2714 13.9144C11.3313 13.8145 11.3292 13.704 11.2315 13.6461C8.44784 11.8501 6.47233 9.51548 5.48458 7.36038Z" fill="#14F46F" stroke="#14F46F" stroke-width="0.25"/>
<path d="M16.3498 16.1603C16.2585 16.1267 16.1903 16.1867 16.1702 16.2501C16.1502 16.3135 16.1702 16.3975 16.26 16.4297C16.5294 16.5195 16.8828 16.6354 17.1522 16.7252C17.2822 16.7496 17.3608 16.7062 17.3797 16.6223C17.3987 16.5383 17.3526 16.4598 17.2478 16.4297C16.9784 16.3399 16.4384 16.1859 16.3498 16.1603Z" fill="#14F46F" stroke="#14F46F" stroke-width="0.25"/>
<path d="M17.9662 16.5195C17.8764 16.5195 17.7866 16.6093 17.7866 16.6991C17.7866 16.7889 17.8764 16.8787 17.9662 16.8787C18.6845 16.9685 19.4927 17.0583 20.1212 16.9685C20.211 16.9685 20.3008 16.8787 20.3008 16.7889C20.3008 16.6991 20.211 16.6093 20.1212 16.6093C19.4029 16.6991 18.6845 16.6093 17.9662 16.5195Z" fill="#14F46F" stroke="#14F46F" stroke-width="0.25"/>
</svg>
