<svg width="24" height="24" viewBox="0 0 24 24" fill="none" xmlns="http://www.w3.org/2000/svg">
<g clip-path="url(#clip0_7323_12683)">
<path d="M9.97409 8.67637L13.4788 10.1142H13.8801L14.3481 8.92718L13.3786 7.11048L13.6357 4.80141L13.3953 3.32622L9.97409 3.44322L8.17881 4.19552L8.06181 6.05137L7.12547 7.38062L7.34289 9.57918L8.95286 9.61257L9.97409 8.67637Z" fill="#07903F"/>
<path d="M12.5328 7.32092C12.5328 7.32092 11.7117 7.45388 11.3288 7.8269C10.8594 8.28407 10.6771 8.70086 10.6771 8.70086L11.9739 8.60976C11.9739 8.60976 12.0976 7.78183 12.609 7.45125L12.5328 7.32092Z" fill="#056C2F"/>
<path d="M18.8958 22.7539L20.3003 23.9912C20.3003 23.9912 14.1475 24.3925 9.39933 19.778C9.39933 19.778 5.0523 22.9211 1.2069 21.2158L5.28642 20.0455L6.22276 16.2001C6.22276 16.2001 4.7514 17.5376 0.103485 16.7685L5.78792 13.993L5.01879 13.1236C5.01879 13.1236 3.32173 14.4193 1.85051 14.4193L6.35633 10.4151L17.3911 12.9565L18.5279 13.0234L22.4069 13.7925C22.4069 13.7925 21.3702 14.6954 20.0996 14.4947L20.5343 16.802L23.989 18.6745C23.989 18.6745 20.9356 19.9118 18.8959 18.4405L18.8958 22.7539Z" fill="#056C2F"/>
<path d="M13.4789 4.74738L15.1258 5.31579L15.318 6.0514C15.318 6.0514 15.4594 6.60803 15.3302 6.99842C15.3302 6.99842 16.4215 7.60624 15.9199 8.59265L14.6915 10.3483H14.0975L14.2574 9.0944L13.8635 7.54785L13.479 5.66785L13.4789 4.74738Z" fill="#03481F"/>
<path d="M9.40979 4.31552C9.40979 4.31552 8.97725 4.56333 8.70974 5.16525C8.59381 5.42603 8.63274 5.71179 8.65243 5.83816C8.67297 5.96982 8.60571 6.10038 8.48234 6.15059C8.11719 6.2993 7.52691 6.70062 7.52691 7.73991C7.52691 9.24465 8.59694 9.04405 8.59694 9.04405C8.59694 9.04405 9.03165 7.73991 10.5697 7.73991C12.108 7.73991 12.1414 9.9253 13.8133 9.91341C15.2051 9.90349 14.5978 8.49137 15.9687 8.48513C17.1153 8.47984 16.7977 10.3481 16.7977 10.3481C16.7977 10.3481 17.3912 11.719 19.2637 12.7222C21.1363 13.7255 22.4069 13.7923 22.4069 13.7923C22.4069 13.7923 20.5009 14.5614 19.2302 13.2907C19.2302 13.2907 21.5041 16.0996 22.0056 17.0023C22.5072 17.9052 23.9889 18.6743 23.9889 18.6743C23.9889 18.6743 20.3003 18.9419 18.1602 15.3304C18.1602 15.3304 19.5646 18.3399 19.6316 20.3128C19.6985 22.2855 20.0996 23.7903 20.3004 23.991C20.3004 23.991 13.1445 23.4225 9.09844 15.531C9.09844 15.531 7.8946 22.3859 1.20692 21.2156C1.20692 21.2156 3.9489 20.3128 5.52043 15.0295C5.52043 15.0295 2.67815 17.0693 0.103378 16.7684C0.103378 16.7684 3.48067 15.0295 4.651 11.9199C4.651 11.9199 2.82025 14.2187 1.85052 14.4194C1.85052 14.4194 5.0188 11.5856 5.78794 8.47576C6.55707 5.36597 7.19718 5.52141 7.19718 5.52141C7.19718 5.52141 8.23934 4.51612 9.40979 4.31552Z" fill="#14F46F"/>
<path d="M10.1349 10.1811C10.1349 10.1811 10.3039 9.4544 10.8372 9.412C11.3638 9.3702 11.6063 9.79653 11.6063 9.79653C11.6063 9.79653 11.2651 9.46971 11.0394 9.61999C10.9813 9.65872 10.9798 9.70811 11.0014 9.77029C11.0405 9.88273 11.1186 9.98909 11.1779 10.092C11.3129 10.3264 11.4729 10.5473 11.6633 10.7399C12.0255 11.1064 12.5035 11.3584 13.019 11.41C13.8549 11.4935 14.5404 11.1091 14.5405 11.109C14.435 11.1682 14.3369 11.2415 14.2304 11.3002C13.9851 11.4355 13.7257 11.548 13.4559 11.6243C13.1449 11.7122 12.8052 11.7578 12.4854 11.6924C12.1455 11.6228 11.8162 11.4896 11.5322 11.2888C11.4219 11.2109 11.3188 11.1228 11.2255 11.0251C11.0463 10.8376 10.905 10.6176 10.7855 10.3883C10.7296 10.2811 10.6869 10.164 10.6221 10.0622C10.5826 10.0002 10.5078 9.8621 10.419 9.86617C10.2351 9.87459 10.1349 10.1811 10.1349 10.1811Z" fill="#031116"/>
<path d="M6.22264 9.16118C6.22264 9.16118 7.50997 7.43914 7.12546 5.9177C7.12546 5.9177 6.03874 5.7004 5.72102 6.98773C5.40329 8.27506 6.22264 9.16118 6.22264 9.16118Z" fill="#0AD85E"/>
<path d="M6.7174 6.42653C6.87719 6.72021 6.6472 7.79114 6.29094 8.33661C6.21789 8.19871 5.96165 7.74864 6.12443 7.11139C6.28721 6.47413 6.72392 6.43839 6.7174 6.42653Z" fill="#031116"/>
<path d="M19.086 3.68756L14.6492 4.49657L13.7631 3.49344L19.2637 0.366957L20.1999 0.182938L20.6012 1.38678L19.8735 3.05032L19.086 3.68756Z" fill="#022410"/>
<path d="M13.1871 6.01872C13.2005 6.74929 13.3138 8.17272 13.961 8.818C14.0203 8.87722 14.0398 8.96527 14.006 9.04202L13.6249 9.90372H14.2631C14.3559 9.90372 14.4403 9.84949 14.4784 9.76467C14.5857 9.52551 14.794 9.16142 14.7807 8.99409C14.774 8.90953 13.2617 7.12154 14.2314 5.5667L14.7807 5.23229L14.9336 4.84779C14.9336 4.84779 14.3728 4.02857 14.0596 3.92828C13.7464 3.82798 12.8603 3.77776 12.8603 3.77776L12.3378 4.49667L12.8876 5.18593C13.0765 5.42292 13.1815 5.71554 13.1871 6.01872Z" fill="#07903F"/>
<path d="M9.65018 5.56658C9.65018 5.56658 10.6032 4.98136 11.2719 5.04826C11.9408 5.11517 12.4423 5.07109 12.5425 5.04298C12.6428 5.01488 13.0942 4.12875 13.0942 4.12875C13.0942 4.12875 11.4907 4.15998 11.0044 4.24574C10.7202 4.29596 10.0347 4.26244 9.65018 5.56658Z" fill="#14F46F"/>
<path d="M14.2312 5.56658C14.2312 5.56658 14.716 5.18207 15.3179 6.05139C15.3179 6.05139 15.4349 4.99805 14.9334 4.84754C14.4318 4.69715 14.2312 5.56658 14.2312 5.56658Z" fill="#14F46F"/>
<path d="M11.0721 1.60408C11.0721 1.60408 9.2241 1.486 7.96151 3.05032C6.68632 4.63027 6.9423 5.66786 6.9423 5.66786L8.98146 4.49657L11.0721 1.60408Z" fill="#056C2F"/>
<path d="M13.191 2.81678C12.8927 2.15131 12.3225 1.60417 11.2535 1.60417C8.52666 1.60417 8.98131 4.49655 8.98131 4.49655L13.191 2.81678Z" fill="#14F46F"/>
<path d="M9.98445 6.33571C9.98445 6.33571 11.6166 7.18844 12.0462 7.10483C12.4756 7.02123 12.6428 6.28561 12.4589 6.0515C12.275 5.81739 11.2383 5.80645 10.8873 5.90386C10.5363 6.00129 9.88417 6.0682 9.98445 6.33571Z" fill="#14F46F" stroke="#031116" stroke-width="0.25" stroke-linejoin="round"/>
<path d="M10.8874 5.9039C10.7259 5.94869 10.5008 5.98713 10.3145 6.04155C10.2851 6.12503 9.98445 6.24215 9.98445 6.33572C9.98445 6.39806 10.2762 6.43061 10.2897 6.48888C10.5971 6.63914 11.081 6.86437 11.4786 6.99867C11.7149 6.85897 11.8739 6.60226 11.8739 6.30786C11.8739 6.13897 11.8215 5.98257 11.7326 5.85332C11.4074 5.83362 11.0622 5.85525 10.8874 5.9039Z" fill="#031116"/>
<path d="M14.365 6.56969C14.365 6.56969 14.0305 7.23852 14.5405 7.2217C15.0504 7.20501 15.3415 7.15516 15.3298 6.89582C15.3179 6.63648 15.4015 6.28537 15.0003 6.28537C14.5991 6.28537 14.365 6.56969 14.365 6.56969Z" fill="#031116"/>
<path d="M15.1258 6.69931C15.1258 6.53836 15.0602 6.39277 14.9544 6.28755C14.5816 6.30809 14.365 6.56983 14.365 6.56983C14.365 6.56983 14.0305 7.23854 14.5405 7.22184C14.6469 7.21836 14.7432 7.21319 14.8299 7.20526C15.0063 7.10544 15.1258 6.9165 15.1258 6.69931Z" fill="#031116"/>
<path d="M9.26551 4.49655C9.26551 4.49655 10.1035 4.09414 11.0719 4.12874C12.0402 4.16333 14.9165 4.31264 15.4182 4.02844C15.9198 3.74423 19.0797 0.216429 19.8321 0.35024C20.5845 0.484052 20.7767 2.273 19.2219 3.52693C19.2219 3.52693 18.7621 3.97835 19.5312 3.37643C20.3004 2.7745 20.8854 1.47985 20.6514 0.634445C20.4174 -0.210958 19.548 0.0325248 19.548 0.0325248L8.98131 4.49655H9.26551Z" fill="#056C2F"/>
<path d="M15.1257 3.87792C14.5405 4.12873 10.8874 3.77761 9.9031 4.12872C9.8334 4.15359 9.7659 4.17461 9.70035 4.19275L8.98131 4.49653H9.26551C9.26551 4.49653 10.1035 4.09413 11.0719 4.12872C12.0402 4.16319 14.9165 4.31263 15.4182 4.02842C15.9198 3.74422 19.0797 0.216414 19.8321 0.350226C20.5845 0.483922 20.7767 2.27299 19.2219 3.52692C19.2219 3.52692 18.7621 3.97833 19.5312 3.37641C20.3004 2.77449 20.8854 1.47983 20.6514 0.634431C20.4993 0.0848878 20.0787 -0.0044852 19.8029 0.000315202C19.7149 0.010643 19.6295 0.02134 19.5479 0.0325102L18.9514 0.28452C17.635 1.10927 15.6792 3.64068 15.1257 3.87792Z" fill="#03481F"/>
<path d="M11.6997 6.59325C11.8685 6.59325 12.0053 6.45638 12.0053 6.28754C12.0053 6.11871 11.8685 5.98184 11.6997 5.98184C11.5307 5.98184 11.3939 6.11871 11.3939 6.28754C11.3939 6.45638 11.5307 6.59325 11.6997 6.59325Z" fill="#14F46F"/>
<path d="M15.0861 6.81055C15.2018 6.81055 15.2956 6.70858 15.2956 6.5828C15.2956 6.45702 15.2018 6.35506 15.0861 6.35506C14.9703 6.35506 14.8765 6.45702 14.8765 6.5828C14.8765 6.70858 14.9703 6.81055 15.0861 6.81055Z" fill="#14F46F"/>
</g>
<defs>
<clipPath id="clip0_7323_12683">
<rect width="24" height="24" fill="white"/>
</clipPath>
</defs>
</svg>
