<svg width="24" height="24" viewBox="0 0 24 24" fill="none" xmlns="http://www.w3.org/2000/svg">
<path d="M22.1716 13.9083C22.3403 9.61304 20.5357 7.94746 20.1534 7.45967C19.771 6.97187 18.3948 5.66663 16.826 5.24975C15.8284 4.98429 14.1734 4.82712 12.8748 5.09737C11.9615 4.12179 11.0626 3.55446 10.0544 3.31679C9.62415 3.22 8.96673 3.14812 8.61406 3.20179C8.07548 3.25738 7.6289 3.71258 7.61835 4.21763C7.61644 4.30387 7.62506 4.38533 7.64423 4.46871C7.6289 4.51088 7.61548 4.55879 7.60781 4.60958C3.57898 0 3.50902 0 3.0174 0C2.6149 0 2.25552 0.231917 2.0466 0.621958C1.59235 1.15863 2.08494 2.41883 3.08065 4.38917C3.16115 4.54729 3.22727 4.67858 3.27135 4.77058C3.2819 4.81179 3.3001 4.84917 3.3231 4.88367C3.53298 5.33983 3.92494 6.04037 4.65806 7.34946C5.16119 8.2455 5.44294 8.76396 5.60106 9.06392C5.18898 9.61017 5.0366 10.2302 4.93502 11.0266C4.85069 11.6897 4.6686 12.1651 3.80802 13.2279C3.26465 13.9054 3.11898 14.1009 2.94552 14.4632C2.71744 14.9193 2.63406 15.2471 2.60244 15.8135C2.56985 16.4297 2.65419 16.8504 2.80081 17.3295C2.96181 17.8451 3.15731 18.193 3.48219 18.6875C3.69781 19.0258 3.77352 19.183 3.7716 19.1628C3.81665 19.436 3.96519 19.7005 4.15973 19.8576C4.51431 20.1413 4.95994 20.1106 5.46785 19.9966C5.91827 19.8912 6.34665 19.7522 6.74627 19.5807C6.8929 19.7148 7.07594 19.804 7.27527 19.8346L7.50336 19.8691C8.45977 20.0129 8.57381 20.0713 9.2456 20.7633C9.79856 21.3296 10.1071 21.5625 10.7444 21.736C11.4843 21.9353 12.2394 21.7484 12.7694 21.2673C12.8461 21.4216 12.9227 21.5615 12.985 21.6507C13.7201 22.7662 14.6401 23 15.2841 23C17.4183 23 21.8669 21.5865 22.1716 13.9083Z" fill="#14F46F"/>
<path fill-rule="evenodd" clip-rule="evenodd" d="M11.1632 5.4529C11.4824 5.75957 11.8005 6.12565 12.3084 6.79936C13.4537 8.32215 13.9501 8.73615 14.918 9.05432C15.4844 9.24311 16.0632 9.32553 17.079 9.38495C18.2012 9.44436 18.6258 9.52678 19.0273 9.79799C19.2516 9.95132 19.4174 10.1286 19.5937 10.3998L19.7001 10.5532L19.6761 10.3759C19.6148 9.80182 19.1624 8.89811 18.7609 8.38732C18.3594 7.87653 17.4777 7.1089 16.873 6.78115C16.711 6.69203 16.711 6.69203 16.5577 6.62111C15.4355 6.1017 14.09 5.9359 12.779 6.14865L12.4723 6.19561L12.2596 5.9474C11.445 5.03795 10.6774 4.51853 9.82732 4.31824C9.46219 4.23678 8.94278 4.18886 8.71853 4.22432C8.60065 4.23678 8.61215 4.24828 8.86036 4.28374C9.76982 4.42557 10.4665 4.7792 11.1632 5.4529Z" fill="#031116"/>
<path fill-rule="evenodd" clip-rule="evenodd" d="M10.7847 8.53493C11.0799 8.55889 11.1623 8.46402 11.0329 8.27523C10.8441 8.01552 10.7454 7.69352 10.7847 7.47118C10.824 7.24885 10.8748 6.88468 10.8633 6.42277C10.8518 5.96085 10.271 5.35135 9.84168 5.14914C9.41139 4.94502 8.95427 4.81468 8.74248 4.77923L8.62364 4.75623L8.60064 5.00443C8.52973 5.79506 8.84885 6.85785 9.34431 7.54306C9.73435 8.07398 10.3362 8.48702 10.7847 8.53493Z" fill="#031116"/>
<path fill-rule="evenodd" clip-rule="evenodd" d="M20.9162 13.2106C20.7034 11.8996 19.8179 10.9317 18.3891 10.4593C17.9406 10.3059 17.4441 10.2111 16.5826 10.0817C15.1068 9.86893 14.5749 9.7041 14.1034 9.32556C13.997 9.24314 13.9146 9.17223 13.9031 9.17223C13.9031 9.17223 13.8916 9.33802 13.8916 9.53831C13.8916 10.9202 14.7186 11.7348 17.056 12.6797C18.6143 13.3055 19.2525 13.6246 19.748 14.0492C20.161 14.4153 20.4092 14.8877 20.4332 15.3832C20.4332 15.4771 20.4571 15.5365 20.4686 15.5365C20.5281 15.525 20.7638 14.9816 20.8462 14.6865C20.9401 14.3089 20.9756 13.5882 20.9162 13.2106Z" fill="#031116"/>
<path fill-rule="evenodd" clip-rule="evenodd" d="M13.8437 15.4541C13.7258 15.501 13.2534 15.5959 12.7924 15.6668C11.8599 15.8326 11.4344 15.938 11.0214 16.1393C10.7262 16.2811 10.3602 16.4939 10.3841 16.5169C10.3956 16.5284 10.4665 16.5054 10.5374 16.4814C11.0693 16.2926 11.6597 16.1978 12.5452 16.1508C12.8997 16.1268 13.3013 16.0914 13.4431 16.0799C14.2337 15.9735 14.5634 15.8901 15.2141 15.3008C15.8648 14.7114 15.8322 13.9265 15.7594 13.433C15.6866 12.9394 15.4853 12.7027 15.332 12.5264L15.2256 12.397L15.285 12.5743C15.3205 12.6692 15.3799 12.8934 15.4029 13.0698C15.5907 14.1785 15.0119 15.088 13.8437 15.4541Z" fill="#031116"/>
<path fill-rule="evenodd" clip-rule="evenodd" d="M19.5707 15.0765C19.1931 14.6155 18.6497 14.214 17.6933 13.6946C16.9372 13.2815 16.642 13.1158 16.5011 13.0218C16.4302 12.9749 16.3593 12.9394 16.3353 12.9394C16.3123 12.9394 16.2884 12.9988 16.2644 13.0573C16.0986 13.6591 16.1696 14.2974 16.4772 14.9701C16.643 15.3123 16.7963 15.5605 17.4451 16.5054C17.9885 17.32 18.2597 17.8039 18.39 18.2055C18.6028 18.8552 18.5673 19.4331 18.2836 20.0359C18.2127 20.1777 18.1658 20.2956 18.1773 20.2956C18.1888 20.2956 18.2951 20.2486 18.4255 20.1777C19.287 19.7168 19.8773 18.9137 20.138 17.9103C20.2204 17.5912 20.2559 16.8245 20.1974 16.5054C20.1016 15.938 19.9003 15.478 19.5707 15.0765Z" fill="#031116"/>
<path fill-rule="evenodd" clip-rule="evenodd" d="M14.8116 21.4408C14.5749 21.2635 14.3861 20.9329 14.2922 20.5083C14.2807 20.4374 14.2213 20.1068 14.1743 19.7886C14.044 18.9741 13.9146 18.608 13.6309 18.1825C13.3358 17.7455 12.7694 17.3909 12.1436 17.2261C11.7536 17.1197 11.0454 17.0957 10.6199 17.1666C9.62799 17.3324 8.5537 17.8518 7.6797 18.584L7.43149 18.8207L7.65574 18.8562C8.8364 19.0335 9.15553 19.1983 9.98161 20.0483C10.4541 20.5323 10.6189 20.6387 11.0089 20.7451C11.5878 20.8984 12.1542 20.6272 12.3554 20.1078C12.4378 19.872 12.4263 19.4935 12.3314 19.3047C12.0957 18.8447 11.8782 19.4705 11.8782 19.6257C11.8782 19.78 11.7334 19.9966 11.3453 19.9966C10.9562 19.9966 10.6831 19.6526 10.6831 19.2961C10.6831 18.9396 10.985 18.5476 11.3904 18.5054C11.9251 18.4498 12.1762 18.5955 12.4656 18.7805C12.9496 19.0996 13.0406 19.3516 13.4537 20.3081C13.5955 20.6272 13.7603 20.9693 13.8437 21.0872C14.2337 21.6775 14.7177 21.9727 15.2841 21.9727C15.6032 21.9727 15.8389 21.9257 16.1341 21.7724C16.3469 21.666 16.665 21.4533 16.642 21.4303C16.642 21.4188 16.5472 21.4542 16.4408 21.4897C15.815 21.7245 15.1777 21.712 14.8116 21.4408Z" fill="#031116"/>
<path fill-rule="evenodd" clip-rule="evenodd" d="M7.90395 16.9654C7.90395 16.6942 7.89245 16.6347 7.82153 16.4699C7.70366 16.2102 7.47941 15.9975 6.99545 15.6668C6.35816 15.2298 6.08599 14.8752 6.01507 14.4037C5.95566 14.0022 6.02657 13.731 6.38116 12.9873C6.74724 12.2197 6.84211 11.9006 6.90057 11.1215C6.93603 10.626 6.99545 10.4247 7.13632 10.2714C7.28966 10.1066 7.41999 10.0472 7.78607 10.0002C8.38791 9.91779 8.77795 9.7635 9.08461 9.46929C9.35582 9.21916 9.47466 8.97191 9.48616 8.60583L9.49766 8.33462L9.34432 8.16883C8.78945 7.53058 3.05382 1.02829 3.01836 1.02829C3.00686 1.02829 2.79411 1.23241 3.01836 1.51608C5.76878 4.85779 7.29445 6.68917 7.5072 6.97283C8.20295 7.80275 8.28728 8.53779 7.94995 9.00833C7.94995 9.00833 5.77453 6.14292 5.42378 5.68387C5.07303 5.22483 4.7242 5.32929 4.91299 5.67429C5.10178 6.01929 6.75778 9.04283 6.75778 9.11375C6.75778 9.26708 6.71082 9.3495 6.52203 9.56225C6.20291 9.91683 6.06107 10.3184 5.95566 11.156C5.83778 12.0884 5.51866 12.7497 4.6092 13.8719C4.07828 14.5331 3.99491 14.651 3.86553 14.9232C3.7007 15.2538 3.65278 15.4426 3.62978 15.8681C3.60582 16.3166 3.65374 16.6002 3.78311 17.0248C3.90099 17.4024 4.03132 17.6506 4.34949 18.1345C4.6207 18.56 4.78649 18.8782 4.78649 18.9961C4.78649 19.091 4.81045 19.091 5.23499 18.9961C6.25082 18.7603 7.08936 18.3588 7.54936 17.8624C7.83303 17.5557 7.90395 17.3909 7.90395 16.9654Z" fill="#031116"/>
<path fill-rule="evenodd" clip-rule="evenodd" d="M11.3434 11.1196C11.4153 10.7755 11.1143 10.3031 10.6984 10.0884C10.4838 9.97339 10.0401 9.93122 9.81005 10.0021C9.46601 10.1028 9.1373 10.4746 9.03668 10.8474C8.97918 11.0764 9.00793 11.4923 9.10855 11.6208C9.26572 11.8211 9.40947 11.8786 9.81005 11.8786C10.5988 11.8786 11.2715 11.5345 11.3434 11.1196Z" fill="#031116"/>
</svg>
