<svg width="89" height="44" viewBox="0 0 89 44" fill="none" xmlns="http://www.w3.org/2000/svg">
<g clip-path="url(#clip0_7777_1069)">
<path d="M71.3786 44C81.1321 44 88.9787 36.1533 88.9787 26.3998C88.9787 16.6463 81.1321 8.79962 71.3786 8.79962C61.6251 8.79962 53.7784 16.6463 53.7784 26.3998C53.7784 36.1533 61.6251 44 71.3786 44Z" fill="#2775CA"/>
<path d="M76.2186 29.1865C76.2186 26.6198 74.6786 25.7398 71.5986 25.3732C69.3985 25.0798 68.9585 24.4932 68.9585 23.4664C68.9585 22.4396 69.6919 21.7798 71.1586 21.7798C72.4786 21.7798 73.212 22.2198 73.5786 23.3198C73.652 23.5398 73.872 23.6864 74.092 23.6864H75.2652C75.5586 23.6864 75.7786 23.4664 75.7786 23.1732V23.0998C75.4852 21.4864 74.1652 20.2397 72.4786 20.0931V18.3331C72.4786 18.0397 72.2586 17.8197 71.892 17.7463H70.7919C70.4985 17.7463 70.2785 17.9663 70.2051 18.3331V20.0197C68.0051 20.3131 66.6119 21.7798 66.6119 23.6132C66.6119 26.0332 68.0785 26.9864 71.1586 27.3532C73.212 27.7199 73.872 28.1599 73.872 29.3333C73.872 30.5067 72.8452 31.3133 71.4519 31.3133C69.5451 31.3133 68.8851 30.5065 68.6651 29.4065C68.5919 29.1133 68.3719 28.9665 68.1519 28.9665H66.9051C66.6119 28.9665 66.3919 29.1865 66.3919 29.4799V29.5533C66.6851 31.3865 67.8585 32.7065 70.2785 33.0733V34.8333C70.2785 35.1266 70.4985 35.3466 70.8652 35.42H71.9652C72.2586 35.42 72.4786 35.2 72.552 34.8333V33.0733C74.752 32.7065 76.2186 31.1665 76.2186 29.1865Z" fill="white"/>
<path d="M67.6385 36.8867C61.9185 34.8334 58.985 28.4533 61.1118 22.8064C62.2119 19.7264 64.6319 17.3797 67.6385 16.2797C67.9319 16.1331 68.0785 15.9131 68.0785 15.5463V14.5197C68.0785 14.2263 67.9319 14.0063 67.6385 13.9331C67.5651 13.9331 67.4185 13.9331 67.3451 14.0063C60.3784 16.2063 56.565 23.6132 58.765 30.5799C60.085 34.6866 63.2385 37.8401 67.3451 39.1601C67.6385 39.3067 67.9319 39.1601 68.0052 38.8667C68.0785 38.7935 68.0785 38.7201 68.0785 38.5735V37.5467C68.0785 37.3267 67.8585 37.0334 67.6385 36.8867ZM75.412 14.0063C75.1186 13.8597 74.8252 14.0063 74.752 14.2997C74.6786 14.3731 74.6786 14.4463 74.6786 14.5931V15.6197C74.6786 15.9131 74.8986 16.2063 75.1186 16.3531C80.8387 18.4064 83.7722 24.7865 81.6453 30.4333C80.5453 33.5134 78.1253 35.86 75.1186 36.96C74.8252 37.1067 74.6786 37.3267 74.6786 37.6935V38.7201C74.6786 39.0135 74.8252 39.2335 75.1186 39.3067C75.192 39.3067 75.3386 39.3067 75.412 39.2335C82.3787 37.0334 86.1922 29.6265 83.9922 22.6598C82.6721 18.4797 79.4453 15.3263 75.412 14.0063Z" fill="white"/>
</g>
<g clip-path="url(#clip1_7777_1069)">
<path d="M41.8009 43.0227C53.7219 43.0227 63.3123 33.4323 63.3123 21.5113C63.3123 9.5904 53.7219 0 41.8009 0C29.88 0 20.2896 9.5904 20.2896 21.5113C20.2896 33.4323 29.88 43.0227 41.8009 43.0227Z" fill="#2775CA"/>
<path d="M47.7165 24.9173C47.7165 21.7803 45.8343 20.7047 42.0698 20.2566C39.3809 19.898 38.8431 19.181 38.8431 17.9261C38.8431 16.6711 39.7395 15.8646 41.532 15.8646C43.1454 15.8646 44.0418 16.4024 44.4898 17.7469C44.5795 18.0158 44.8484 18.195 45.1173 18.195H46.5513C46.9099 18.195 47.1788 17.9261 47.1788 17.5677V17.478C46.8202 15.506 45.2068 13.9824 43.1454 13.8032V11.6521C43.1454 11.2935 42.8765 11.0246 42.4284 10.9349H41.084C40.7254 10.9349 40.4565 11.2038 40.3668 11.6521V13.7135C37.6778 14.0721 35.975 15.8646 35.975 18.1055C35.975 21.0633 37.7675 22.2283 41.532 22.6766C44.0418 23.1247 44.8484 23.6625 44.8484 25.0967C44.8484 26.5308 43.5935 27.5167 41.8906 27.5167C39.5601 27.5167 38.7534 26.5306 38.4845 25.1862C38.395 24.8278 38.1261 24.6484 37.8573 24.6484H36.3334C35.975 24.6484 35.7061 24.9173 35.7061 25.2759V25.3656C36.0645 27.6062 37.4987 29.2196 40.4565 29.6679V31.819C40.4565 32.1774 40.7254 32.4463 41.1734 32.536H42.5179C42.8765 32.536 43.1454 32.2671 43.2351 31.819V29.6679C45.924 29.2196 47.7165 27.3373 47.7165 24.9173Z" fill="white"/>
<path d="M37.2298 34.3286C30.2386 31.8191 26.6533 24.0212 29.2527 17.1194C30.5972 13.3549 33.555 10.4868 37.2298 9.14234C37.5884 8.96315 37.7676 8.69425 37.7676 8.24596V6.99119C37.7676 6.6326 37.5884 6.3637 37.2298 6.27422C37.1401 6.27422 36.9609 6.27422 36.8712 6.3637C28.3563 9.05264 23.6955 18.1055 26.3844 26.6204C27.9977 31.6397 31.8519 35.4939 36.8712 37.1072C37.2298 37.2864 37.5884 37.1072 37.6779 36.7486C37.7676 36.6592 37.7676 36.5695 37.7676 36.3903V35.1353C37.7676 34.8664 37.4987 34.508 37.2298 34.3286ZM46.7307 6.3637C46.3721 6.18451 46.0135 6.3637 45.9241 6.7223C45.8344 6.812 45.8344 6.90149 45.8344 7.0809V8.33566C45.8344 8.69425 46.1032 9.05264 46.3721 9.23204C53.3633 11.7416 56.9487 19.5395 54.3492 26.4412C53.0047 30.2057 50.0469 33.0738 46.3721 34.4183C46.0135 34.5975 45.8344 34.8664 45.8344 35.3147V36.5694C45.8344 36.928 46.0135 37.1969 46.3721 37.2864C46.4618 37.2864 46.641 37.2864 46.7307 37.1969C55.2456 34.508 59.9065 25.4551 57.2175 16.9402C55.6042 11.8313 51.6603 7.97706 46.7307 6.3637Z" fill="white"/>
</g>
<path opacity="0.5" d="M66.3484 30.4121C67.4454 24.5894 67.1507 21.4731 66.3975 18.6438C66.2911 18.2583 66.1847 17.8811 66.0619 17.5038C66.0619 17.4956 66.0619 17.4874 66.0537 17.471C65.3252 15.1994 64.3101 13.1163 63.0494 11.3203C63.0494 11.3203 63.0412 11.3039 63.033 11.3039C62.1817 10.0902 61.2321 9.00768 60.1761 8.07278C59.8896 7.81855 59.603 7.58072 59.3083 7.3511C59.2674 7.31829 59.2183 7.28549 59.1774 7.25268C58.8827 7.03126 58.5798 6.80984 58.2687 6.61301C58.2687 6.61301 58.2687 6.61301 58.2605 6.61301C57.9413 6.39979 57.6138 6.21117 57.2782 6.02255C57.2373 5.99794 57.1963 5.98154 57.1554 5.95694C57.0981 5.92414 57.0326 5.89953 56.9753 5.86673C56.9098 5.90773 56.8443 5.94054 56.7788 5.98154C58.4242 7.59712 59.8241 9.47513 60.8883 11.5418C60.8883 11.55 60.8965 11.5582 60.9046 11.5664C61.0847 11.919 61.2566 12.2798 61.4204 12.6489C62.6074 15.3306 63.2786 18.2993 63.2786 21.4321C63.2786 25.1717 62.3372 28.6817 60.6672 31.7488C60.3971 32.2409 60.1106 32.7247 59.8077 33.1922C59.6522 33.43 59.4966 33.6596 59.3411 33.8893C59.1119 34.2173 58.8745 34.5289 58.6289 34.8406C58.3178 35.2342 57.9986 35.6197 57.6711 35.9887C57.4419 36.2429 57.1963 36.4972 56.9589 36.7432C56.7952 36.9072 56.6315 37.063 56.4678 37.2188C57.3682 38.3342 59.2019 39.8513 60.9865 40.8846C63.0576 38.4572 65.4561 35.2342 66.3648 30.4121H66.3484Z" fill="#031116"/>
<path opacity="0.9" fill-rule="evenodd" clip-rule="evenodd" d="M31.701 21.5703C32.5678 21.5703 33.0241 20.5429 32.443 19.8998L17.1073 2.92958C16.7103 2.49021 16.0205 2.49021 15.6234 2.92958L0.287785 19.8998C-0.293334 20.5429 0.162989 21.5703 1.02972 21.5703H6.71255C7.22365 21.5703 7.6525 21.9557 7.70687 22.4639L9.19961 36.4153C9.25399 36.9235 9.68284 37.3089 10.1939 37.3089H21.7563H22.5368C23.0479 37.3089 23.4768 36.9235 23.5312 36.4153L25.0239 22.4639C25.0783 21.9557 25.5071 21.5703 26.0182 21.5703H31.701Z" fill="url(#paint0_linear_7777_1069)"/>
<path opacity="0.5" fill-rule="evenodd" clip-rule="evenodd" d="M32.6186 20.8996C32.4706 21.2409 32.1379 21.502 31.701 21.502H26.0182C25.5071 21.502 25.0782 21.8874 25.0239 22.3957L23.5311 36.3471C23.4767 36.8553 23.0479 37.2407 22.5368 37.2407H21.7563H10.1939C10.1495 37.2407 10.1058 37.2378 10.0628 37.2321L10.1774 38.3028C10.2318 38.811 10.6606 39.1964 11.1717 39.1964H22.7341H23.5146C24.0257 39.1964 24.4546 38.811 24.5089 38.3028L26.0017 24.3514C26.0561 23.8432 26.4849 23.4577 26.996 23.4577H32.6788C33.5456 23.4577 34.0019 22.4303 33.4208 21.7873L32.6186 20.8996ZM7.82138 23.4663L7.70682 22.3957C7.65245 21.8874 7.2236 21.502 6.7125 21.502H1.52333L1.26557 21.7873C0.684449 22.4303 1.14077 23.4577 2.0075 23.4577H7.69033C7.7347 23.4577 7.77844 23.4607 7.82138 23.4663Z" fill="#031116"/>
<defs>
<linearGradient id="paint0_linear_7777_1069" x1="16.3654" y1="2.60005" x2="16.3654" y2="37.3089" gradientUnits="userSpaceOnUse">
<stop stop-color="#07903F"/>
<stop offset="1" stop-color="#14F46F"/>
</linearGradient>
<clipPath id="clip0_7777_1069">
<rect width="35.2004" height="35.2004" fill="white" transform="translate(53.7784 8.79962)"/>
</clipPath>
<clipPath id="clip1_7777_1069">
<rect width="43.0227" height="43.0227" fill="white" transform="translate(20.2896)"/>
</clipPath>
</defs>
</svg>
