<svg width="24" height="24" viewBox="0 0 24 24" fill="none" xmlns="http://www.w3.org/2000/svg">
<path d="M22.9937 12.863C22.9505 12.4964 22.795 12.062 22.6054 11.7898C22.6042 11.7885 22.6036 11.7868 22.6028 11.7852C21.5172 10.4637 19.8924 10.1895 18.3583 9.84212C18.3625 9.80504 18.3686 9.77036 18.3725 9.73302C18.3937 9.52936 18.415 9.30516 18.426 9.07169C18.4431 8.73265 18.4845 8.38627 18.4399 8.05L18.4413 8.04993C18.4395 8.02192 18.4373 7.99612 18.4363 7.98478C18.4357 7.9777 18.4352 7.97252 18.435 7.96864C18.435 7.96904 18.4353 7.97412 18.4354 7.97664C18.4348 7.97044 18.4344 7.96424 18.4338 7.95804C18.4241 7.65855 18.3975 7.3668 18.3595 7.08692C18.3141 6.75175 18.2462 6.41559 18.1511 6.08009C18.1348 6.01137 18.0823 5.86703 18.0456 5.74479C18.0439 5.74093 18.0433 5.73712 18.0422 5.73306C17.898 5.31993 17.6986 4.89441 17.4068 4.49043C17.4065 4.49009 17.4064 4.48967 17.4061 4.48929C17.1186 4.09078 16.7507 3.7306 16.2793 3.45726C16.2789 3.45708 16.2786 3.45687 16.2783 3.45659C16.104 3.35629 15.986 3.311 15.8756 3.25747L15.8748 3.25907C15.1965 2.95691 14.501 2.65266 13.8198 2.34713C13.3671 2.14263 12.9119 1.9444 12.4475 1.74102C12.3093 1.68009 12.179 1.62237 12.0502 1.56391C11.3327 1.24627 10.4755 1.14795 9.70095 1.33057C9.12945 1.45221 8.62336 1.6708 8.17723 1.91614C6.64542 2.7808 5.46211 4.09391 4.46095 5.49865C3.93613 6.2448 3.47426 7.0235 3.06514 7.826C2.49755 8.9492 2.03871 10.0716 1.68081 11.2964C1.50678 11.8562 1.36748 12.4441 1.25422 13.0325C1.17093 13.4722 1.10371 13.9202 1.05889 14.3771C1.05883 14.3779 1.05877 14.3788 1.05856 14.3796C1.02635 14.7024 1.00228 15.0488 1.00341 15.4089C1.00339 15.5492 1.00374 15.689 1.00428 15.8256C1.00441 15.8513 1.00648 15.8769 1.00808 15.9024C1.00986 16.4879 1.07485 16.9862 1.197 17.5552C1.19718 17.556 1.19735 17.5569 1.1974 17.5577C1.46929 18.7953 2.14431 20.0735 3.38744 20.6603C3.3878 20.6605 3.38819 20.6607 3.38851 20.6609C3.54608 20.7348 3.702 20.8033 3.84284 20.865C3.8517 20.8689 3.9258 20.9015 3.93653 20.9062C4.04897 20.9567 4.19101 21.0178 4.31811 21.0735L4.31751 21.0749C4.4385 21.1299 5.28206 21.5004 5.38322 21.5439L5.91658 21.7814C6.08638 21.8558 6.24425 21.9257 6.40965 21.9981C6.40892 21.9977 6.40872 21.9977 6.40799 21.9973C6.4479 22.0154 7.32066 22.4012 7.35093 22.4148C7.9005 22.7055 8.82685 22.8359 9.47861 22.7166C9.48021 22.7163 9.48262 22.7161 9.48435 22.7158C10.5646 22.5532 11.548 21.9875 12.3567 21.3492C14.5967 21.3591 16.7741 21.2073 18.9631 20.7274C19.5526 20.5931 20.1715 20.4238 20.7874 20.1753C21.7281 19.8228 22.8688 19.0788 22.9888 17.9115L22.99 17.9116C22.9903 17.9071 22.9902 17.8999 22.9908 17.8954C22.9981 17.0541 22.9811 16.0168 22.9923 15.1697C22.9912 14.4028 23.0019 13.6355 22.9937 12.863ZM18.4412 8.6415C18.4394 8.61169 18.4408 8.62844 18.4412 8.6415V8.6415ZM18.4324 7.9581L18.4262 7.95877C18.4202 7.92003 18.418 7.88048 18.4086 7.84274C18.421 7.89429 18.4296 7.93736 18.4324 7.9581ZM1.00815 15.9172C1.00875 15.9256 1.00921 15.934 1.01001 15.9424C1.00881 15.9292 1.00848 15.9228 1.00815 15.9172ZM17.7414 5.27545C17.7684 5.30246 17.8272 5.36942 17.8857 5.45151C17.8281 5.35678 17.7225 5.29935 17.6653 5.20603C17.6849 5.22264 17.7098 5.24398 17.7414 5.27545ZM14.3318 2.65763C14.3451 2.65969 14.358 2.66103 14.3714 2.66356C14.358 2.66342 14.3449 2.66106 14.3318 2.65763ZM13.9265 2.41302L13.9252 2.41509C13.9132 2.40749 13.906 2.40448 13.8945 2.39775C13.9056 2.40395 13.9153 2.40629 13.9265 2.41302ZM13.8135 2.36814C13.8369 2.37959 13.8599 2.39103 13.8832 2.40395C13.8798 2.40202 13.8775 2.39995 13.8741 2.39802C13.8901 2.40705 13.9054 2.41132 13.9214 2.42149L13.9202 2.42342C13.9412 2.43331 13.9564 2.44899 13.9742 2.4627C13.9565 2.45016 13.9376 2.43883 13.9183 2.42662L13.9108 2.43916C13.875 2.41946 13.8485 2.38883 13.8129 2.36934L13.8135 2.36814ZM13.8109 2.36694C13.8095 2.36621 13.8083 2.36561 13.8069 2.36494L13.8109 2.36694ZM13.5672 2.27365C13.5717 2.27485 13.5763 2.2763 13.5809 2.27758L13.5813 2.27651C13.5842 2.27731 13.5873 2.27851 13.5902 2.27931C13.5873 2.27834 13.5852 2.27576 13.582 2.27525L13.583 2.27305C13.5934 2.27631 13.5968 2.27718 13.6003 2.27845C13.6687 2.3002 13.6527 2.29693 13.5996 2.28058L13.5991 2.28212C13.6167 2.28811 13.6341 2.29237 13.6522 2.29792L13.6518 2.29885C13.6692 2.30474 13.6853 2.30841 13.7029 2.31499C13.6872 2.30961 13.6689 2.31102 13.6528 2.30606C13.6517 2.30572 13.6504 2.30579 13.6493 2.30546L13.6486 2.30719C13.6368 2.30424 13.6251 2.30039 13.6128 2.29892C13.607 2.29712 13.6005 2.29732 13.5947 2.29565C13.588 2.29383 13.5809 2.29353 13.5741 2.29199C13.5709 2.29105 13.5677 2.29025 13.5645 2.28938C13.5639 2.28918 13.5632 2.28918 13.5626 2.28898L13.5672 2.27365ZM13.5251 2.25918C13.5275 2.25976 13.5303 2.26016 13.5325 2.26104C13.527 2.25944 13.5216 2.25931 13.5161 2.25778C13.5193 2.25844 13.5219 2.25844 13.5251 2.25918ZM13.4829 2.25077C13.4888 2.25191 13.4947 2.25337 13.5006 2.25464C13.4977 2.25391 13.4949 2.25377 13.4921 2.25297C13.4929 2.25317 13.4935 2.25331 13.4943 2.25351C13.4883 2.25184 13.4825 2.25151 13.4765 2.24991C13.4769 2.24997 13.4772 2.24997 13.4776 2.25004C13.4632 2.24617 13.4494 2.24524 13.435 2.24157C13.4501 2.24346 13.4677 2.24652 13.4829 2.25077ZM13.4186 2.23597C13.4307 2.23797 13.4382 2.2405 13.4496 2.24277C13.4337 2.24072 13.4195 2.23872 13.4049 2.2355C13.4088 2.23604 13.4148 2.23537 13.4186 2.23597ZM13.3484 2.2337C13.416 2.24202 13.4883 2.24823 13.5555 2.27038L13.5486 2.28598C13.4638 2.26411 13.3806 2.23657 13.2938 2.2319C13.3115 2.23317 13.3316 2.23183 13.3484 2.2337ZM12.2493 1.7761L12.2492 1.78024C12.2375 1.78017 12.2258 1.7801 12.2141 1.78037C12.2255 1.78024 12.2379 1.7759 12.2493 1.7761ZM4.98004 21.3019C4.97326 21.2966 4.96669 21.2917 4.9597 21.2858C4.97917 21.3022 5.00191 21.3135 5.02225 21.3287C5.00951 21.3189 4.99217 21.3119 4.98004 21.3019ZM5.04092 21.3405C5.00666 21.3145 4.96629 21.294 4.93849 21.263C4.97043 21.2921 5.00711 21.3152 5.04185 21.3411C5.04152 21.3408 5.04125 21.3407 5.04092 21.3405ZM5.33101 21.5031C5.32707 21.5015 5.32314 21.4997 5.31914 21.4981C5.32474 21.5005 5.33047 21.5025 5.33614 21.5048C5.33441 21.5041 5.33274 21.5037 5.33101 21.5031ZM5.73059 21.5947C5.72999 21.5947 5.72925 21.5946 5.72865 21.5945C5.73626 21.5949 5.74553 21.5933 5.75326 21.5935C5.75399 21.5942 5.7546 21.5948 5.75533 21.5955C5.74693 21.5952 5.73926 21.5951 5.73059 21.5947ZM6.2342 21.9086L6.23474 21.9073C6.24014 21.9103 6.24641 21.9117 6.25181 21.9146C6.2456 21.9115 6.24047 21.9119 6.2342 21.9086ZM6.25334 21.9123L6.25374 21.9114C6.25727 21.9125 6.2601 21.9153 6.26301 21.9173C6.25961 21.9154 6.25681 21.9142 6.25334 21.9123ZM6.28782 21.9269C6.28139 21.9255 6.27636 21.9212 6.27081 21.9178C6.27661 21.9206 6.28248 21.9232 6.28835 21.926L6.28782 21.9269ZM6.28835 21.926C6.29108 21.9273 6.29469 21.9289 6.29749 21.9302C6.29435 21.9288 6.29088 21.9283 6.28782 21.9269L6.28835 21.926ZM6.30709 21.94C6.30234 21.9376 6.29735 21.9352 6.29282 21.9322C6.30396 21.9382 6.31681 21.9409 6.3273 21.9478C6.32049 21.945 6.31383 21.943 6.30709 21.94ZM6.32663 21.9496L6.3277 21.9494C6.33203 21.9505 6.33516 21.9533 6.33877 21.9556C6.33503 21.9538 6.33036 21.9515 6.32663 21.9496ZM6.3583 21.9651C6.3577 21.9649 6.3571 21.9645 6.3565 21.9643C6.36152 21.9662 6.3679 21.9658 6.37218 21.9694C6.36731 21.9674 6.36324 21.9672 6.3583 21.9651ZM6.44466 22.0021C6.45087 22.0037 6.4574 22.0038 6.463 22.0073C6.45593 22.0049 6.45193 22.0048 6.44466 22.0021ZM6.47987 22.0147C6.4736 22.0127 6.47074 22.0137 6.4644 22.0116C6.46947 22.0133 6.4748 22.0131 6.47987 22.0147ZM6.47987 22.0147C6.48307 22.0153 6.487 22.0155 6.49001 22.0168C6.48608 22.0156 6.48387 22.016 6.47987 22.0147ZM6.49621 22.0168C6.51497 22.0209 6.53463 22.0209 6.55243 22.0294C6.53273 22.0253 6.51625 22.0234 6.49621 22.0168ZM6.57837 22.0401C6.5739 22.039 6.56903 22.0373 6.56443 22.0361C6.56914 22.0372 6.57422 22.0367 6.5787 22.0387L6.57837 22.0401ZM6.58017 22.033C6.57457 22.0318 6.56777 22.0288 6.56203 22.0275C6.56817 22.029 6.57463 22.0291 6.58084 22.0305L6.58017 22.033ZM6.66753 22.0654C6.66426 22.0648 6.65773 22.0623 6.65439 22.0617C6.65886 22.0625 6.66339 22.0631 6.66779 22.0639L6.66753 22.0654ZM6.68747 22.0711C6.6832 22.0704 6.67353 22.0666 6.66893 22.0658L6.6692 22.0641C6.6808 22.0657 6.69218 22.0682 6.70267 22.0727C6.69687 22.0718 6.69334 22.0721 6.68747 22.0711ZM6.71501 22.074L6.71534 22.0722C6.72474 22.0735 6.73395 22.0759 6.74335 22.077C6.73328 22.0758 6.72561 22.0755 6.71501 22.074ZM6.77863 22.0747C6.76342 22.0743 6.73443 22.0646 6.71674 22.0626C6.75218 22.066 6.78484 22.0687 6.81884 22.0766C6.8055 22.0761 6.79416 22.0758 6.77863 22.0747ZM6.81904 22.085C6.83864 22.0867 6.85846 22.0862 6.87799 22.0883C6.86572 22.0882 6.85205 22.087 6.81904 22.085ZM14.1729 20.1124C14.1729 20.1122 14.173 20.1125 14.1729 20.1124V20.1124ZM14.2578 20.3399C14.2578 20.34 14.2578 20.3399 14.2578 20.3399V20.3399ZM17.9968 5.67671C17.966 5.60755 17.9441 5.5338 17.9019 5.47118C17.9327 5.51514 17.9703 5.58922 18.0082 5.67144L17.9968 5.67671ZM18.0346 5.73579C18.0265 5.71652 18.0223 5.70071 18.0132 5.68104C18.0228 5.69895 18.0322 5.71369 18.037 5.73486L18.0346 5.73579ZM18.039 5.74713L18.0406 5.74653C18.043 5.75299 18.0452 5.76253 18.0477 5.7694C18.0446 5.76173 18.0422 5.75493 18.039 5.74713ZM18.2774 7.51317C18.3187 7.57971 18.3498 7.64511 18.3708 7.71603C18.347 7.64472 18.3089 7.5798 18.2774 7.51317ZM22.9743 16.6434C22.9733 16.6504 22.9734 16.6486 22.9723 16.6548C22.973 16.6508 22.9737 16.6454 22.9745 16.6406C22.9745 16.6412 22.9744 16.6429 22.9743 16.6434Z" fill="#14F46F"/>
<path d="M13.6528 2.30605L13.6551 2.29985L13.6528 2.30605H13.6528Z" fill="#14F46F"/>
<path d="M13.6001 2.27911C13.5955 2.27771 13.5871 2.27625 13.5822 2.27478C13.5873 2.27659 13.5942 2.27906 13.5996 2.28058L13.6001 2.27911Z" fill="#14F46F"/>
<path d="M13.5909 2.29499C13.5921 2.29533 13.5935 2.29526 13.5947 2.29566L13.5985 2.28379C13.6153 2.29173 13.6301 2.30408 13.6493 2.30546L13.6518 2.29886C13.6398 2.29501 13.6284 2.29112 13.6166 2.28779C13.6106 2.28592 13.6049 2.28446 13.5989 2.28272C13.596 2.28192 13.5931 2.28012 13.5902 2.27932C13.5915 2.27979 13.5925 2.28086 13.5938 2.28126C13.5895 2.27999 13.5851 2.27879 13.5809 2.27759L13.5744 2.29146C13.5799 2.29299 13.5855 2.29333 13.5909 2.29499Z" fill="#14F46F"/>
<path d="M13.6128 2.29886V2.29892L13.615 2.29259L13.6128 2.29886Z" fill="#14F46F"/>
<path d="M13.9202 2.42342C13.9078 2.41575 13.8956 2.41101 13.8832 2.40395C13.8959 2.41148 13.9062 2.41888 13.9183 2.42662L13.9202 2.42342Z" fill="#14F46F"/>
<path d="M20.0493 17.1674C20.037 17.1768 20.0247 17.1868 20.0118 17.1956C19.9996 17.205 19.9867 17.2138 19.9738 17.2232C19.9497 17.2401 19.9252 17.2565 19.8999 17.2723C19.8971 17.2741 19.8941 17.2758 19.8912 17.2781C19.8706 17.291 19.8502 17.3039 19.8291 17.3162C19.7981 17.3349 19.7676 17.3525 19.736 17.3701C19.5217 17.4895 19.2962 17.5856 19.0661 17.6706C18.8489 17.7502 18.6286 17.8198 18.4067 17.8819C18.0887 17.9709 17.7666 18.0448 17.4416 18.1091C17.126 18.1724 16.8091 18.2257 16.4912 18.2719C16.1732 18.3183 15.854 18.3568 15.5343 18.3903C15.4295 18.4014 15.3246 18.4113 15.2198 18.4213C15.0096 18.4406 14.7993 18.457 14.5891 18.471C14.4836 18.4781 14.3783 18.4845 14.2734 18.4903C14.0374 18.5039 13.8014 18.5138 13.5654 18.5214C13.5227 18.5226 13.48 18.5243 13.4366 18.5255C13.3974 18.5267 13.3582 18.5278 13.3183 18.529C13.415 18.4096 13.5116 18.2907 13.6 18.1647C13.6129 18.149 13.6258 18.1332 13.6381 18.1168C13.8378 17.8486 14.0287 17.5745 14.2114 17.2952C14.2302 17.294 14.2489 17.2934 14.267 17.2922C14.383 17.2858 14.4989 17.2781 14.6149 17.2706C14.7027 17.2647 14.7906 17.2582 14.8784 17.2512C15.4927 17.2038 16.1046 17.1359 16.7137 17.0404C16.8912 17.0128 17.0674 16.9825 17.2431 16.9502C17.6542 16.8741 18.0618 16.7827 18.4635 16.668C18.5519 16.6428 18.6397 16.6164 18.7276 16.5889C18.7715 16.5748 18.8154 16.5608 18.8593 16.5462C18.9256 16.5579 18.9859 16.5854 19.0479 16.6082C19.1023 16.6281 19.1569 16.6492 19.2113 16.6709C19.3653 16.7318 19.5164 16.7991 19.6628 16.877C19.7207 16.9075 19.7776 16.9397 19.8338 16.9736C19.9081 17.0187 19.9808 17.0662 20.0487 17.1207C20.0686 17.1364 20.0745 17.1428 20.0669 17.1522C20.0634 17.1569 20.0575 17.1616 20.0481 17.1686L20.0493 17.1674Z" fill="#14F46F"/>
<path d="M12.4581 15.7293C12.2836 15.7293 12.109 15.7316 11.9345 15.7345C11.6441 16.1849 11.3308 16.6194 10.9888 17.0322C10.9168 17.1189 10.8441 17.2044 10.7698 17.2887C10.5823 17.5024 10.3868 17.7086 10.1818 17.9054C10.0021 18.0776 9.81644 18.2421 9.62257 18.3967C9.47149 18.5179 9.31513 18.6332 9.15291 18.7404C8.85425 18.9384 8.54095 19.1087 8.20364 19.233C8.03266 19.2956 7.85814 19.3465 7.67778 19.3764C7.66783 19.3782 7.65845 19.3822 7.6485 19.3852C7.64909 19.3881 7.65026 19.3916 7.65085 19.3946C7.65143 19.3963 7.65202 19.3981 7.65319 19.3998C7.66607 19.4197 7.67895 19.439 7.69242 19.4578C7.71936 19.4965 7.74746 19.534 7.77617 19.5702C7.8195 19.6247 7.86576 19.6774 7.91437 19.7278C8.1568 19.7629 8.39923 19.7946 8.64226 19.8232C8.70727 19.8132 8.77169 19.8003 8.83552 19.7852C8.98367 19.75 9.12773 19.7038 9.26887 19.6492C9.33913 19.6218 9.40883 19.5925 9.47734 19.5609C9.54586 19.5293 9.61379 19.4958 9.68113 19.4601C9.71041 19.4449 9.73911 19.4291 9.76839 19.4132C9.96984 19.3026 10.1631 19.1784 10.3481 19.0449C10.5337 18.9109 10.7118 18.7668 10.8846 18.6157C10.9091 18.594 10.9337 18.5724 10.9583 18.5501C10.9765 18.5337 10.994 18.5173 11.0128 18.5003C11.1235 18.399 11.2324 18.2948 11.3384 18.1882C11.3794 18.1466 11.4198 18.1051 11.4602 18.0623C11.5931 17.923 11.7226 17.7806 11.8484 17.6348C11.924 17.5475 11.9978 17.4585 12.0704 17.3689C12.0792 17.3584 12.0879 17.3473 12.0968 17.3361C12.1465 17.2741 12.1958 17.2114 12.2449 17.1482C12.399 16.949 12.5471 16.7458 12.6899 16.5385C12.7673 16.4261 12.8428 16.3131 12.9172 16.1989C12.9588 16.1345 12.9998 16.07 13.0402 16.0057C13.0958 15.9172 13.1502 15.8276 13.2041 15.738C12.9552 15.7322 12.707 15.7293 12.4581 15.7293Z" fill="#14F46F"/>
<path d="M8.15681 17.0082C8.16969 17.0105 8.18199 17.0123 8.19428 17.0147C7.95008 17.2507 7.69358 17.4721 7.42011 17.6746C7.32055 17.7484 7.221 17.8222 7.11325 17.8848C7.09333 17.7987 7.08454 17.7109 7.07459 17.623C7.04063 17.3431 7.02774 17.0621 7.02716 16.781C7.09509 16.7974 7.16302 16.8132 7.23154 16.829C7.43123 16.8747 7.6315 16.915 7.83236 16.952C7.9407 16.9719 8.04846 16.9901 8.15681 17.0082Z" fill="#14F46F"/>
<path d="M21.6784 16.2264V15.2643C21.658 15.1747 21.6299 15.0874 21.5801 15.0089C21.4999 14.8824 21.4044 14.7694 21.285 14.6769C21.1602 14.5803 21.0326 14.4895 20.8949 14.4122C20.7058 14.3062 20.509 14.2166 20.3117 14.1282C20.2765 14.1123 20.2403 14.1048 20.2051 14.0907C19.7589 13.9162 19.2998 13.785 18.8348 13.672C18.5372 13.5994 18.2374 13.5373 17.9364 13.4811C17.5985 13.4179 17.2589 13.3634 16.9187 13.3165C16.6838 13.2843 16.449 13.255 16.2135 13.2287C16.1088 13.217 16.004 13.2058 15.8991 13.1953C15.6028 13.1666 15.3059 13.1397 15.009 13.1186C14.8339 13.1057 14.6582 13.0946 14.4831 13.0847C14.3344 13.0765 14.185 13.0688 14.0357 13.0618C13.8009 13.0512 13.5666 13.043 13.3318 13.0378C13.3148 13.0378 13.2979 13.0366 13.2808 13.0366C12.9102 13.0284 12.539 13.0261 12.1682 13.0296H12.1501C11.7682 13.0331 11.3864 13.0418 11.0052 13.0577C10.9823 13.0583 10.9595 13.0601 10.9367 13.0606C10.4852 13.08 10.0349 13.108 9.58452 13.1462C8.92337 13.2018 8.26456 13.2773 7.60928 13.3803C7.59347 13.3827 7.57825 13.3857 7.56244 13.388C7.53725 13.477 7.51442 13.5671 7.48279 13.6544C7.46053 13.7435 7.43829 13.8324 7.41544 13.9209C7.35513 14.1569 7.30066 14.394 7.25323 14.633C7.28661 14.6272 7.31999 14.6218 7.35337 14.616C7.39729 14.6084 7.44121 14.6014 7.48455 14.5937C7.54954 14.5833 7.61455 14.5727 7.67955 14.5622C7.91438 14.5258 8.15037 14.493 8.38579 14.4632C8.62179 14.4332 8.85778 14.4069 9.09437 14.3835C9.2519 14.3677 9.41001 14.353 9.56813 14.3396C9.80705 14.3197 10.0465 14.3027 10.286 14.2875C10.5116 14.2734 10.737 14.2622 10.9625 14.253C11.0205 14.2506 11.0784 14.2476 11.1364 14.2453C11.2225 14.2418 11.3091 14.2394 11.3952 14.2366C11.4508 14.2347 11.5065 14.2336 11.5627 14.2324C11.766 14.2272 11.9691 14.2242 12.1723 14.2225C12.249 14.2225 12.3251 14.2213 12.4018 14.2213C12.5331 14.2213 12.6643 14.2213 12.7948 14.2225C12.8423 14.2225 12.8897 14.223 12.9371 14.2242C12.9881 14.2248 13.039 14.2254 13.0899 14.226C13.2287 14.2283 13.3669 14.2319 13.5058 14.2359C13.6445 14.2401 13.7828 14.2453 13.9215 14.2506C13.9443 14.2512 13.9672 14.253 13.99 14.2535C14.1388 14.26 14.2875 14.2676 14.4357 14.2751C14.5499 14.2816 14.664 14.2887 14.7783 14.2957C14.9493 14.3068 15.1208 14.3191 15.2918 14.3332C15.4494 14.3461 15.6069 14.3607 15.765 14.3765C15.7703 14.3765 15.7762 14.3776 15.7814 14.3783C15.8944 14.3893 16.0075 14.4005 16.1204 14.4122C16.3014 14.4304 16.4824 14.452 16.6634 14.4761C16.8437 14.5 17.024 14.5258 17.2044 14.5528C17.2794 14.5639 17.3543 14.5756 17.4287 14.5873C17.653 14.6236 17.8767 14.6634 18.0992 14.7074C18.2304 14.7332 18.361 14.76 18.4916 14.7882C18.6221 14.8163 18.7522 14.8467 18.8822 14.8784C19.0795 14.927 19.2757 14.9791 19.4695 15.0359C19.7284 15.112 19.9849 15.1975 20.2361 15.2977C20.2994 15.3223 20.3614 15.3486 20.4241 15.3749C20.519 15.4159 20.6121 15.461 20.7046 15.5067C20.7274 15.5178 20.7503 15.529 20.7731 15.5407C20.7907 15.5494 20.8088 15.5583 20.8264 15.567C20.8498 15.5787 20.8733 15.5904 20.8961 15.6033C20.9254 15.6191 20.954 15.6362 20.981 15.6549C21.0853 15.7269 21.1924 15.7948 21.289 15.8768C21.3113 15.8961 21.333 15.9154 21.354 15.936C21.3793 15.9571 21.4032 15.9799 21.426 16.0027C21.4642 16.0408 21.4992 16.0817 21.5303 16.1246C21.5456 16.1456 21.5596 16.1673 21.5731 16.1896C21.5848 16.2088 21.5953 16.2281 21.6052 16.2481C21.6153 16.268 21.6246 16.2884 21.6328 16.3102C21.6416 16.3313 21.6491 16.3529 21.6562 16.3745C21.6609 16.3898 21.6662 16.4056 21.6709 16.4209C21.6832 16.3559 21.6761 16.2902 21.6767 16.2246L21.6784 16.2264Z" fill="#14F46F"/>
<path d="M21.6826 15.1372C21.6831 14.8942 21.6831 14.6517 21.6826 14.4086C21.6826 14.2969 21.6814 14.1845 21.6808 14.0726C21.6615 14.0093 21.648 13.9443 21.6193 13.884C21.5461 13.7323 21.4366 13.6105 21.3101 13.5016C21.1719 13.3822 21.019 13.2832 20.8587 13.1959C20.6262 13.0683 20.3849 12.9593 20.136 12.8673C19.8479 12.7608 19.5556 12.6665 19.2593 12.5857C19.0327 12.5242 18.8049 12.4675 18.5765 12.4153C18.3159 12.3561 18.0542 12.304 17.7912 12.2578C17.5183 12.2104 17.2443 12.1647 16.9696 12.1266C16.8396 12.1084 16.709 12.0915 16.5785 12.075C16.2868 12.0375 15.9946 12.0047 15.7018 11.979C15.6474 11.9737 15.5934 11.9662 15.539 11.962C15.3176 11.9451 15.0963 11.9286 14.8754 11.9129C14.8439 11.9105 14.8122 11.9082 14.7806 11.9058C14.633 11.8953 14.4855 11.8847 14.3379 11.8771C14.1458 11.8677 13.9537 11.8607 13.7617 11.8536H13.7564C13.5555 11.8466 13.3552 11.839 13.1544 11.8355C12.9775 11.8326 12.8006 11.8308 12.6232 11.8303C12.5454 11.8303 12.4675 11.8297 12.389 11.8297C12.0786 11.8297 11.7688 11.8344 11.459 11.8432H11.4456C11.0819 11.8536 10.7177 11.8683 10.3545 11.8918C10.0753 11.9094 9.79592 11.9251 9.51717 11.9486C9.40416 11.9579 9.29172 11.972 9.17928 11.9831C8.78633 12.0223 8.39456 12.068 8.00396 12.1231C7.99928 12.1236 7.99518 12.1243 7.99049 12.1248C7.83413 12.5295 7.69359 12.9394 7.57003 13.3557C7.56711 13.3663 7.56418 13.3763 7.56125 13.3868C7.57647 13.3845 7.59228 13.3815 7.60809 13.3792C8.26339 13.2761 8.9222 13.2 9.58335 13.145C10.0336 13.1075 10.484 13.0788 10.9355 13.0594C10.9583 13.0583 10.9811 13.0571 11.0041 13.0566C11.3853 13.0407 11.767 13.0319 12.1489 13.0284H12.167C12.5383 13.0254 12.909 13.0278 13.2797 13.0355C13.2967 13.0355 13.3137 13.0366 13.3306 13.0366C13.5654 13.0419 13.7997 13.0501 14.0346 13.0606C14.1838 13.0676 14.3326 13.0753 14.482 13.0835C14.657 13.0934 14.8327 13.1045 15.0079 13.1174C15.3047 13.1391 15.6017 13.1654 15.898 13.1941C16.0028 13.2047 16.1075 13.2158 16.2124 13.2276C16.4478 13.2539 16.6827 13.2832 16.9175 13.3154C17.2577 13.3622 17.5974 13.4167 17.9352 13.48C18.2362 13.5361 18.5361 13.5982 18.8335 13.6708C19.2986 13.7838 19.7577 13.915 20.2039 14.0895C20.239 14.1036 20.2753 14.1112 20.3105 14.127C20.5078 14.216 20.7046 14.3051 20.8937 14.4111C21.0314 14.4883 21.159 14.5791 21.2838 14.6757C21.4032 14.7682 21.4987 14.8813 21.5789 15.0077C21.6287 15.0863 21.6562 15.1735 21.6773 15.2631C21.6855 15.2209 21.6808 15.1782 21.6808 15.136L21.6826 15.1372Z" fill="#07903F"/>
<path d="M14.7977 5.95663C14.9593 6.20903 15.0764 6.48193 15.1648 6.7677C15.1923 6.85613 15.2169 6.94514 15.2392 7.03474C15.2761 7.18408 15.3047 7.33574 15.3276 7.488C15.334 7.53251 15.3405 7.57701 15.3464 7.6221C15.3575 7.71171 15.3674 7.8013 15.3756 7.8909C15.3791 7.93599 15.3826 7.98049 15.3861 8.02558C15.4025 8.27037 15.4096 8.51514 15.4032 8.76051C15.3961 9.01701 15.3809 9.2735 15.3551 9.52939C15.3293 9.78352 15.2942 10.0366 15.2521 10.2877C15.2268 10.4389 15.1987 10.5894 15.1683 10.7387C14.9258 10.7193 14.6834 10.7029 14.4404 10.6912C14.3238 10.686 14.2067 10.6796 14.0896 10.6736C14.1687 10.3341 14.2354 9.9921 14.2875 9.64651C14.3449 9.26411 14.386 8.88056 14.4012 8.49464C14.4134 8.16671 14.4116 7.8382 14.3853 7.51026C14.3631 7.23677 14.3262 6.96622 14.2676 6.69802C14.2014 6.39643 14.1083 6.10363 13.9748 5.82429C13.9222 5.71361 13.86 5.60762 13.7979 5.5022C13.849 5.48581 13.9022 5.48406 13.9543 5.47878C13.9818 5.47585 14.0094 5.47351 14.0363 5.47175C14.0597 5.47059 14.0832 5.46942 14.1066 5.46883C14.1446 5.46824 14.1828 5.46824 14.2208 5.46883C14.2471 5.46942 14.2741 5.47059 14.3004 5.47175C14.321 5.47292 14.3414 5.4741 14.3619 5.47585C14.3654 5.47585 14.3689 5.47644 14.3719 5.47702C14.3783 5.4782 14.3841 5.47995 14.39 5.4823C14.3959 5.48464 14.4012 5.48756 14.4064 5.49108C14.4141 5.49577 14.4217 5.5022 14.4287 5.50865C14.4468 5.52505 14.4644 5.54203 14.4814 5.55901C14.5159 5.59298 14.5493 5.62869 14.5809 5.66501C14.6612 5.75577 14.7332 5.8524 14.7994 5.95546L14.7977 5.95663Z" fill="#14F46F"/>
<path d="M21.6843 12.9313L21.6826 12.9301C21.6756 12.7901 21.6223 12.6665 21.5409 12.5541C21.426 12.3943 21.2779 12.2695 21.1175 12.1594C20.844 11.972 20.5447 11.8344 20.2385 11.7114C20.0681 11.6429 19.8953 11.5819 19.7208 11.5258C19.4549 11.4402 19.1849 11.367 18.9139 11.3002C18.5747 11.2171 18.2339 11.1451 17.8907 11.0825C17.6818 11.0444 17.4721 11.0074 17.2618 10.977C17.2554 10.977 17.249 10.9764 17.2426 10.9759C17.239 10.9759 17.2349 10.9753 17.2314 10.9747C17.2238 10.9741 17.2155 10.9729 17.208 10.9723C17.1904 10.97 17.1723 10.9665 17.1552 10.9624C17.0926 10.9525 17.0306 10.9426 16.9678 10.9319C16.9328 10.9269 16.8977 10.9218 16.8625 10.9172C16.9094 10.6868 16.9515 10.4562 16.9872 10.2239C17.0187 10.0155 17.0469 9.80633 17.0686 9.5968C17.089 9.40057 17.1072 9.20447 17.1166 9.00708C17.1213 8.91217 17.1265 8.81671 17.1324 8.72186C17.1329 8.70959 17.1265 8.69317 17.1458 8.68793C17.1458 8.51105 17.1447 8.33362 17.1441 8.15674C17.1347 8.15265 17.1342 8.14447 17.1329 8.13568C17.1307 8.09997 17.1265 8.06482 17.1254 8.02911C17.1183 7.77203 17.0949 7.51666 17.0604 7.26251C17.0223 6.98083 16.9661 6.70325 16.8882 6.42981C16.8688 6.36127 16.8525 6.29217 16.822 6.22717L16.8155 6.20373C16.8155 6.20373 16.8132 6.20202 16.8132 6.2008V6.19848C16.8115 6.19031 16.8103 6.18207 16.8074 6.17389C16.6944 5.84772 16.5468 5.53851 16.3436 5.25738C16.1479 4.98627 15.912 4.75964 15.6209 4.591C15.512 4.52777 15.3937 4.48321 15.2819 4.42645C15.272 4.42114 15.259 4.42236 15.2474 4.41998C15.2374 4.4071 15.2216 4.40362 15.2081 4.39715C14.944 4.28003 14.6804 4.1629 14.4158 4.047C14.3818 4.03174 14.3508 4.00946 14.3127 4.00482C14.3062 4.00244 14.2997 4.00067 14.2934 3.99835C14.2483 3.9837 14.202 3.9732 14.1587 3.9527C14.1545 3.95154 14.1511 3.95032 14.147 3.94861C14.1453 3.948 14.1429 3.94739 14.1411 3.94684H14.1399C14.1352 3.94977 14.1324 3.94739 14.1295 3.9433C14.0446 3.92163 13.9595 3.90527 13.8735 3.89355C13.8114 3.88476 13.7493 3.87829 13.6867 3.87482C13.6656 3.87359 13.6451 3.87305 13.624 3.87243C13.5614 3.87066 13.4993 3.87128 13.4371 3.87421C13.3547 3.87775 13.2726 3.88531 13.1907 3.89648C13.0478 3.91638 12.9061 3.94623 12.7656 3.98486C12.7457 3.99072 12.7251 3.99603 12.7053 4.00244C12.441 4.08093 12.1893 4.18695 11.9462 4.31225C11.8655 4.35382 11.7852 4.39776 11.7055 4.44403C11.633 4.48559 11.5615 4.52832 11.4906 4.57342C11.4672 4.58807 11.4438 4.60327 11.4203 4.61853C11.397 4.63373 11.3735 4.64899 11.3506 4.66479C11.3044 4.6958 11.2588 4.72742 11.2136 4.76025C11.1915 4.77661 11.1685 4.79303 11.1464 4.80945V4.81409C11.1464 4.81531 11.1451 4.81647 11.1446 4.81763C11.1428 4.8194 11.1404 4.81994 11.137 4.81994L11.1364 4.82287C11.1364 4.82525 11.1352 4.82641 11.134 4.82696C11.1329 4.82757 11.1317 4.82757 11.1293 4.82696C11.1287 4.82696 11.1276 4.82696 11.127 4.8258C11.0275 4.89551 10.9308 4.96814 10.8365 5.0437C10.7944 5.07702 10.7528 5.11157 10.7118 5.14612C10.7054 5.15143 10.6989 5.15729 10.6925 5.16254C10.6503 5.19824 10.6082 5.23456 10.5666 5.27148V5.27441C10.5666 5.27734 10.5654 5.27905 10.5637 5.28082C10.5637 5.28082 10.5624 5.28143 10.5619 5.28198C10.5607 5.28259 10.559 5.2832 10.5572 5.2832C10.556 5.28552 10.5543 5.28784 10.5525 5.28961C10.5502 5.29193 10.5483 5.29431 10.5455 5.29608C10.5419 5.2984 10.5379 5.30072 10.5332 5.30133C10.5332 5.30658 10.532 5.30951 10.5297 5.31073C10.5262 5.31305 10.5197 5.31128 10.515 5.31189C10.4992 5.32831 10.4828 5.34466 10.467 5.36047C10.4659 5.36163 10.4652 5.36285 10.4641 5.3634V5.36578C10.4641 5.3681 10.4629 5.36926 10.4617 5.37103C10.4617 5.37103 10.4577 5.3728 10.4541 5.3728C10.4401 5.38452 10.4249 5.39502 10.4114 5.40735C10.4103 5.40851 10.4091 5.40906 10.4078 5.41028C10.3563 5.45886 10.3042 5.50744 10.2532 5.55725C10.2498 5.56073 10.2463 5.56366 10.2433 5.56659C10.2275 5.5824 10.2111 5.59704 10.1947 5.6123C10.1537 5.65039 10.1116 5.68725 10.0723 5.72705C10.0513 5.74872 10.0296 5.77038 10.0085 5.7915C9.88672 5.91504 9.76605 6.03979 9.64953 6.16864C9.50079 6.33319 9.35614 6.50067 9.21557 6.67163C9.19568 6.69623 9.17517 6.72027 9.15527 6.74487C9.15234 6.74835 9.1488 6.7525 9.14648 6.75659C9.14239 6.76245 9.1383 6.76831 9.13415 6.77472C9.1289 6.7829 9.12366 6.79114 9.11835 6.7987C9.11426 6.80456 9.11017 6.80987 9.10547 6.81573C9.1037 6.81744 9.10254 6.81921 9.10138 6.82037C9.09491 6.82745 9.0885 6.83386 9.08087 6.83911C9.08087 6.84088 9.08032 6.84149 9.07971 6.84265C9.07971 6.84381 9.07971 6.84497 9.07855 6.84619C9.07855 6.84674 9.07739 6.84735 9.07678 6.8479C9.07562 6.84851 9.07385 6.84912 9.07269 6.84967C9.06915 6.86609 9.05572 6.87427 9.04455 6.88483C9.044 6.88483 9.04339 6.88598 9.04285 6.8866C9.0393 6.88952 9.03699 6.893 9.03461 6.89654C9.03345 6.89831 9.03229 6.90002 9.03168 6.9024C9.03113 6.90472 9.02997 6.90649 9.02936 6.90881V6.91174C9.02936 6.91467 9.0282 6.91644 9.02582 6.91821C9.02582 6.91821 9.02466 6.91821 9.02466 6.91876H9.01996C8.9942 6.95099 8.96789 6.98321 8.94208 7.01538C8.94092 7.01715 8.93915 7.01892 8.93799 7.02069C8.9386 7.02478 8.9386 7.02826 8.93799 7.0318C8.93799 7.03473 8.93622 7.0365 8.93506 7.03882C8.93506 7.03943 8.9339 7.04059 8.9339 7.0412C8.93213 7.04291 8.92981 7.04529 8.92743 7.04645C8.9245 7.04822 8.92102 7.04938 8.91748 7.05054C8.91339 7.05524 8.9093 7.05932 8.90521 7.06402C8.90344 7.06579 8.90228 7.0675 8.90112 7.06872C8.89758 7.0722 8.89465 7.07629 8.89172 7.07983C8.82556 7.16882 8.7594 7.25842 8.69324 7.34741C8.69324 7.35034 8.69201 7.35211 8.69031 7.35388C8.69031 7.35388 8.6897 7.35449 8.68909 7.35504C8.68793 7.3562 8.68622 7.35681 8.68445 7.35681C8.63873 7.42126 8.59192 7.48504 8.54681 7.55005C8.53802 7.56293 8.52923 7.5758 8.52045 7.58874C8.45312 7.68768 8.38989 7.78955 8.32196 7.88794C8.28796 7.93713 8.25574 7.98749 8.22357 8.03729C8.19079 8.0871 8.15796 8.13684 8.12225 8.18542C8.06543 8.2633 8.01684 8.34827 7.96704 8.43085C7.94543 8.46655 7.9237 8.50226 7.90265 8.53796C7.66199 8.93738 7.42828 9.34082 7.22919 9.76312C7.21747 9.78766 7.20404 9.81048 7.19055 9.83386C7.17706 9.85675 7.16302 9.88025 7.1513 9.90362C7.08337 10.04 7.01721 10.1771 6.95282 10.3153C6.92877 10.3669 6.90533 10.4183 6.88135 10.4705C6.85034 10.5378 6.81988 10.6058 6.78998 10.6736C6.75195 10.7598 6.71387 10.8465 6.67639 10.9337C6.66058 10.97 6.64532 11.0069 6.63013 11.0438C6.61078 11.0895 6.59149 11.1351 6.57275 11.1814C6.50598 11.3436 6.44159 11.5076 6.3789 11.6716C6.36078 11.7196 6.34259 11.7676 6.32501 11.8162C6.28229 11.9333 6.24072 12.0504 6.19909 12.1682L6.16925 12.2524C6.16162 12.2742 6.15405 12.2964 6.14697 12.3187C6.12768 12.3743 6.1095 12.4305 6.09198 12.4867C6.07031 12.5553 6.04919 12.6238 6.02814 12.6923C6.01288 12.7415 5.99768 12.7901 5.98187 12.8393C5.94617 12.9487 5.90454 13.0571 5.8905 13.1725C5.88995 13.1783 5.88287 13.1837 5.87939 13.1889C5.86182 13.2369 5.85126 13.2861 5.83954 13.3353C5.83368 13.3587 5.82666 13.3822 5.81964 13.4056C5.81262 13.429 5.8056 13.4525 5.79913 13.4758C5.77222 13.5765 5.74585 13.6778 5.72125 13.7792C5.69842 13.8705 5.67676 13.9631 5.6557 14.055C5.63226 14.1587 5.60998 14.2623 5.58832 14.3659C5.56958 14.4567 5.55145 14.5481 5.53448 14.6394C5.52099 14.7121 5.50751 14.7841 5.49524 14.8567C5.48407 14.9205 5.47412 14.9843 5.46362 15.0482C5.45074 15.1295 5.43841 15.2104 5.42731 15.2918C5.41736 15.365 5.40796 15.4376 5.39862 15.5109C5.37402 15.7117 5.35406 15.9125 5.33826 16.1146C5.33417 16.1725 5.33008 16.2299 5.32715 16.2879C5.32361 16.3459 5.32074 16.4033 5.31836 16.4613C5.31366 16.5765 5.31018 16.6926 5.30664 16.808C5.30609 16.8343 5.30609 16.8607 5.30548 16.887V16.911C5.30487 17.0591 5.31073 17.2068 5.31543 17.3537C5.31543 17.3602 5.31659 17.3672 5.31659 17.3736C5.31781 17.4 5.31897 17.4264 5.32074 17.4527C5.32599 17.5592 5.33478 17.6659 5.34588 17.7724C5.35351 17.8444 5.36169 17.9171 5.37109 17.9891C5.37225 17.9996 5.37402 18.0096 5.37518 18.0201C5.39508 18.1665 5.41791 18.3124 5.44659 18.457C5.49994 18.7275 5.57074 18.9933 5.66797 19.2516C5.66974 19.2558 5.67151 19.2605 5.67322 19.2651C5.74585 19.4561 5.8302 19.6417 5.93384 19.8185C6.10425 20.1096 6.31213 20.3673 6.57739 20.5728C6.60907 20.5974 6.64123 20.6208 6.67407 20.6443C6.70569 20.6659 6.73962 20.6858 6.77246 20.7057C6.77832 20.7098 6.78534 20.7128 6.79175 20.7157C6.79645 20.718 6.80115 20.7197 6.80578 20.7222C6.81402 20.7262 6.82159 20.7314 6.8269 20.7391C6.82867 20.7415 6.83038 20.745 6.83215 20.7485V20.7473C6.84094 20.7461 6.84857 20.7479 6.85266 20.7572C6.86084 20.7572 6.86908 20.7596 6.87317 20.7671C6.87549 20.7671 6.87726 20.7671 6.87903 20.7678C6.88434 20.7689 6.88952 20.7713 6.89306 20.7765L6.89831 20.7772C6.89953 20.7772 6.90008 20.7778 6.90185 20.7778C6.9024 20.7778 6.90362 20.7778 6.90417 20.7783C6.90533 20.7783 6.90655 20.7795 6.90771 20.7801C6.90771 20.7801 6.90887 20.7801 6.90948 20.7807C6.91064 20.7818 6.9118 20.783 6.91296 20.7842C6.92407 20.7959 6.93988 20.7988 6.95398 20.8053C7.24615 20.9347 7.539 21.0641 7.83124 21.1935C7.97583 21.2574 8.11932 21.3247 8.27215 21.3669C8.42499 21.4091 8.5802 21.4377 8.73889 21.4442H9.05511C9.13183 21.4418 9.20795 21.4319 9.28351 21.4202C9.59094 21.3739 9.88605 21.2831 10.1713 21.1607C10.6937 20.9364 11.165 20.6302 11.6072 20.2758C11.7044 20.1981 11.7993 20.1177 11.8936 20.0363C12.2221 20.0422 12.55 20.044 12.8785 20.0405C13.1912 20.037 13.5046 20.0316 13.8173 20.0194C13.8325 20.0106 13.8489 20.0106 13.8654 20.017H13.8793C13.8981 20.0082 13.9175 20.0088 13.9367 20.0147H13.9508C13.9619 20.0077 13.9736 20.0065 13.9853 20.0088H13.9871C13.9912 20.01 13.9947 20.0112 13.9982 20.0124H14.0123C14.0198 20.0077 14.0275 20.006 14.0352 20.0053C14.0433 20.0053 14.0515 20.0071 14.0602 20.0095H14.0743C14.0796 20.0065 14.0848 20.0048 14.0902 20.0035C14.1007 20.0013 14.1118 20.0024 14.123 20.0065H14.1364C14.1364 20.0065 14.1376 20.0065 14.1382 20.006C14.1534 19.9984 14.1692 19.9984 14.1845 20.0042H14.1979C14.2137 19.9941 14.2295 19.9954 14.2465 20.0013H14.26C14.2758 19.9919 14.2922 19.9931 14.3086 19.9984H14.322C14.3256 19.9959 14.3285 19.9948 14.3314 19.9937C14.3367 19.9919 14.3414 19.9919 14.3466 19.9919C14.3513 19.9919 14.3566 19.9931 14.3613 19.9954C14.4327 19.9919 14.5037 19.9896 14.5751 19.9854C15.122 19.9532 15.6672 19.9099 16.2118 19.8496C17.0386 19.7576 17.8603 19.634 18.6719 19.449C19.2248 19.3231 19.77 19.172 20.2971 18.9595C20.5798 18.8452 20.8545 18.7147 21.1086 18.5436C21.2615 18.4406 21.4032 18.3247 21.5168 18.1765C21.5883 18.0823 21.6463 17.9808 21.6685 17.8627C21.6773 17.8533 21.6808 17.8421 21.6814 17.8304C21.6866 17.7455 21.6896 17.6612 21.6819 17.5763L21.6773 17.5768C21.6779 17.5616 21.6791 17.5463 21.6791 17.5311C21.6791 17.2805 21.6796 17.0294 21.6796 16.7787C21.6796 16.6703 21.6779 16.5619 21.6773 16.4537C21.6773 16.4472 21.6802 16.4402 21.6796 16.4338C21.6779 16.4296 21.6756 16.4266 21.6737 16.4232C21.669 16.4073 21.6632 16.3916 21.6585 16.3757C21.6515 16.3535 21.6434 16.3318 21.6351 16.3113C21.627 16.2902 21.6176 16.2698 21.6076 16.2492C21.5977 16.2294 21.5865 16.2095 21.5754 16.1907C21.5619 16.1685 21.5478 16.1467 21.5327 16.1257C21.5016 16.0824 21.467 16.0419 21.4285 16.004C21.4056 15.981 21.3816 15.9588 21.3563 15.9372C21.3353 15.9161 21.3136 15.8967 21.2914 15.878C21.1948 15.796 21.0875 15.7281 20.9833 15.6561C20.9558 15.6373 20.9272 15.6204 20.8984 15.6045C20.8756 15.5922 20.8522 15.5799 20.8287 15.5682C20.8112 15.5594 20.793 15.5506 20.7754 15.5419C20.7526 15.5301 20.7297 15.519 20.7069 15.5079C20.6144 15.4622 20.5212 15.4171 20.4265 15.3762C20.3637 15.3498 20.3016 15.3234 20.2385 15.2988C19.9867 15.1993 19.7308 15.1132 19.4719 15.037C19.2775 14.9796 19.0814 14.9275 18.8846 14.8796C18.7546 14.8479 18.6245 14.8175 18.494 14.7893C18.3633 14.7612 18.2327 14.7343 18.1016 14.7086C17.8784 14.6647 17.6548 14.6242 17.431 14.5885C17.3561 14.5768 17.2817 14.565 17.2068 14.554C17.0264 14.527 16.8466 14.5012 16.6656 14.4772C16.4852 14.4532 16.3043 14.4315 16.1229 14.4133C16.0098 14.4022 15.8968 14.3905 15.7837 14.3794C15.7784 14.3794 15.7726 14.3783 15.7673 14.3776C15.6097 14.3619 15.4523 14.3472 15.2941 14.3343C15.1231 14.3202 14.9516 14.3086 14.7806 14.2969C14.6664 14.2892 14.5522 14.2822 14.438 14.2764C14.2892 14.2681 14.1406 14.2605 13.9924 14.2547C13.9696 14.2535 13.9467 14.2523 13.9238 14.2518C13.785 14.2458 13.6468 14.2411 13.5081 14.2371C13.3693 14.233 13.2311 14.2295 13.0923 14.2272C13.0413 14.2265 12.9904 14.226 12.9395 14.2254C12.892 14.2248 12.8445 14.2242 12.7971 14.2237C12.666 14.2225 12.5348 14.2219 12.4042 14.2225C12.3275 14.2225 12.2507 14.223 12.1747 14.2237C11.9714 14.2254 11.7682 14.2284 11.565 14.2336C11.5094 14.2347 11.4538 14.2366 11.3975 14.2377C11.3114 14.24 11.2248 14.243 11.1387 14.2465C11.0808 14.2488 11.0228 14.2518 10.9648 14.254C10.7394 14.2634 10.5139 14.2751 10.2885 14.2887C10.0489 14.3039 9.80932 14.3202 9.57043 14.3408C9.41235 14.3542 9.25421 14.3689 9.09668 14.3847C8.86011 14.4081 8.62408 14.4344 8.38812 14.4644C8.1521 14.4942 7.91669 14.527 7.68188 14.5632C7.61688 14.5732 7.55188 14.5838 7.48688 14.595C7.44293 14.6019 7.3996 14.6096 7.35571 14.6171C7.32232 14.623 7.28894 14.6282 7.25555 14.6342C7.30298 14.3952 7.35748 14.158 7.41778 13.922C7.44061 13.8331 7.46283 13.7446 7.48511 13.6556C7.51672 13.5684 7.53955 13.4782 7.56476 13.3892C7.56769 13.3785 7.57062 13.3687 7.57355 13.3582C7.69708 12.9418 7.83764 12.5312 7.99402 12.1271C7.9942 12.1267 7.99438 12.1262 7.99457 12.1258C7.99859 12.1252 8.00226 12.1248 8.00635 12.1243C8.39691 12.0692 8.78924 12.0236 9.18164 11.9843C9.29407 11.9731 9.40649 11.9597 9.51953 11.9497C9.79828 11.9263 10.0776 11.9105 10.3569 11.893C10.72 11.8695 11.0837 11.8549 11.4479 11.8444H11.4614C11.7712 11.8355 12.0809 11.8315 12.3914 11.8308C12.4692 11.8308 12.5471 11.8308 12.6256 11.8315C12.8025 11.832 12.9799 11.8337 13.1567 11.8367C13.3576 11.8402 13.5579 11.8478 13.7587 11.8549H13.764C13.9561 11.8618 14.1482 11.869 14.3403 11.8784C14.4878 11.8853 14.6354 11.8958 14.783 11.907C14.8146 11.9094 14.8462 11.9117 14.8779 11.9139C15.0992 11.9298 15.32 11.9462 15.5414 11.9633C15.5958 11.9673 15.6497 11.9749 15.7042 11.9802C15.997 12.006 16.2891 12.0388 16.5807 12.0762C16.7114 12.0926 16.8413 12.1102 16.972 12.1277C17.2466 12.1658 17.5207 12.2115 17.7935 12.2589C18.0565 12.3052 18.3188 12.3573 18.5789 12.4164C18.8079 12.4686 19.0357 12.5254 19.2617 12.5869C19.5586 12.6677 19.8502 12.762 20.1383 12.8685C20.3872 12.9611 20.6279 13.07 20.861 13.1971C21.0214 13.2849 21.1736 13.3832 21.3125 13.5028C21.4384 13.6111 21.5485 13.7329 21.6217 13.8852C21.651 13.9455 21.6644 14.0105 21.6831 14.0738C21.6838 13.9478 21.685 13.822 21.6855 13.696V13.135C21.6855 13.0671 21.6878 12.9985 21.6843 12.9313ZM13.6001 18.1642C13.6129 18.1484 13.6257 18.1326 13.6381 18.1161C13.8272 17.8614 14.0088 17.602 14.1833 17.3379C14.1927 17.3232 14.2413 17.2495 14.2559 17.2266C14.3666 17.0562 14.4737 16.884 14.5786 16.7095C14.7496 16.4238 14.9129 16.1338 15.0682 15.84C15.3645 15.8657 15.6602 15.8956 15.9559 15.9318C15.9775 15.9342 15.9993 15.9389 16.0215 15.9424C16.1539 15.9518 16.285 15.9717 16.4156 15.991C16.5837 16.0156 16.7518 16.0425 16.9192 16.0707C17.1453 16.1087 17.3713 16.1509 17.5956 16.1995C17.7168 16.2258 17.8375 16.2527 17.9587 16.2792C17.9598 16.2792 17.9615 16.2792 17.9628 16.2797C17.964 16.2797 17.9651 16.2797 17.9669 16.2803C17.9744 16.2814 17.9833 16.2814 17.9915 16.2827C18.002 16.2839 18.0126 16.2867 18.0208 16.2955C18.2796 16.3616 18.5379 16.4313 18.7914 16.5151C18.8149 16.5227 18.8417 16.5251 18.8599 16.545C18.9261 16.5567 18.9864 16.5842 19.0485 16.6071C19.103 16.627 19.1574 16.648 19.2112 16.6697C19.3653 16.7306 19.5164 16.7979 19.6628 16.8758C19.7207 16.9063 19.7775 16.9385 19.8338 16.9725C19.9082 17.0175 19.9808 17.0651 20.0487 17.1194C20.0686 17.1353 20.0745 17.1418 20.0668 17.1511L20.0681 17.1505C20.0646 17.1552 20.0587 17.1599 20.0493 17.1669C20.037 17.1763 20.0247 17.1862 20.0118 17.1949C19.9996 17.2043 19.9867 17.2132 19.9738 17.2225C19.9497 17.2396 19.9252 17.2559 19.9 17.2718C19.8971 17.2735 19.8941 17.2753 19.8912 17.2776C19.8707 17.2905 19.8502 17.3033 19.8291 17.3157C19.7981 17.3344 19.7676 17.352 19.736 17.3696C19.5217 17.489 19.2963 17.585 19.066 17.6699C18.8489 17.7496 18.6286 17.8193 18.4067 17.8813C18.0887 17.9704 17.7667 18.0441 17.4416 18.1086C17.126 18.1719 16.8091 18.225 16.4911 18.2714C16.1732 18.3176 15.8539 18.3563 15.5343 18.3896C15.4295 18.4008 15.3246 18.4107 15.2198 18.4207C15.0096 18.4399 14.7993 18.4564 14.589 18.4705C14.4836 18.4774 14.3783 18.4839 14.2734 18.4898C14.0374 18.5032 13.8015 18.5132 13.5654 18.5208C13.5227 18.522 13.48 18.5237 13.4366 18.525C13.3974 18.5261 13.3582 18.5273 13.3183 18.5284C13.415 18.4089 13.5116 18.29 13.6001 18.1642ZM10.6058 15.7866C10.7305 15.779 10.8553 15.772 10.9794 15.7661C11.298 15.7509 11.6166 15.741 11.9352 15.735C12.1097 15.7316 12.2842 15.7298 12.4586 15.7298C12.7075 15.7298 12.9564 15.7328 13.2048 15.7386C13.1509 15.8282 13.0964 15.9178 13.0408 16.0062C13.0004 16.0712 12.9593 16.1356 12.9177 16.1995C12.8434 16.3137 12.7678 16.4266 12.6906 16.5391C12.5477 16.7465 12.3995 16.9497 12.2455 17.1487C12.1968 17.212 12.1477 17.2746 12.0973 17.3368C12.0886 17.3478 12.0797 17.3589 12.071 17.3696C11.9984 17.4597 11.9246 17.5481 11.8491 17.6354C11.7231 17.7812 11.5937 17.9235 11.4608 18.0629C11.4203 18.1051 11.3799 18.1472 11.339 18.1888C11.2335 18.2954 11.1247 18.3997 11.0134 18.5009C10.9952 18.5173 10.9771 18.5342 10.959 18.5507C10.9344 18.5723 10.9103 18.594 10.8857 18.6157C10.713 18.7674 10.5349 18.9109 10.3493 19.0449C10.1637 19.1785 9.97107 19.3025 9.76959 19.4133C9.74084 19.4291 9.71161 19.4449 9.68231 19.4601C9.61499 19.4953 9.547 19.5286 9.47851 19.5609C9.40997 19.5925 9.34033 19.6218 9.27002 19.6492C9.12951 19.7043 8.98541 19.75 8.83667 19.7852C8.77228 19.8004 8.70782 19.8132 8.64343 19.8232C8.6206 19.8268 8.59778 19.8303 8.5755 19.8338C8.48767 19.8455 8.39984 19.8525 8.3114 19.8549C8.2821 19.8554 8.25226 19.856 8.22296 19.8554C8.19311 19.8554 8.16382 19.8542 8.13397 19.8531C8.12109 19.8525 8.10876 19.8507 8.09588 19.8496C8.08362 19.8484 8.07074 19.8467 8.05786 19.8455C8.04144 19.8442 8.02917 19.8373 8.01684 19.8268C7.98169 19.7951 7.9483 19.7623 7.91553 19.7283C7.86694 19.678 7.82068 19.6253 7.77734 19.5708C7.74866 19.5345 7.72052 19.4971 7.6936 19.4584C7.68011 19.439 7.66723 19.4197 7.65436 19.4004C7.6532 19.3986 7.65259 19.3968 7.65204 19.3951C7.65143 19.3921 7.65027 19.3887 7.64966 19.3858C7.64441 19.3805 7.63739 19.3752 7.6333 19.3693L7.63208 19.3682C7.57178 19.2728 7.51733 19.1744 7.46814 19.073C7.44354 19.0221 7.4201 18.9717 7.39844 18.9196C7.37616 18.868 7.35571 18.8154 7.33636 18.7621C7.33417 18.7559 7.33453 18.7496 7.33356 18.743C7.47088 18.6852 7.60657 18.6219 7.7381 18.5507C7.92023 18.4523 8.09534 18.3434 8.26452 18.2263C8.3161 18.1911 8.36645 18.1548 8.41681 18.1173C8.71838 17.8948 8.9989 17.6471 9.26654 17.3853C9.33386 17.3198 9.39886 17.2524 9.46387 17.1844C9.55523 17.0884 9.64422 16.9907 9.73266 16.8922C9.88788 16.7184 10.0366 16.5391 10.1813 16.3564C10.3282 16.1702 10.4694 15.9799 10.6058 15.7866ZM7.7381 16.1239C8.13745 16.0484 8.53918 15.9869 8.94208 15.9372C8.94855 15.9365 8.95495 15.9353 8.96142 15.9348C8.96905 15.9336 8.97662 15.933 8.98425 15.9336C8.98895 15.9336 8.99365 15.9348 8.99829 15.936C9.0603 15.9227 9.12353 15.9157 9.1867 15.9093C8.89886 16.2756 8.59167 16.6249 8.25812 16.952C8.237 16.9731 8.21533 16.9936 8.19427 17.014C7.95007 17.25 7.6936 17.472 7.4201 17.6746C7.3208 17.7482 7.22143 17.8218 7.11389 17.8844C7.11389 17.8842 7.11389 17.8846 7.11389 17.8844C7.09399 17.7983 7.08514 17.7098 7.07519 17.6219C7.0412 17.342 7.02832 17.0609 7.02777 16.7798C7.02777 16.6738 7.02893 16.5673 7.03186 16.4606C7.03363 16.3974 7.03656 16.3348 7.04004 16.272C7.27136 16.2171 7.50445 16.1685 7.7381 16.1239ZM12.3141 8.61761C12.2631 8.9848 12.1957 9.349 12.1137 9.711C12.0429 10.0249 11.961 10.3358 11.8695 10.6438C11.6488 10.6461 11.4275 10.6532 11.2067 10.6602C10.9127 10.6702 10.6187 10.6836 10.3254 10.7024C10.0665 10.7187 9.80707 10.7358 9.54822 10.758C9.21271 10.7872 8.87774 10.8199 8.544 10.861C8.80926 10.3127 9.10339 9.7796 9.42993 9.2641C9.73498 8.78039 10.0671 8.31665 10.4307 7.87506C10.4384 7.86627 10.4442 7.85577 10.4512 7.84637C10.5607 7.72107 10.6685 7.5946 10.7803 7.47101C11.1446 7.0675 11.5369 6.69391 11.9714 6.36658C12.0787 6.28577 12.1893 6.20959 12.2988 6.13171C12.3083 6.125 12.3201 6.12402 12.3312 6.12335C12.3848 6.46301 12.4102 6.80414 12.413 7.14776C12.4177 7.64026 12.3814 8.12982 12.3141 8.61761ZM15.3586 9.53113C15.3328 9.7854 15.2977 10.0383 15.2556 10.2895C15.2303 10.4406 15.2023 10.591 15.1718 10.7402C15.1707 10.7401 15.1694 10.7399 15.1683 10.7399C14.9258 10.7205 14.6833 10.7042 14.4404 10.6924C14.3238 10.6872 14.2068 10.6807 14.0897 10.6749C14.0012 10.6708 13.9122 10.6661 13.8237 10.6626C13.6212 10.655 13.4191 10.6503 13.2165 10.6461C13.141 10.6443 13.0654 10.6432 12.9904 10.6421C12.9904 10.6421 13.1291 10.0834 13.1849 9.80108C13.227 9.58972 13.2633 9.3772 13.2956 9.164C13.3166 9.02112 13.3353 8.87823 13.3517 8.73474C13.3688 8.58484 13.3822 8.43432 13.3916 8.28326C13.4015 8.12219 13.408 7.96057 13.4115 7.79956C13.4155 7.58343 13.4085 7.36792 13.3927 7.15246C13.3822 7.01013 13.3688 6.86841 13.3505 6.72668C13.3259 6.5329 13.2909 6.34137 13.2446 6.15167C13.2079 6.00061 13.1657 5.85016 13.1098 5.70441C13.1102 5.70434 13.1106 5.70422 13.111 5.70422C13.1497 5.67962 13.1942 5.66736 13.2369 5.65155C13.3237 5.61932 13.4108 5.59118 13.4999 5.56659C13.5889 5.5426 13.6785 5.52209 13.7698 5.5069C13.7763 5.50574 13.7821 5.50397 13.7885 5.50397C13.7927 5.50397 13.7962 5.50397 13.7997 5.50513C13.8507 5.48871 13.9039 5.487 13.9561 5.48169C13.9836 5.47876 14.0111 5.47644 14.0381 5.47467C14.0615 5.47351 14.0848 5.47235 14.1083 5.47174C14.1464 5.47119 14.1845 5.47119 14.2225 5.47174C14.2488 5.47235 14.2758 5.47351 14.3022 5.47467C14.3227 5.47583 14.3431 5.47705 14.3636 5.47876C14.3672 5.47876 14.3707 5.47937 14.3736 5.47998C14.3801 5.48114 14.3859 5.48285 14.3918 5.48523C14.3976 5.48755 14.4029 5.49048 14.4081 5.49402C14.4158 5.49872 14.4233 5.50513 14.4304 5.5116C14.4485 5.52795 14.4662 5.54492 14.4831 5.56195C14.5176 5.59588 14.551 5.63159 14.5826 5.66791C14.663 5.75867 14.7349 5.85535 14.8011 5.95837C14.9628 6.21075 15.0799 6.4837 15.1683 6.76947C15.1958 6.85785 15.2204 6.9469 15.2427 7.0365C15.2795 7.18579 15.3082 7.33746 15.3311 7.48974C15.3375 7.53424 15.3439 7.57873 15.3499 7.62384C15.361 7.71344 15.3709 7.80304 15.3791 7.89264C15.3826 7.93774 15.3861 7.98224 15.3896 8.02734C15.406 8.27209 15.4131 8.51691 15.4067 8.76227C15.3995 9.0188 15.3844 9.27527 15.3586 9.53113ZM16.8207 10.9114C16.8194 10.9112 16.8181 10.911 16.8168 10.9108C16.6721 10.8932 16.5269 10.8763 16.3822 10.8575C16.34 10.8523 16.2978 10.8488 16.2558 10.8441C16.2147 10.8401 16.1737 10.8348 16.1332 10.827C16.1309 10.8241 16.1286 10.8217 16.1257 10.8195C16.3588 10.8483 16.5925 10.8763 16.8255 10.9051C16.8245 10.9071 16.8228 10.9092 16.8207 10.9114Z" fill="#031116"/>
<path d="M14.1528 3.93043C13.8636 3.80161 13.5736 3.67336 13.2844 3.54394C13.2727 3.53866 13.2609 3.54276 13.2504 3.53633C13.2405 3.53866 13.2299 3.54101 13.2259 3.52812C13.2142 3.5334 13.203 3.52812 13.1919 3.52402C12.9383 3.44789 12.6789 3.42447 12.4147 3.43794C12.0652 3.4561 11.7302 3.54159 11.4046 3.6675C11.3022 3.70674 11.2014 3.75007 11.103 3.79633C11.0784 3.80804 11.0538 3.81975 11.0292 3.83206C11.0005 3.84611 10.9719 3.86017 10.9437 3.87539C10.9057 3.89472 10.8682 3.91462 10.8302 3.93512C10.6327 4.04287 10.4413 4.16292 10.2557 4.29175C10.217 4.31869 10.1783 4.34564 10.1403 4.37316L10.1175 4.38955C10.0261 4.45632 9.93653 4.52424 9.84868 4.59452C9.62845 4.76962 9.41705 4.95583 9.21267 5.15084C8.64522 5.69253 8.14102 6.29043 7.67956 6.92406C7.66785 6.94046 7.65614 6.95744 7.64443 6.97384C7.64443 6.97384 7.64326 6.97794 7.64209 6.97911C7.64092 6.98028 7.63916 6.98087 7.63682 6.98144C7.59524 7.0406 7.55424 7.09916 7.51267 7.1583C7.44357 7.25669 7.37564 7.35506 7.30887 7.4552C7.24563 7.55007 7.18297 7.64611 7.12148 7.74216C7.07229 7.81828 7.02427 7.895 6.97684 7.9723C6.93467 8.04139 6.89251 8.10991 6.85094 8.17902C6.79237 8.27681 6.7344 8.37518 6.67701 8.47473C6.64832 8.52451 6.6202 8.5737 6.59209 8.62407C6.58916 8.62993 6.58507 8.63519 6.58155 8.64105C6.58155 8.64749 6.57921 8.65276 6.57687 8.65803C6.57452 8.66155 6.57219 8.66564 6.57043 8.66916C6.54407 8.716 6.51831 8.76344 6.49254 8.81087C6.39533 8.98832 6.30046 9.16752 6.20911 9.34791C6.17045 9.42395 6.1324 9.50076 6.09491 9.57746C5.89229 9.9921 5.70431 10.4131 5.53156 10.8401C5.43962 11.0667 5.35237 11.295 5.26921 11.5246C5.22529 11.6464 5.18195 11.7687 5.14037 11.8918C5.06366 12.1189 4.99339 12.3479 4.92487 12.5775C4.89676 12.6718 4.86924 12.7666 4.84288 12.8616C4.8423 12.8638 4.84172 12.8663 4.84113 12.8685C4.79955 13.0172 4.7609 13.1666 4.72459 13.3165C4.69121 13.4512 4.659 13.5865 4.62914 13.7224C4.60337 13.8383 4.57994 13.9548 4.55653 14.0714C4.55125 14.0989 4.54599 14.1264 4.54071 14.1545C4.53837 14.1657 4.53661 14.1768 4.53427 14.188C4.53368 14.192 4.53251 14.1961 4.53192 14.2008C4.52783 14.223 4.52314 14.2448 4.51904 14.2669C4.48566 14.4491 4.4558 14.6318 4.43003 14.8156C4.40486 14.9931 4.3826 15.17 4.36386 15.3481C4.35975 15.3878 4.35625 15.4276 4.35215 15.4675C4.35215 15.4704 4.35156 15.4734 4.35156 15.4762C4.34863 15.5067 4.34687 15.5283 4.34453 15.5501C4.33634 15.649 4.3293 15.7486 4.32345 15.8475C4.31759 15.9471 4.31292 16.0467 4.30999 16.1462C4.30999 16.1591 4.30999 16.172 4.30881 16.1849C4.30295 16.3763 4.30178 16.5673 4.30764 16.7581C4.31349 16.9385 4.32345 17.1183 4.34044 17.2981C4.35683 17.4773 4.37967 17.6559 4.41071 17.8345C4.42593 17.9218 4.44233 18.0084 4.46107 18.0945C4.52314 18.385 4.60689 18.6695 4.72166 18.9448C4.72987 18.9641 4.73747 18.9829 4.74626 19.0022C4.75446 19.0209 4.76325 19.0402 4.77144 19.059C4.79135 19.1035 4.81243 19.1474 4.8341 19.1908C4.87041 19.2633 4.90906 19.3342 4.95006 19.4033C5.06248 19.5931 5.19484 19.7693 5.35178 19.9286C5.39277 19.9708 5.43551 20.0106 5.47944 20.0487C5.56201 20.1207 5.64986 20.1869 5.74355 20.246C5.76112 20.2572 5.78161 20.2636 5.79449 20.2805C5.79625 20.2829 5.79801 20.2859 5.79918 20.2887C5.80797 20.287 5.81441 20.2887 5.81675 20.2981C5.85306 20.307 5.88234 20.3316 5.91572 20.3462C6.09374 20.4252 6.27118 20.5043 6.4492 20.5833C6.55052 20.6284 6.65241 20.6723 6.75431 20.7168L6.76719 20.7051C6.7344 20.6847 6.70043 20.6653 6.66881 20.6436C6.63542 20.6208 6.6038 20.5968 6.57218 20.5723C6.3069 20.3661 6.09901 20.109 5.9286 19.8179C5.82494 19.641 5.74062 19.4554 5.668 19.2645C5.66625 19.2598 5.66449 19.2558 5.66274 19.2511C5.56552 18.9928 5.49467 18.727 5.44138 18.4564C5.41268 18.3118 5.38984 18.1659 5.36994 18.0195C5.36876 18.009 5.36701 17.999 5.36583 17.9885C5.35647 17.9165 5.34826 17.8438 5.34066 17.7718C5.32952 17.6652 5.32133 17.5592 5.31547 17.452C5.3143 17.4257 5.31254 17.3994 5.31137 17.3731C5.31137 17.3666 5.31078 17.3596 5.31019 17.3532C5.30493 17.2056 5.29966 17.058 5.30024 16.9105V16.8864C5.30024 16.8601 5.30024 16.8336 5.30142 16.8073C5.30493 16.6914 5.30845 16.576 5.31313 16.4606C5.31547 16.4027 5.3184 16.3453 5.32191 16.2874C5.32542 16.2293 5.32894 16.172 5.33304 16.114C5.34826 15.9119 5.36876 15.7111 5.39335 15.5102C5.40214 15.437 5.41151 15.3644 5.42205 15.2912C5.43318 15.2098 5.44548 15.1284 5.45836 15.0476C5.46831 14.9838 5.47886 14.9199 5.48998 14.8561C5.50228 14.7835 5.51574 14.7114 5.52921 14.6389C5.5462 14.5475 5.56435 14.4567 5.58309 14.3654C5.60475 14.2617 5.62701 14.1575 5.65044 14.0544C5.67152 13.9624 5.69319 13.8706 5.71602 13.7786C5.74121 13.6773 5.76697 13.576 5.79391 13.4753C5.80035 13.4518 5.80738 13.4284 5.81441 13.405C5.82144 13.3815 5.82846 13.3581 5.83432 13.3346C5.84662 13.2855 5.85657 13.2363 5.87414 13.1882C5.87824 13.183 5.88468 13.1777 5.88527 13.1718C5.89932 13.0559 5.9409 12.9476 5.97662 12.8387C5.99244 12.7901 6.00766 12.7409 6.02289 12.6917C6.04396 12.6231 6.06505 12.5546 6.08672 12.4861C6.10429 12.4299 6.12243 12.3737 6.14176 12.3181C6.14938 12.2964 6.1564 12.2742 6.16402 12.2519C6.17397 12.2238 6.18392 12.1957 6.19388 12.1675C6.23604 12.0504 6.27703 11.9327 6.31979 11.8156C6.33736 11.7677 6.3555 11.719 6.37366 11.671C6.43632 11.5064 6.50074 11.3431 6.5675 11.1808C6.58624 11.1346 6.60556 11.0888 6.62489 11.0432C6.6407 11.0063 6.65592 10.97 6.67115 10.9331C6.70863 10.8465 6.74669 10.7597 6.78476 10.6731C6.81463 10.6051 6.84508 10.5378 6.87611 10.4699C6.89953 10.4178 6.92355 10.3669 6.94755 10.3147C7.01197 10.1765 7.07756 10.0395 7.14608 9.90305C7.15779 9.87901 7.17184 9.85618 7.18531 9.83334C7.19878 9.81051 7.21225 9.78713 7.22397 9.76243C7.42307 9.34026 7.65673 8.93678 7.89741 8.5374C7.91908 8.50168 7.94016 8.46595 7.96183 8.43022C8.01219 8.34709 8.06021 8.26275 8.11701 8.18487C8.15273 8.13626 8.18552 8.08708 8.21831 8.03672C8.25111 7.98694 8.28331 7.93657 8.31669 7.88738C8.38462 7.789 8.44787 7.6871 8.51522 7.58813C8.524 7.57525 8.53278 7.56237 8.54157 7.54949C8.58666 7.48448 8.63351 7.42065 8.67918 7.35623V7.35273C8.67918 7.35273 8.6827 7.34921 8.68446 7.34804C8.68563 7.34804 8.6868 7.34687 8.68797 7.34687C8.75414 7.25786 8.82032 7.16825 8.88649 7.07924C8.88942 7.07514 8.89293 7.07164 8.89586 7.06812C8.89762 7.06636 8.89879 7.0646 8.89996 7.06343C8.90406 7.05874 8.90815 7.05465 8.91225 7.04996V7.0441C8.91225 7.04236 8.91225 7.0406 8.91284 7.03943C8.91401 7.03591 8.91519 7.03357 8.91694 7.03122C8.9187 7.02888 8.92163 7.02713 8.92397 7.02479C8.92689 7.02303 8.92982 7.02127 8.93275 7.01951C8.93451 7.01776 8.93568 7.016 8.93686 7.01424C8.96262 6.98203 8.98897 6.94982 9.01474 6.91761C9.01766 6.91411 9.02059 6.91 9.02352 6.90649C9.02352 6.90414 9.02469 6.9024 9.02587 6.90005C9.02645 6.89829 9.02762 6.89595 9.0288 6.89419C9.03114 6.89068 9.03406 6.88717 9.03699 6.88424C9.03699 6.88424 9.03816 6.88307 9.03875 6.88248C9.04987 6.87195 9.06392 6.86316 9.06685 6.84734V6.84441C9.06685 6.84148 9.0692 6.83915 9.07154 6.83798C9.07271 6.83798 9.07389 6.83739 9.07506 6.83681C9.08267 6.83095 9.0897 6.8251 9.09555 6.81807C9.09731 6.81631 9.09848 6.81455 9.09965 6.81338C9.10434 6.80811 9.10844 6.80225 9.11253 6.79639C9.1178 6.78879 9.12308 6.78058 9.12834 6.77239C9.13244 6.76653 9.13655 6.76009 9.14065 6.75423C9.14357 6.75013 9.1465 6.74604 9.14943 6.74252C9.16934 6.71792 9.18983 6.69333 9.20974 6.66933C9.35029 6.49773 9.49494 6.33025 9.64368 6.16629C9.76022 6.03745 9.88081 5.91272 10.0026 5.78915C10.0237 5.76748 10.0455 5.74582 10.0664 5.72473C10.1063 5.68492 10.1478 5.64802 10.1889 5.60995C10.2053 5.59473 10.2217 5.58009 10.2375 5.56428C10.241 5.56136 10.244 5.55784 10.2475 5.55491C10.2984 5.50572 10.3505 5.45653 10.4021 5.40792C10.4032 5.40676 10.4044 5.40617 10.4056 5.405C10.419 5.39269 10.4342 5.38157 10.4483 5.37045C10.4518 5.36752 10.4547 5.36459 10.4582 5.36107C10.4594 5.35991 10.46 5.35932 10.4612 5.35815C10.477 5.34175 10.4934 5.32594 10.5093 5.30954C10.5116 5.30603 10.5139 5.30368 10.5168 5.30193C10.5197 5.30017 10.5232 5.299 10.5274 5.299C10.5321 5.29841 10.5361 5.29608 10.5396 5.29373C10.542 5.29197 10.5443 5.28963 10.5467 5.28729C10.5485 5.28553 10.5496 5.28318 10.5513 5.28085C10.5543 5.27733 10.5578 5.27323 10.5607 5.26972C10.6023 5.23283 10.6439 5.19652 10.6867 5.16079C10.693 5.15553 10.6995 5.15026 10.7059 5.1444C10.747 5.10985 10.7885 5.07589 10.8307 5.04192C10.925 4.96638 11.0222 4.89318 11.1212 4.82407C11.1247 4.82232 11.1276 4.82056 11.1312 4.8188C11.1341 4.81471 11.1382 4.81119 11.1416 4.80826C11.1639 4.79186 11.1868 4.77488 11.209 4.75907C11.2541 4.72627 11.3004 4.69465 11.3461 4.66361C11.3689 4.64839 11.3923 4.63258 11.4158 4.61794C11.4392 4.60271 11.4625 4.58749 11.486 4.57285C11.5568 4.52834 11.6283 4.48501 11.7009 4.44342C11.7799 4.39775 11.8608 4.35383 11.9416 4.31167C12.1852 4.18635 12.437 4.08036 12.7006 4.00188C12.7204 3.99602 12.741 3.99016 12.7609 3.98431C12.9014 3.94507 13.0425 3.91521 13.186 3.89588C13.2674 3.88476 13.35 3.87715 13.4326 3.87363C13.4946 3.8707 13.5567 3.87012 13.6194 3.87188C13.6405 3.87246 13.6609 3.87305 13.682 3.87422C13.7447 3.87774 13.8068 3.88417 13.8689 3.89296C13.9549 3.90467 14.0398 3.92107 14.1247 3.94274C14.1271 3.94215 14.1289 3.94157 14.1312 3.94274C14.1335 3.94274 14.1353 3.94449 14.1364 3.94625C14.1382 3.94683 14.1406 3.94742 14.1423 3.948C14.1464 3.94917 14.15 3.95035 14.154 3.95211C14.154 3.94625 14.1546 3.9404 14.1552 3.93454C14.154 3.93336 14.1528 3.93219 14.1511 3.93161L14.1528 3.93043Z" fill="#14F46F"/>
<path d="M18.8611 16.5455C18.8172 16.5602 18.7739 16.5743 18.7293 16.5884C18.6415 16.6159 18.5536 16.6422 18.4652 16.6674C18.063 16.7822 17.656 16.8735 17.2448 16.9497C17.0691 16.9825 16.8924 17.0123 16.7155 17.0398C16.1065 17.1353 15.4945 17.2032 14.8801 17.2507C14.7923 17.2577 14.7045 17.2641 14.6166 17.2699C14.5007 17.2776 14.3848 17.2852 14.2688 17.2917C14.25 17.2929 14.2319 17.2934 14.2131 17.2946C14.3391 17.1019 14.4615 16.9069 14.5798 16.709C14.7508 16.4232 14.9141 16.1333 15.0693 15.8393C15.3656 15.8651 15.6613 15.895 15.9571 15.9313C15.9787 15.9336 16.0005 15.9383 16.0227 15.9418C16.1551 15.9512 16.2862 15.9711 16.4168 15.9904C16.5849 16.015 16.7529 16.042 16.9204 16.07C17.1465 16.1082 17.3725 16.1504 17.5967 16.1989C17.718 16.2253 17.8386 16.2522 17.9599 16.2785C17.9792 16.2891 17.9997 16.2932 18.0213 16.2956C18.2802 16.3617 18.5384 16.4314 18.792 16.5152C18.8154 16.5227 18.8429 16.5257 18.8611 16.5455Z" fill="#07903F"/>
<path d="M10.9788 15.7655C10.8541 15.7714 10.7294 15.7784 10.6052 15.7861C10.4688 15.9793 10.3277 16.1696 10.1801 16.3552C10.0354 16.538 9.88725 16.7172 9.7315 16.8911C9.64308 16.9895 9.55406 17.0872 9.46271 17.1833C9.39829 17.2512 9.33271 17.3185 9.26536 17.3842C8.99774 17.6459 8.71723 17.893 8.41565 18.1161C8.36528 18.1531 8.31492 18.1893 8.26338 18.2251C8.09414 18.3428 7.91905 18.4518 7.73693 18.5496C7.60517 18.621 7.4693 18.6842 7.33168 18.7422C7.33286 18.7486 7.33168 18.7556 7.33461 18.7621C7.35394 18.8154 7.37443 18.8675 7.39669 18.9196C7.41836 18.9717 7.44178 19.0226 7.46637 19.073C7.51556 19.1738 7.57062 19.2722 7.63035 19.3682L7.63152 19.3693C7.63562 19.3752 7.64264 19.3805 7.64791 19.3857C7.65787 19.3829 7.66724 19.3787 7.67719 19.377C7.85697 19.3471 8.03148 19.2961 8.20307 19.2335C8.54037 19.1099 8.85367 18.939 9.15233 18.741C9.31455 18.6338 9.47091 18.5185 9.62199 18.3973C9.81579 18.2421 10.0014 18.0776 10.1813 17.9059C10.3868 17.7091 10.5818 17.5031 10.7692 17.2893C10.8436 17.2049 10.9161 17.1195 10.9882 17.0328C11.3302 16.6199 11.6435 16.1854 11.934 15.7351C11.6154 15.741 11.2968 15.7498 10.9788 15.7655Z" fill="#07903F"/>
<path d="M8.99716 15.936C9.05982 15.9225 9.12365 15.9154 9.18748 15.909C8.89936 16.2757 8.59192 16.6252 8.25812 16.9525C8.23704 16.9736 8.21537 16.9942 8.19428 17.0147L8.15681 17.0088C8.04848 16.9907 7.94014 16.9719 7.83181 16.952C7.63094 16.915 7.43008 16.8747 7.23098 16.8291C7.16304 16.8132 7.09452 16.7974 7.0266 16.781C7.0266 16.675 7.02777 16.5684 7.03069 16.4618C7.03245 16.3986 7.03538 16.336 7.03889 16.2733C7.27021 16.2182 7.50328 16.1696 7.73694 16.1251C8.13631 16.0496 8.53805 15.9881 8.94094 15.9383C8.94738 15.9377 8.95382 15.9365 8.96026 15.936C8.96788 15.9348 8.97549 15.9342 8.9831 15.9348C8.98779 15.9348 8.99247 15.936 8.99716 15.9372V15.936Z" fill="#07903F"/>
<path d="M14.2659 6.698C14.3245 6.96562 14.3613 7.23676 14.3836 7.51023C14.4106 7.83817 14.4123 8.1667 14.3994 8.49465C14.3848 8.88056 14.3438 9.26412 14.2858 9.64652C14.2337 9.9921 14.1669 10.3346 14.0878 10.6737C13.9994 10.6696 13.9104 10.6649 13.822 10.6614C13.6193 10.6538 13.4173 10.6491 13.2147 10.645C13.1391 10.6433 13.0636 10.6421 12.9887 10.6409C13.0624 10.3627 13.1274 10.0822 13.183 9.79992C13.2252 9.58861 13.2616 9.376 13.2937 9.16283C13.3148 9.01994 13.3336 8.87706 13.35 8.73358C13.3669 8.58366 13.3805 8.43316 13.3898 8.28207C13.3998 8.12102 13.4061 7.95939 13.4097 7.79836C13.4138 7.58227 13.4068 7.36676 13.391 7.15126C13.3805 7.00895 13.3669 6.86723 13.3488 6.72553C13.3242 6.53169 13.2891 6.34019 13.2428 6.15045C13.2059 5.99878 13.1638 5.8477 13.1075 5.70129C13.1462 5.6767 13.1907 5.66441 13.2334 5.64859C13.3202 5.61639 13.4073 5.58828 13.4964 5.56368C13.5854 5.53967 13.675 5.51917 13.7664 5.50395C13.7728 5.50277 13.7786 5.50102 13.785 5.50102C13.7892 5.50102 13.7927 5.50102 13.7962 5.50219C13.8583 5.6076 13.9203 5.71301 13.9731 5.82428C14.1066 6.1036 14.1997 6.39641 14.2659 6.698Z" fill="#07903F"/>
<path d="M13.2264 3.52752C13.2224 3.50936 13.2048 3.50761 13.1919 3.50176C12.9424 3.39108 12.6929 3.27981 12.4423 3.1703C12.3755 3.14102 12.3111 3.10705 12.242 3.08362C12.2345 3.08831 12.2261 3.08772 12.218 3.08479C12.0464 3.02858 11.8684 3.00047 11.6893 2.98935C11.5246 2.97939 11.3595 2.98935 11.1962 3.01101C11.0615 3.02917 10.929 3.05727 10.7979 3.09241C10.5431 3.16093 10.2984 3.25405 10.0624 3.37058C9.9716 3.41567 9.88375 3.46662 9.79417 3.51405C9.76431 3.52986 9.73327 3.54392 9.70457 3.5609C9.44808 3.71374 9.19919 3.87829 8.9632 4.0616C8.90405 4.10727 8.84373 4.15178 8.78869 4.20156C8.75296 4.23376 8.71841 4.26656 8.67976 4.29467C8.67273 4.29993 8.66513 4.3052 8.65634 4.31048C8.6499 4.31633 8.64345 4.3216 8.63702 4.32688V4.32805C8.63409 4.33566 8.63116 4.34269 8.62647 4.34678C8.62355 4.34912 8.62062 4.3503 8.6171 4.35088H8.61007C8.61007 4.35088 8.60657 4.34971 8.60422 4.34912C8.60246 4.3503 8.60071 4.35147 8.59954 4.35264C8.57904 4.36728 8.56791 4.39247 8.54917 4.40711C8.54624 4.40944 8.54332 4.4112 8.54039 4.41296C8.4912 4.43872 8.46133 4.48499 8.41742 4.5166C8.37524 4.54707 8.34012 4.58747 8.30146 4.62319C8.10995 4.79945 7.929 4.98626 7.7498 5.17483C7.69476 5.23281 7.64557 5.29488 7.59286 5.3552C7.56241 5.38974 7.52845 5.42021 7.49859 5.45416C7.41719 5.54727 7.33813 5.64273 7.2579 5.73643C7.19817 5.80612 7.14194 5.87814 7.08866 5.95251C7.0465 6.01167 6.99613 6.06437 6.95104 6.12118C6.81459 6.29627 6.68518 6.47663 6.55576 6.65641C6.42809 6.83385 6.31097 7.01832 6.18976 7.20044C6.08083 7.36383 5.98069 7.53307 5.87704 7.70055C5.83897 7.76263 5.805 7.82704 5.76636 7.88912C5.70018 7.9957 5.6387 8.1052 5.58072 8.21647C5.54441 8.2598 5.52274 8.31251 5.49522 8.36112C5.43783 8.46302 5.38278 8.56609 5.33301 8.67208C5.3172 8.70605 5.29436 8.73474 5.27796 8.76871C5.2317 8.86299 5.18485 8.95728 5.13624 9.05096C5.01502 9.2864 4.90845 9.52829 4.79776 9.76888C4.67772 10.0289 4.57114 10.2954 4.46572 10.5619C4.39428 10.7428 4.32226 10.9237 4.26545 11.1099C4.25608 11.1404 4.23851 11.1679 4.22797 11.1978C4.17292 11.3583 4.11788 11.5181 4.06576 11.6792C4.01715 11.8273 3.97147 11.9767 3.92755 12.126C3.88539 12.27 3.84498 12.4141 3.80634 12.5588C3.73078 12.8393 3.66169 13.1215 3.60254 13.4056C3.58732 13.481 3.57209 13.5567 3.55745 13.6322C3.50709 13.8892 3.46258 14.1481 3.42627 14.4081C3.39231 14.6552 3.3642 14.9029 3.34194 15.1513C3.34019 15.1741 3.33843 15.197 3.33668 15.2198C3.32613 15.3556 3.31794 15.4921 3.31266 15.6291C3.30623 15.7854 3.30505 15.9418 3.30388 16.0981C3.30388 16.1725 3.31149 16.2475 3.3109 16.3224C3.30974 16.4366 3.31969 16.5502 3.32613 16.6639C3.32847 16.7055 3.33023 16.7476 3.33433 16.7897C3.33492 16.7968 3.33609 16.8044 3.33668 16.8115C3.35014 16.9209 3.35892 17.0311 3.37415 17.14C3.38879 17.246 3.40343 17.352 3.42276 17.4567C3.45086 17.6032 3.47722 17.7496 3.52231 17.8919C3.53637 17.9364 3.54397 17.9833 3.55687 18.0289C3.5838 18.1285 3.61601 18.2268 3.65115 18.3235C3.70209 18.4623 3.76066 18.5982 3.82389 18.7317C3.92169 18.9367 4.04291 19.1275 4.18522 19.3043C4.31991 19.4725 4.47393 19.6206 4.6502 19.7447C4.65722 19.75 4.66484 19.7547 4.67244 19.7594C4.68533 19.7676 4.69821 19.7758 4.7111 19.784C4.71812 19.7887 4.72574 19.7933 4.73335 19.798C4.75795 19.8132 4.78195 19.8291 4.80537 19.846C4.80537 19.846 4.80596 19.846 4.80654 19.8467C4.81358 19.8519 4.82061 19.8572 4.82763 19.8631C4.82763 19.8641 4.8288 19.8654 4.82939 19.8666C4.83349 19.8725 4.84168 19.873 4.84813 19.8759C5.15264 20.0106 5.45657 20.1453 5.76109 20.28C5.77338 20.2852 5.7851 20.2934 5.79974 20.2899C5.79798 20.287 5.79681 20.2847 5.79505 20.2817C5.78217 20.2648 5.76167 20.2584 5.7441 20.2472C5.65099 20.188 5.56257 20.1219 5.47999 20.0499C5.43608 20.0118 5.39333 19.9713 5.35233 19.9298C5.19539 19.7705 5.06304 19.5936 4.95061 19.4045C4.90962 19.3354 4.87096 19.2645 4.83466 19.1919C4.81299 19.1486 4.7919 19.1047 4.772 19.0601C4.76321 19.0409 4.75502 19.0221 4.74681 19.0028C4.73862 18.9834 4.73042 18.9647 4.72222 18.9454C4.60744 18.6702 4.52429 18.3856 4.46163 18.095C4.44289 18.009 4.42649 17.9223 4.41127 17.8351C4.38081 17.657 4.35797 17.4785 4.34099 17.2986C4.324 17.1195 4.31405 16.9391 4.30819 16.7587C4.30234 16.5678 4.30351 16.3763 4.30936 16.1854C4.30995 16.1725 4.30995 16.1596 4.31054 16.1467C4.31405 16.0472 4.31874 15.9477 4.324 15.8481C4.32986 15.7491 4.3369 15.6496 4.34509 15.5506C4.34685 15.529 4.34919 15.5072 4.35212 15.4769C4.35212 15.4739 4.35271 15.471 4.35271 15.468C4.35621 15.4283 4.35973 15.3884 4.36442 15.3486C4.38257 15.1705 4.40541 14.9931 4.43059 14.8163C4.45694 14.6324 4.48681 14.4497 4.5196 14.2676C4.5237 14.2453 4.52838 14.2237 4.53248 14.2014C4.53307 14.1972 4.53424 14.1932 4.53483 14.1885C4.53717 14.1774 4.53893 14.1662 4.54126 14.1552C4.54654 14.127 4.55181 14.0995 4.55709 14.0719C4.57992 13.9554 4.60392 13.8389 4.6297 13.7229C4.65956 13.587 4.69177 13.4518 4.72515 13.3172C4.76204 13.1671 4.80069 13.0179 4.84168 12.8691C4.84168 12.8668 4.84285 12.8644 4.84344 12.8621C4.86979 12.7673 4.89732 12.6723 4.92543 12.578C4.99394 12.3485 5.0648 12.1196 5.14093 11.8923C5.18251 11.7694 5.22585 11.6469 5.26977 11.5252C5.35292 11.295 5.44018 11.0667 5.53212 10.8406C5.70487 10.4137 5.89227 9.99264 6.09547 9.57801C6.13294 9.50131 6.17101 9.42461 6.20966 9.34845C6.30101 9.16807 6.39588 8.98889 6.49309 8.81146C6.51887 8.76402 6.54522 8.71659 6.57098 8.66974C6.57332 8.66622 6.57567 8.66213 6.57743 8.65862C6.58036 8.65334 6.58269 8.64807 6.5821 8.64163C6.58562 8.63577 6.58972 8.62992 6.59265 8.62465C6.62076 8.57487 6.64887 8.52509 6.67756 8.47531C6.73496 8.37635 6.79234 8.27796 6.85149 8.17958C6.89307 8.11048 6.93523 8.04138 6.97739 7.97287C7.02483 7.89556 7.07285 7.81885 7.12204 7.74271C7.18353 7.64668 7.24619 7.55064 7.30943 7.45577C7.37619 7.35563 7.44412 7.25725 7.51323 7.15887C7.55421 7.09972 7.59579 7.04116 7.63738 6.98201V6.97849C7.63738 6.9779 7.63796 6.97675 7.63855 6.97616C7.63972 6.9744 7.64205 6.97381 7.6444 6.97381C7.65612 6.95742 7.66724 6.94044 7.67954 6.92404C8.14101 6.29042 8.64521 5.69309 9.21267 5.15082C9.41705 4.95581 9.62786 4.76959 9.84868 4.5945C9.93653 4.52422 10.0261 4.45629 10.1175 4.38954L10.1403 4.37314C10.1783 4.34562 10.217 4.31867 10.2557 4.29174C10.4418 4.1629 10.6327 4.04285 10.8302 3.9351C10.8676 3.9146 10.9056 3.89469 10.9437 3.87537C10.9724 3.86073 11.0005 3.84609 11.0292 3.83203C11.0538 3.81973 11.0784 3.80802 11.103 3.79632C11.202 3.75005 11.3021 3.70671 11.4046 3.66748C11.7302 3.54216 12.0652 3.45667 12.4147 3.43792C12.6783 3.42387 12.9377 3.44729 13.1919 3.524C13.203 3.52752 13.2147 3.5322 13.2264 3.52752Z" fill="#07903F"/>
<path d="M12.1869 3.05965C11.9603 2.95833 11.7331 2.85995 11.5077 2.75747C11.2494 2.63977 10.9811 2.56715 10.6972 2.55368C10.6257 2.55368 10.5537 2.55368 10.4823 2.55426H10.3985C10.2557 2.56188 10.1145 2.58296 9.97455 2.61282C9.56168 2.70067 9.17753 2.86229 8.80918 3.06491C8.43849 3.2687 8.09417 3.51231 7.7668 3.77935C7.72523 3.81332 7.68014 3.84435 7.64383 3.88535C7.64091 3.88653 7.63798 3.88886 7.63622 3.89179V3.8953H7.63271C7.62334 3.90291 7.61396 3.90994 7.6046 3.91755C7.2421 4.22793 6.90538 4.56465 6.58681 4.92012C6.20851 5.34292 5.85949 5.78915 5.53331 6.25295C5.04725 6.94397 4.61683 7.66896 4.23325 8.42145C3.97442 8.92859 3.739 9.4469 3.52702 9.9756C3.30624 10.5272 3.10362 11.086 2.94082 11.6581C2.92266 11.7213 2.90042 11.784 2.88226 11.8472C2.74875 12.3186 2.63338 12.7941 2.54261 13.2755C2.46531 13.6837 2.40382 14.0937 2.36341 14.5071C2.33354 14.8069 2.31306 15.1074 2.31423 15.4089C2.31423 15.5459 2.31481 15.6829 2.3154 15.8201C2.31715 15.8387 2.31773 15.8575 2.31832 15.8762C2.31891 15.9055 2.31832 15.9342 2.31715 15.9635C2.31832 16.1304 2.33237 16.2961 2.34819 16.4624C2.37454 16.7336 2.41553 17.0018 2.47585 17.2671C2.5508 17.5997 2.65329 17.9223 2.7991 18.231C2.95546 18.5612 3.15399 18.8616 3.42219 19.1129C3.57855 19.2593 3.75071 19.3829 3.94455 19.4737C4.11672 19.5544 4.29124 19.63 4.46574 19.7067C4.58521 19.7594 4.7035 19.8162 4.8253 19.8631C4.81828 19.8578 4.81125 19.8519 4.80423 19.8467C4.80423 19.8467 4.80364 19.8467 4.80306 19.846C4.77963 19.8291 4.75562 19.8132 4.73102 19.7981C4.72341 19.7934 4.71638 19.7887 4.70877 19.784C4.69589 19.7758 4.68301 19.7682 4.67012 19.7594C4.66251 19.7547 4.65548 19.7494 4.64787 19.7447C4.4716 19.62 4.31817 19.4725 4.1829 19.3044C4.0406 19.1275 3.91938 18.9367 3.82158 18.7317C3.75775 18.5982 3.69919 18.4623 3.64882 18.3235C3.61368 18.2268 3.58148 18.1285 3.55454 18.0289C3.54224 17.9838 3.53404 17.9369 3.51999 17.8919C3.4749 17.7496 3.44796 17.6032 3.42044 17.4567C3.40053 17.352 3.38647 17.246 3.37183 17.14C3.35661 17.0311 3.34723 16.9209 3.33435 16.8115C3.33376 16.8044 3.33259 16.7968 3.33201 16.7897C3.32792 16.7482 3.32616 16.706 3.32381 16.6639C3.31795 16.5502 3.308 16.4366 3.30859 16.3224C3.30859 16.2481 3.30097 16.1732 3.30156 16.0981C3.30273 15.9418 3.30449 15.7854 3.31035 15.6291C3.31561 15.4926 3.32381 15.3563 3.33435 15.2198C3.33611 15.197 3.33787 15.1741 3.33962 15.1513C3.36187 14.9029 3.38999 14.6553 3.42395 14.4081C3.46026 14.1481 3.50476 13.8892 3.55513 13.6322C3.56977 13.5567 3.58499 13.481 3.60022 13.4056C3.65878 13.1209 3.72847 12.8393 3.80401 12.5588C3.84265 12.4141 3.88307 12.2695 3.92523 12.126C3.96915 11.9761 4.01482 11.8273 4.06343 11.6792C4.11614 11.5181 4.17118 11.3577 4.22565 11.1978C4.2356 11.1674 4.25375 11.1399 4.26312 11.1099C4.32052 10.9237 4.39196 10.7428 4.46341 10.5619C4.56881 10.2954 4.67539 10.0296 4.79544 9.76888C4.90612 9.52884 5.0127 9.2864 5.13393 9.05098C5.18194 8.95728 5.22937 8.863 5.27563 8.76871C5.29203 8.73533 5.31546 8.70605 5.33069 8.67209C5.38046 8.56609 5.43551 8.46303 5.49289 8.36114C5.52042 8.31253 5.54209 8.25984 5.5784 8.21649C5.63637 8.10524 5.69786 7.99573 5.76403 7.88914C5.80269 7.82765 5.83666 7.76266 5.87471 7.70058C5.97778 7.53309 6.07792 7.36444 6.18743 7.20047C6.30865 7.01834 6.42577 6.83388 6.55343 6.65644C6.68285 6.47666 6.81227 6.29629 6.94872 6.1212C6.99322 6.06381 7.04359 6.01169 7.08633 5.95254C7.13963 5.87817 7.19584 5.80614 7.25557 5.73646C7.3358 5.64217 7.41486 5.54672 7.49626 5.45419C7.52613 5.42022 7.56009 5.38977 7.59054 5.35522C7.64324 5.29549 7.69244 5.23283 7.74749 5.17486C7.92668 4.98629 8.10764 4.79948 8.29911 4.62321C8.33777 4.58749 8.37291 4.54708 8.41507 4.51663C8.45899 4.48501 8.48826 4.43875 8.53804 4.41298C8.54097 4.41123 8.54449 4.40947 8.54682 4.40712C8.56556 4.39248 8.5767 4.36731 8.59719 4.35267C8.59895 4.3515 8.6007 4.35032 8.60188 4.34915C8.60305 4.34212 8.60539 4.33627 8.6089 4.33275C8.61241 4.32865 8.61652 4.32631 8.62238 4.32572C8.62588 4.32572 8.63057 4.32572 8.63526 4.32689C8.64169 4.32162 8.64814 4.31577 8.65457 4.3105C8.66336 4.30465 8.6704 4.29996 8.678 4.29469C8.71665 4.26658 8.7512 4.23437 8.78693 4.20157C8.84197 4.15121 8.90288 4.10729 8.96144 4.06161C9.19744 3.87832 9.44632 3.71377 9.70281 3.56092C9.73209 3.54394 9.76254 3.52988 9.79241 3.51407C9.88201 3.46605 9.96985 3.41511 10.0606 3.3706C10.2966 3.25406 10.542 3.16095 10.7962 3.09243C10.9273 3.0573 11.0597 3.02977 11.1943 3.01104C11.3578 2.98878 11.5229 2.97942 11.6874 2.98937C11.8672 3.00049 12.0447 3.0286 12.2162 3.08482C12.2251 3.08775 12.2326 3.08834 12.2402 3.08365C12.2256 3.06784 12.2033 3.06784 12.1852 3.05965L12.1869 3.05965Z" fill="#031116"/>
</svg>
